<svg xmlns="http://www.w3.org/2000/svg" width="50" height="50" viewBox="-280 372 50 50"><path fill="#f90" d="M-235 378.8l-4.8-4.8-2-2H-277v50h44v-41.2z"/><path opacity=".8" fill="#FFF" d="M-242 374h-33v46h40v-39h-7z"/><path fill="#f90" d="M-260.996 407.482l-2.437 8.893h-1.668l-1.693-6.22a4.24 4.24 0 0 1-.13-.868h-.025a4.18 4.18 0 0 1-.149.855l-1.699 6.232h-1.706l-2.487-8.893h1.619l1.612 6.512c.066.272.107.558.124.855h.031c.016-.211.074-.496.173-.855l1.823-6.512h1.519l1.687 6.561c.058.224.101.488.13.794h.024c.013-.206.06-.479.143-.818l1.582-6.536h1.527zM-251.688 416.375v-8.893h2.567c3.278 0 4.917 1.445 4.917 4.335 0 1.372-.455 2.475-1.363 3.308-.91.834-2.13 1.25-3.659 1.25h-2.462zm1.47-7.64v6.394h1.179c1.037 0 1.844-.285 2.421-.856.577-.57.865-1.376.865-2.418 0-2.079-1.077-3.119-3.231-3.119h-1.234zM-237.654 416.375h-4.924v-8.893h1.476v7.646h3.448v1.247zM-262.393 398.13l-9.692-4.656v-1.15l9.692-5.058v2.062l-7.087 3.516v.043l7.087 3.191v2.052zM-250.129 383.63l-7.521 18.146h-2.29l7.489-18.146h2.322zM-237.767 393.409l-9.692 4.656v-2.051l7.098-3.158v-.065l-7.098-3.517v-2.062l9.692 5.047v1.15z"/><text style="line-height:125%" x="-232.598" y="468.321" transform="scale(1.12573 .88831)" font-weight="400" font-size="13.373" font-family="sans-serif" letter-spacing="0" word-spacing="0" fill="#f90"><tspan x="-232.598" y="468.321">S</tspan></text></svg>