<?xml version="1.0" encoding="utf-8"?>
<!-- Generator: Adobe Illustrator 25.4.1, SVG Export Plug-In . SVG Version: 6.00 Build 0)  -->
<svg version="1.1" id="Calque_1" xmlns="http://www.w3.org/2000/svg" xmlns:xlink="http://www.w3.org/1999/xlink" x="0px" y="0px"
	 viewBox="0 0 335 203" style="enable-background:new 0 0 335 203;" xml:space="preserve">
<style type="text/css">
	.st0{fill:#4260A9;}
	.st1{fill:#414141;}
</style>
<g id="Group_10600_00000167389001124851541960000010838361363078456476_" transform="translate(-315.75 -775.729)">
	<path id="Path_12551_00000049191697380985066690000004184454003254586554_" class="st0" d="M501.85,890.37
		c-1.22-1.11-3.1-1.02-4.2,0.2c-0.5,0.55-0.78,1.27-0.77,2.02l0.02,30.18c0,1.65,1.33,2.98,2.97,2.98c0.75,0,1.47-0.28,2.02-0.78
		l4.93-4.52l3.48,7.83c0.68,1.5,2.43,2.17,3.94,1.51l3.63-1.62c1.5-0.68,2.17-2.43,1.51-3.94l-3.49-7.83l6.66-0.65
		c1.64-0.16,2.84-1.62,2.68-3.26c-0.07-0.74-0.42-1.43-0.98-1.93L501.85,890.37z M522.36,913.78l-8.03,0.78
		c-0.55,0.06-0.95,0.55-0.89,1.1c0.01,0.1,0.04,0.2,0.08,0.29l4.04,9.08c0.22,0.5,0,1.09-0.5,1.31c0,0,0,0,0,0l-3.63,1.62
		c-0.5,0.22-1.09,0-1.31-0.5c0,0,0,0,0,0l-4.04-9.09c-0.23-0.5-0.82-0.72-1.32-0.49c-0.09,0.04-0.18,0.1-0.25,0.17l-5.95,5.45
		c-0.4,0.37-1.03,0.35-1.4-0.05c-0.17-0.18-0.27-0.43-0.26-0.68l-0.02-30.18c0-0.55,0.45-1,1-1c0.24,0,0.48,0.09,0.66,0.25
		l22.41,20.21c0.41,0.37,0.44,0.99,0.08,1.4C522.84,913.64,522.61,913.76,522.36,913.78z"/>
	<path id="Path_12552_00000049942065688437978610000012293245096531911328_" class="st1" d="M505.02,882.33h2.34
		c1.1,0,1.99-0.89,1.99-1.99v-6.96c0-1.65-1.34-2.98-2.98-2.98h-3.28c-1.22,0.01-2.31-0.74-2.76-1.87l-2.48-6.19
		c-0.45-1.14-1.56-1.88-2.78-1.88h-13.58c-0.91,0-1.77,0.41-2.34,1.13l-6.16,7.7c-0.56,0.71-1.42,1.12-2.32,1.11h-8.03
		c-1.65,0-2.98,1.34-2.98,2.98v6.96c0,1.1,0.89,1.99,1.99,1.99h2.34c1.09,3.1,4.49,4.73,7.59,3.64c1.7-0.6,3.04-1.94,3.64-3.64
		h18.58c1.09,3.1,4.49,4.73,7.59,3.64C503.08,885.37,504.42,884.04,505.02,882.33L505.02,882.33z M480.7,862.83
		c0.19-0.24,0.48-0.38,0.79-0.38h13.58c0.41,0,0.78,0.25,0.93,0.63l2.47,6.19c0.16,0.4,0.38,0.78,0.64,1.13h-24.48L480.7,862.83z
		 M469.59,884.32c-2.2,0-3.98-1.78-3.98-3.98c0-2.2,1.78-3.97,3.98-3.97c2.2,0,3.98,1.78,3.98,3.98l0,0
		C473.56,882.54,471.78,884.32,469.59,884.32z M493.44,880.34h-17.89c0.04-3.29-2.59-6-5.88-6.04s-6,2.59-6.04,5.88
		c0,0.05,0,0.1,0,0.16h-1.99v-6.96c0-0.55,0.45-0.99,0.99-0.99h43.73c0.55,0,0.99,0.45,0.99,0.99v6.96h-1.99
		c0-3.29-2.66-5.97-5.96-5.97s-5.97,2.66-5.97,5.96C493.44,880.34,493.44,880.34,493.44,880.34L493.44,880.34z M495.43,880.34
		c0-2.2,1.78-3.98,3.97-3.98s3.98,1.78,3.98,3.97c0,2.2-1.78,3.98-3.97,3.98c0,0,0,0,0,0C497.21,884.31,495.43,882.54,495.43,880.34
		L495.43,880.34z"/>
	<path id="Path_12553_00000000908454190474407570000004755045708230706066_" class="st1" d="M520.28,848.54h-71.56
		c-2.74,0-4.97,2.23-4.97,4.97v39.76c0,2.74,2.23,4.97,4.97,4.97h45.16c0.55,0,0.99-0.45,0.99-1c0-0.55-0.44-0.99-0.99-0.99h-45.16
		c-1.65,0-2.98-1.34-2.98-2.98v-39.75c0-1.65,1.34-2.98,2.98-2.98h71.56c1.65,0,2.98,1.34,2.98,2.98v39.76
		c0,1.65-1.34,2.98-2.98,2.98h-6.36c-0.55,0-1,0.44-1,0.99c0,0.55,0.44,1,0.99,1c0,0,0.01,0,0.01,0h6.36c2.74,0,4.97-2.23,4.97-4.97
		v-39.76C525.24,850.77,523.02,848.54,520.28,848.54z"/>
</g>
</svg>
