<?xml version="1.0" encoding="utf-8"?>
<!-- Generator: Adobe Illustrator 25.4.1, SVG Export Plug-In . SVG Version: 6.00 Build 0)  -->
<svg version="1.1" id="Calque_1" xmlns="http://www.w3.org/2000/svg" xmlns:xlink="http://www.w3.org/1999/xlink" x="0px" y="0px"
	 viewBox="0 0 335 203" style="enable-background:new 0 0 335 203;" xml:space="preserve">
<style type="text/css">
	.st0{fill:#414141;}
	.st1{fill:#4260AA;}
</style>
<g id="Group_10661_00000118368195386737704060000005758611072089002666_" transform="translate(90.181 24.182)">
	<path id="Path_12486_00000130645263803948898790000017470219515029008554_" class="st0" d="M52.5,70.75
		c-1.48-0.02-2.7,1.17-2.71,2.66c0,0.02,0,0.04,0,0.06v1.81c-0.01,1.15,0.72,2.18,1.81,2.55v9.21c0,0.77,0.33,1.5,0.9,2.01v5.23
		c0,1.5,1.21,2.71,2.71,2.71h3.62c1.5,0,2.71-1.21,2.71-2.71v-4.52h32.55v4.52c0,1.5,1.21,2.71,2.71,2.71h3.62
		c1.5,0,2.71-1.21,2.71-2.71v-5.23c0.57-0.51,0.9-1.24,0.9-2.01v-9.2c1.09-0.37,1.82-1.4,1.81-2.55v-1.81
		c0.02-1.48-1.17-2.7-2.66-2.71c-0.02,0-0.04,0-0.06,0h-3.87l-2.09-6.28c-0.37-1.11-1.41-1.86-2.57-1.86H61.04
		c-1.17,0-2.21,0.75-2.57,1.86l-2.09,6.28H52.5z M53.03,76.18H52.5c-0.49,0.01-0.89-0.38-0.9-0.87c0-0.01,0-0.02,0-0.03v-1.81
		c-0.01-0.49,0.38-0.89,0.87-0.9c0.01,0,0.02,0,0.03,0h3.27l-0.44,1.32L53.03,76.18z M53.41,79.15l9.04,2.26v2.22l-9.04-1.03
		L53.41,79.15z M59.74,94.26c0,0.5-0.4,0.9-0.9,0.9h-3.62c-0.5,0-0.9-0.4-0.9-0.9v-4.52h5.42V94.26z M101.33,94.26
		c0,0.5-0.4,0.9-0.9,0.9h-3.62c-0.5,0-0.9-0.4-0.9-0.9v-4.52h5.43L101.33,94.26z M102.23,82.55l-9.04,1.03v-2.22l9.04-2.26V82.55z
		 M103.13,72.56c0.49-0.01,0.89,0.38,0.9,0.87c0,0.01,0,0.02,0,0.03v1.81c0.01,0.49-0.38,0.89-0.87,0.9c-0.01,0-0.02,0-0.03,0h-0.53
		l-2.3-2.3l-0.44-1.32L103.13,72.56z M99.97,76.1l1.36,1.36l-9.26,2.31c-0.4,0.1-0.69,0.46-0.68,0.88v3.94c0,0.5,0.4,0.9,0.89,0.91
		c0.04,0,0.08,0,0.11-0.01l9.84-1.12v2.66c0,0.5-0.4,0.9-0.9,0.9H54.31c-0.5,0-0.9-0.4-0.9-0.9v-2.6l9.84,1.12
		c0.49,0.06,0.94-0.29,1-0.79c0-0.04,0.01-0.08,0.01-0.11V80.7c0-0.41-0.28-0.78-0.68-0.88l-9.3-2.32l1.4-1.4l11.3,2.8l21.92-0.03
		L99.97,76.1z M60.18,65.04c0.12-0.37,0.47-0.62,0.86-0.62H94.6c0.39,0,0.73,0.25,0.86,0.62l3.18,9.53l-9.96,2.51l-21.48,0.03
		l-10.18-2.54L60.18,65.04z"/>
	<path id="Path_12487_00000095321249926353247060000004476921879009434040_" class="st0" d="M88.67,84.32h-21.7
		c-0.5,0-0.9,0.4-0.9,0.9s0.4,0.9,0.9,0.9h21.7c0.5,0,0.9-0.4,0.9-0.9S89.17,84.32,88.67,84.32z"/>
	<path id="Path_12488_00000105400012056479979080000011757181574957995435_" class="st0" d="M66.97,80.7c-0.5,0-0.9,0.4-0.9,0.9
		s0.4,0.9,0.9,0.9h21.7c0.5,0,0.9-0.4,0.9-0.9s-0.4-0.9-0.9-0.9H66.97z"/>
	<path id="Path_12489_00000148636796027051446080000007624641237426484415_" class="st1" d="M41.65,59.02c0.5,0,0.9-0.4,0.9-0.9l0,0
		V44.56h13.57c0.5,0,0.9-0.4,0.9-0.9s-0.4-0.9-0.9-0.9H41.65c-0.5,0-0.9,0.4-0.9,0.9v0v14.47C40.75,58.62,41.15,59.02,41.65,59.02
		C41.65,59.02,41.65,59.02,41.65,59.02z"/>
	<path id="Path_12490_00000088098592526619955700000010240011225895162256_" class="st1" d="M113.98,42.75H99.52
		c-0.5,0-0.9,0.4-0.9,0.9s0.4,0.9,0.9,0.9h13.56v13.56c0,0.5,0.4,0.9,0.9,0.9c0.5,0,0.9-0.4,0.9-0.9V43.65
		C114.89,43.16,114.49,42.75,113.98,42.75C113.99,42.75,113.99,42.75,113.98,42.75z"/>
	<path id="Path_12491_00000021096555029263040880000004590056073804253571_" class="st1" d="M41.65,116.89h14.47
		c0.5,0,0.9-0.4,0.9-0.9c0-0.5-0.4-0.9-0.9-0.9H42.56v-13.56c0-0.5-0.4-0.9-0.9-0.9s-0.9,0.4-0.9,0.9v14.47
		C40.75,116.48,41.15,116.89,41.65,116.89C41.65,116.89,41.65,116.89,41.65,116.89z"/>
	<path id="Path_12492_00000064338328137094141220000005121094293285839286_" class="st1" d="M113.98,100.61c-0.5,0-0.9,0.4-0.9,0.9
		v13.56H99.52c-0.5,0-0.9,0.4-0.9,0.9c0,0.5,0.4,0.9,0.9,0.9h14.47c0.5,0,0.9-0.4,0.9-0.9v-14.47
		C114.89,101.02,114.49,100.62,113.98,100.61C113.99,100.61,113.99,100.61,113.98,100.61z"/>
	<path id="Path_12493_00000144305626965226777140000011451028000471075485_" class="st1" d="M48.89,59.02c0.5,0,0.9-0.4,0.9-0.9l0,0
		v-6.33h6.33c0.5,0,0.9-0.4,0.9-0.9s-0.4-0.9-0.9-0.9l0,0h-7.23c-0.5,0-0.9,0.4-0.9,0.9v0v7.23C47.98,58.61,48.38,59.02,48.89,59.02
		C48.88,59.02,48.88,59.02,48.89,59.02z"/>
	<path id="Path_12494_00000065038594439716915340000014998772719050419112_" class="st1" d="M47.98,108.75c0,0.5,0.4,0.9,0.9,0.9
		h7.23c0.5,0,0.9-0.4,0.9-0.9c0-0.5-0.4-0.9-0.9-0.9l0,0h-6.33v-6.33c0-0.5-0.4-0.9-0.9-0.9s-0.9,0.4-0.9,0.9V108.75z"/>
	<path id="Path_12495_00000005266850986134420670000013549195093721817492_" class="st1" d="M106.75,100.61c-0.5,0-0.9,0.4-0.9,0.9
		v6.33h-6.33c-0.5,0-0.9,0.4-0.9,0.9c0,0.5,0.4,0.9,0.9,0.9h7.23c0.5,0,0.9-0.4,0.9-0.9v-7.23
		C107.66,101.02,107.26,100.62,106.75,100.61C106.76,100.61,106.75,100.61,106.75,100.61z"/>
	<path id="Path_12496_00000013156761544219490550000003630980472696673451_" class="st1" d="M107.65,50.89c0-0.5-0.4-0.9-0.9-0.9
		h-7.23c-0.5,0-0.9,0.4-0.9,0.9s0.4,0.9,0.9,0.9h6.33v6.33c0,0.5,0.4,0.9,0.9,0.9c0.5,0,0.9-0.4,0.9-0.9L107.65,50.89z"/>
</g>
</svg>
