<?xml version="1.0" encoding="utf-8"?>
<!-- Generator: Adobe Illustrator 25.4.1, SVG Export Plug-In . SVG Version: 6.00 Build 0)  -->
<svg version="1.1" id="Calque_1" xmlns="http://www.w3.org/2000/svg" xmlns:xlink="http://www.w3.org/1999/xlink" x="0px" y="0px"
	 viewBox="0 0 335 203" style="enable-background:new 0 0 335 203;" xml:space="preserve">
<style type="text/css">
	.st0{fill:#4E4D4D;}
	.st1{fill:none;stroke:#414141;stroke-width:1.5;stroke-linecap:round;stroke-linejoin:round;}
	.st2{fill:#414141;}
	.st3{fill:none;stroke:#4260A9;}
	.st4{fill:none;}
</style>
<path id="Path_12559" class="st0" d="M234.1,144.75V128.6c1.55,0,1.72,0.2,1.89,0.37c0.35,0.35,0.34,1.41,0.33,2.76v6.88
	c0,2.75,1.33,4.39,3.56,4.39s3.54-1.64,3.54-4.39c0.03-17.75,0.03-17.75-0.23-18l-4.14-4.97c-0.35-0.42-0.98-0.48-1.41-0.13
	s-0.48,0.98-0.13,1.41l3.91,4.7c0.01,1.83,0,10.85-0.01,16.99c0,2.39-1.12,2.39-1.54,2.39s-1.56,0-1.56-2.39v-6.87
	c0.01-1.88,0.02-3.24-0.91-4.18c-0.66-0.66-1.24-0.96-3.31-0.96v-13.16c0.09-2.23-1.64-4.1-3.87-4.19c-0.04,0-0.08,0-0.13,0h-17.93
	c-2.23,0.02-4.02,1.84-4,4.07c0,0.04,0,0.08,0,0.13v31.31h-3.67v8.75h43v-8.75H234.1z M212.17,111.25h17.93
	c1.13,0.02,2.02,0.95,2,2.08c0,0.04,0,0.08-0.01,0.12v31.31h-21.92v-31.31c-0.09-1.12,0.75-2.1,1.87-2.19
	C212.09,111.25,212.13,111.25,212.17,111.25z M245.5,151.51h-39v-4.75h39V151.51z M214.96,128.55h12.36
	c1.21,0.11,2.28-0.78,2.39-1.99c0.01-0.16,0.01-0.33-0.01-0.49v-9.76c0.14-1.23-0.75-2.33-1.97-2.47c-0.14-0.02-0.27-0.02-0.41-0.01
	h-12.36c-1.21-0.11-2.28,0.78-2.39,1.99c-0.01,0.16-0.01,0.33,0.01,0.49v9.76c-0.15,1.22,0.73,2.33,1.95,2.47
	C214.67,128.56,214.81,128.56,214.96,128.55z M214.48,116.41c-0.04-0.33,0.2-0.64,0.53-0.68c0.05-0.01,0.1-0.01,0.15,0h11.96
	c0.45,0,0.68,0.19,0.68,0.68v9.56c0.04,0.34-0.2,0.64-0.54,0.68c-0.05,0.01-0.1,0.01-0.14,0h-11.96c-0.34,0.04-0.64-0.2-0.68-0.54
	c-0.01-0.05-0.01-0.1,0-0.14V116.41z M225.76,120h-9.21v-1.8h9.21V120z M225.76,124.14h-9.21v-1.8h9.21V124.14z"/>
<g id="Group_10648" transform="translate(88.033 75.327)">
	<path id="Path_12557" class="st1" d="M-7.63-5.42H5.06c0.48,0,0.87,0.39,0.87,0.87v2.96c0,0.48-0.39,0.87-0.87,0.87H-7.63
		c-0.48,0-0.87-0.39-0.87-0.87v-2.96C-8.5-5.03-8.11-5.42-7.63-5.42z"/>
	<path id="Path_12558" class="st1" d="M3.59-3.85c0.2,0.01,0.36,0.18,0.35,0.38c-0.01,0.2-0.18,0.36-0.38,0.35
		C3.37-3.13,3.22-3.29,3.21-3.49C3.22-3.69,3.39-3.85,3.59-3.85C3.59-3.85,3.59-3.85,3.59-3.85z"/>
</g>
<g id="Group_10651" transform="translate(259.033 75.327)">
	<path id="Path_12557-2" class="st1" d="M-7.63-5.42H5.06c0.48,0,0.87,0.39,0.87,0.87v2.96c0,0.48-0.39,0.87-0.87,0.87H-7.63
		c-0.48,0-0.87-0.39-0.87-0.87v-2.96C-8.5-5.03-8.11-5.42-7.63-5.42z"/>
	<path id="Path_12558-2" class="st1" d="M3.59-3.85c0.2,0.01,0.36,0.18,0.35,0.38c-0.01,0.2-0.18,0.36-0.38,0.35
		C3.37-3.13,3.22-3.29,3.21-3.49C3.22-3.69,3.39-3.85,3.59-3.85C3.59-3.85,3.59-3.85,3.59-3.85z"/>
</g>
<g id="Group_10649" transform="translate(88.033 68.53)">
	<path id="Path_12557-3" class="st1" d="M-7.63-5.42H5.06c0.48,0,0.87,0.39,0.87,0.87v2.96c0,0.48-0.39,0.87-0.87,0.87H-7.63
		c-0.48,0-0.87-0.39-0.87-0.87v-2.96C-8.5-5.03-8.11-5.42-7.63-5.42z"/>
	<path id="Path_12558-3" class="st1" d="M3.59-3.85c0.2,0.01,0.36,0.18,0.35,0.38c-0.01,0.2-0.18,0.36-0.38,0.35
		C3.37-3.13,3.22-3.29,3.21-3.49C3.22-3.69,3.39-3.85,3.59-3.85C3.59-3.85,3.59-3.85,3.59-3.85z"/>
</g>
<g id="Group_10652" transform="translate(259.033 68.53)">
	<path id="Path_12557-4" class="st1" d="M-7.63-5.42H5.06c0.48,0,0.87,0.39,0.87,0.87v2.96c0,0.48-0.39,0.87-0.87,0.87H-7.63
		c-0.48,0-0.87-0.39-0.87-0.87v-2.96C-8.5-5.03-8.11-5.42-7.63-5.42z"/>
	<path id="Path_12558-4" class="st1" d="M3.59-3.85c0.2,0.01,0.36,0.18,0.35,0.38c-0.01,0.2-0.18,0.36-0.38,0.35
		C3.37-3.13,3.22-3.29,3.21-3.49C3.22-3.69,3.39-3.85,3.59-3.85C3.59-3.85,3.59-3.85,3.59-3.85z"/>
</g>
<g id="Group_10650" transform="translate(88.033 61.732)">
	<path id="Path_12557-5" class="st1" d="M-7.63-5.42H5.06c0.48,0,0.87,0.39,0.87,0.87v2.96c0,0.48-0.39,0.87-0.87,0.87H-7.63
		c-0.48,0-0.87-0.39-0.87-0.87v-2.96C-8.5-5.03-8.11-5.42-7.63-5.42z"/>
	<path id="Path_12558-5" class="st1" d="M3.59-3.85c0.2,0.01,0.36,0.18,0.35,0.38c-0.01,0.2-0.18,0.36-0.38,0.35
		C3.37-3.13,3.22-3.29,3.21-3.49C3.22-3.69,3.39-3.85,3.59-3.85C3.59-3.85,3.59-3.85,3.59-3.85z"/>
</g>
<g id="Group_10653" transform="translate(259.033 61.732)">
	<path id="Path_12557-6" class="st1" d="M-7.63-5.42H5.06c0.48,0,0.87,0.39,0.87,0.87v2.96c0,0.48-0.39,0.87-0.87,0.87H-7.63
		c-0.48,0-0.87-0.39-0.87-0.87v-2.96C-8.5-5.03-8.11-5.42-7.63-5.42z"/>
	<path id="Path_12558-6" class="st1" d="M3.59-3.85c0.2,0.01,0.36,0.18,0.35,0.38c-0.01,0.2-0.18,0.36-0.38,0.35
		C3.37-3.13,3.22-3.29,3.21-3.49C3.22-3.69,3.39-3.85,3.59-3.85C3.59-3.85,3.59-3.85,3.59-3.85z"/>
</g>
<path id="Path_12600" class="st2" d="M154.64,59.15c-1.03-0.01-1.88,0.82-1.89,1.85c0,0.01,0,0.03,0,0.04v1.26
	c-0.01,0.8,0.5,1.52,1.26,1.78v6.42c0,0.54,0.23,1.04,0.63,1.4v3.64c0,1.04,0.85,1.89,1.89,1.89h2.52c1.04,0,1.89-0.85,1.89-1.89
	V72.4h22.71v3.16c0,1.04,0.85,1.89,1.89,1.89h2.52c1.04,0,1.89-0.85,1.89-1.89V71.9c0.4-0.36,0.63-0.86,0.63-1.4v-6.42
	c0.76-0.26,1.27-0.98,1.26-1.78v-1.26c0.01-1.03-0.82-1.88-1.86-1.89c-0.01,0-0.02,0-0.04,0h-2.7l-1.46-4.38
	c-0.26-0.78-0.98-1.3-1.8-1.29H160.6c-0.82,0-1.54,0.52-1.8,1.29l-1.46,4.38H154.64z M155.01,62.94h-0.37
	c-0.34,0.01-0.62-0.26-0.63-0.6c0-0.01,0-0.02,0-0.03v-1.27c-0.01-0.34,0.26-0.62,0.6-0.63c0.01,0,0.02,0,0.03,0h2.28l-0.31,0.92
	L155.01,62.94z M155.27,65.01l6.31,1.58v1.55l-6.31-0.72V65.01z M159.69,75.55c0,0.35-0.28,0.63-0.63,0.63h-2.52
	c-0.35,0-0.63-0.28-0.63-0.63c0,0,0,0,0,0V72.4h3.79V75.55z M188.71,75.55c0,0.35-0.28,0.63-0.63,0.63h-2.52
	c-0.35,0-0.63-0.28-0.63-0.63V72.4h3.79L188.71,75.55z M189.34,67.38l-6.31,0.72v-1.55l6.31-1.58V67.38z M189.97,60.41
	c0.34-0.01,0.62,0.26,0.63,0.6c0,0.01,0,0.02,0,0.03v1.26c0.01,0.34-0.26,0.62-0.6,0.63c-0.01,0-0.02,0-0.03,0h-0.37l-1.6-1.6
	l-0.31-0.92L189.97,60.41z M187.76,62.87l0.95,0.95l-6.46,1.61c-0.28,0.07-0.48,0.32-0.48,0.61v2.75c0,0.35,0.28,0.63,0.63,0.63
	c0.02,0,0.05,0,0.07,0l6.87-0.78v1.86c0,0.35-0.28,0.63-0.63,0.63H155.9c-0.35,0-0.63-0.28-0.63-0.63v-1.82l6.87,0.78
	c0.35,0.04,0.66-0.21,0.7-0.56c0-0.02,0-0.05,0-0.07v-2.75c0-0.29-0.2-0.54-0.48-0.61l-6.48-1.62l0.98-0.98l7.88,1.95l15.29-0.02
	L187.76,62.87z M160,55.16c0.08-0.26,0.33-0.43,0.6-0.43h23.42c0.27,0,0.52,0.17,0.6,0.43l2.22,6.65l-6.95,1.75l-14.99,0.02
	l-7.1-1.78L160,55.16z"/>
<line id="Line_137" class="st3" x1="104.75" y1="64.31" x2="111" y2="64.31"/>
<line id="Line_147" class="st3" x1="86.75" y1="86.31" x2="86.75" y2="136.08"/>
<line id="Line_149" class="st3" x1="257.75" y1="86.31" x2="257.75" y2="136.08"/>
<line id="Line_148" class="st3" x1="86.75" y1="135.31" x2="97" y2="135.31"/>
<line id="Line_150" class="st3" x1="257.75" y1="135.31" x2="247.5" y2="135.31"/>
<line id="Line_146" class="st3" x1="198.75" y1="64.31" x2="205" y2="64.31"/>
<line id="Line_139" class="st3" x1="120.75" y1="64.31" x2="127" y2="64.31"/>
<line id="Line_144" class="st3" x1="214.75" y1="64.31" x2="221" y2="64.31"/>
<line id="Line_141" class="st3" x1="136.75" y1="64.31" x2="143" y2="64.31"/>
<line id="Line_142" class="st3" x1="230.75" y1="64.31" x2="237" y2="64.31"/>
<g id="Rectangle_17705" transform="translate(81 55)">
	<path class="st4" d="M-2.5-5.42h16c3.31,0,6,2.69,6,6v21c0,3.31-2.69,6-6,6h-16c-3.31,0-6-2.69-6-6v-21
		C-8.5-2.74-5.81-5.42-2.5-5.42z"/>
	<path class="st3" d="M-2.5-4.92h16c3.04,0,5.5,2.46,5.5,5.5v21c0,3.04-2.46,5.5-5.5,5.5h-16c-3.04,0-5.5-2.46-5.5-5.5v-21
		C-8-2.46-5.54-4.92-2.5-4.92z"/>
</g>
<g id="Rectangle_17706" transform="translate(252 55)">
	<path class="st4" d="M-2.5-5.42h16c3.31,0,6,2.69,6,6v21c0,3.31-2.69,6-6,6h-16c-3.31,0-6-2.69-6-6v-21
		C-8.5-2.74-5.81-5.42-2.5-5.42z"/>
	<path class="st3" d="M-2.5-4.92h16c3.04,0,5.5,2.46,5.5,5.5v21c0,3.04-2.46,5.5-5.5,5.5h-16c-3.04,0-5.5-2.46-5.5-5.5v-21
		C-8-2.46-5.54-4.92-2.5-4.92z"/>
</g>
<g id="Group_10660" transform="translate(59.59 124.612)">
	<path id="Path_12560" class="st0" d="M68.2-11.97H51.32c-1.1,0-2,0.9-2,2v21.05c0,1.1,0.9,2,2,2H68.2c1.1,0,2-0.9,2-2V-9.97
		C70.2-11.07,69.3-11.97,68.2-11.97z M68.2,11.08H51.32V-9.97H68.2V11.08z M75.26,20.14V3.52h1.22c1.32,0,2.12,0.15,2.12,2.3v6
		c0,2.05,1.66,3.71,3.71,3.71c2.05,0,3.71-1.66,3.71-3.71V-1.22h3.03c0.55,0,1-0.45,1-1v-5c0-0.55-0.45-1-1-1h-1.03v-2.1
		c0-0.55-0.45-1-1-1s-1,0.45-1,1v2.1h-2v-2.1c0-0.55-0.45-1-1-1s-1,0.45-1,1v2.1h-0.97c-0.55,0-1,0.45-1,1v5c0,0.55,0.45,1,1,1h2.96
		v13.04c0,0.95-0.77,1.71-1.71,1.71c-0.95,0-1.71-0.77-1.71-1.71v-6c0-4.3-3.1-4.3-4.12-4.3h-1.22v-14.63c0-2.21-1.79-4-4-4H48.13
		c-2.21,0-4,1.79-4,4v33.25h-3.22v8.75h49.18v-8.75H75.26z M82.06-3.22v-3h6v3H82.06z M46.13-13.11c0-1.1,0.9-2,2-2h23.12
		c1.1,0,2,0.9,2,2v33.25H46.13V-13.11z M88.09,26.89H42.91v-4.75h45.18V26.89z M55.42,1.14c-0.19-0.32-0.17-0.72,0.05-1.01
		l5.78-7.63c0.3-0.4,0.86-0.47,1.26-0.18c0,0,0,0,0,0c0.4,0.3,0.47,0.86,0.18,1.26c0,0,0,0,0,0l-4.39,5.79l5.23-0.94
		c0.49-0.09,0.96,0.24,1.04,0.73c0.04,0.25-0.02,0.5-0.17,0.7l-6.78,8.96c-0.28,0.39-0.83,0.48-1.23,0.2
		C56.38,9.01,56.37,9,56.36,8.99c-0.4-0.3-0.47-0.86-0.17-1.26c0,0,0,0,0,0l5.39-7.12l-5.23,0.95C55.98,1.62,55.61,1.45,55.42,1.14z
		"/>
</g>
</svg>
