<?xml version="1.0" encoding="utf-8"?>
<!-- Generator: Adobe Illustrator 25.4.1, SVG Export Plug-In . SVG Version: 6.00 Build 0)  -->
<svg version="1.1" id="Calque_1" xmlns="http://www.w3.org/2000/svg" xmlns:xlink="http://www.w3.org/1999/xlink" x="0px" y="0px"
	 viewBox="0 0 335 203" style="enable-background:new 0 0 335 203;" xml:space="preserve">
<style type="text/css">
	.st0{fill:#414141;}
	.st1{fill:#4260A9;}
	.st2{fill:#4260A9;stroke:#4260A9;stroke-miterlimit:10;}
</style>
<g id="Group_10662" transform="translate(-699.75 -183.416)">
	<path id="Path_12513" class="st0" d="M922.63,270.94c4.06-9.05,0.99-19.7-7.25-25.22c-0.43-0.31-1.04-0.21-1.35,0.23
		s-0.21,1.04,0.23,1.35c0.02,0.01,0.04,0.03,0.06,0.04c8.42,5.57,10.73,16.9,5.17,25.32c-3.87,5.85-10.74,8.97-17.69,8.03
		c-0.51-0.09-0.99,0.26-1.08,0.77c0,0.02-0.01,0.04-0.01,0.06c-0.07,0.53,0.3,1.01,0.82,1.08c0,0,0,0,0,0
		C910.36,283.76,918.91,279.03,922.63,270.94z"/>
	<path id="Path_12514" class="st0" d="M893.03,279.4c0.45,0.28,1.05,0.15,1.33-0.3c0.28-0.44,0.16-1.01-0.27-1.31
		c-8.42-5.57-10.73-16.91-5.16-25.33c3.87-5.85,10.74-8.97,17.69-8.03c0.51,0.09,0.99-0.26,1.08-0.77c0-0.02,0.01-0.04,0.01-0.05
		c0.07-0.53-0.3-1.01-0.82-1.08c0,0,0,0,0,0c-11.05-1.5-21.24,6.24-22.74,17.29C883.09,267.51,886.55,275.13,893.03,279.4z"/>
	<path id="Path_12515" class="st1" d="M833.37,248.01l-13.94,16.72c-0.24,0.3-0.2,0.74,0.1,0.98c0.12,0.1,0.28,0.16,0.44,0.16h5.96
		l-3.83,10.2c-0.13,0.37,0.07,0.76,0.43,0.89c0.27,0.09,0.57,0.01,0.75-0.2l13.94-16.72c0.24-0.3,0.2-0.74-0.1-0.98
		c-0.12-0.1-0.28-0.16-0.44-0.16h-5.96l3.83-10.2c0.13-0.37-0.07-0.76-0.43-0.89C833.85,247.72,833.56,247.8,833.37,248.01z
		 M829.07,259.36c-0.13,0.36,0.05,0.77,0.42,0.9c0.08,0.03,0.16,0.04,0.24,0.04h5.48l-10.35,12.42l2.74-7.3
		c0.13-0.36-0.05-0.77-0.42-0.9c-0.08-0.03-0.16-0.04-0.24-0.04h-5.48l10.35-12.42L829.07,259.36z"/>
	<path id="Path_12516" class="st0" d="M851.18,305.93h2.02c0.53,2.61,3.08,4.29,5.69,3.76c1.89-0.39,3.37-1.86,3.76-3.76h9.83
		c0.53,2.61,3.08,4.29,5.69,3.76c1.89-0.39,3.37-1.86,3.76-3.76h2.03c1.06,0,1.93-0.86,1.93-1.93v-5.78c0-1.06-0.86-1.93-1.93-1.93
		h-6.15l-3.05-6.11c-0.49-0.98-1.49-1.6-2.59-1.6h-13.04c-1.1,0-2.1,0.62-2.59,1.6l-3.05,6.11h-2.3c-1.06,0-1.93,0.86-1.93,1.93V304
		C849.25,305.07,850.11,305.93,851.18,305.93z M857.92,307.86c-1.6,0-2.89-1.3-2.89-2.89c0-1.6,1.3-2.89,2.89-2.89
		c1.6,0,2.89,1.29,2.89,2.89C860.81,306.56,859.52,307.85,857.92,307.86L857.92,307.86z M877.2,307.86c-1.6,0-2.89-1.3-2.89-2.89
		c0-1.6,1.3-2.89,2.89-2.89c1.6,0,2.89,1.29,2.89,2.89C880.09,306.56,878.8,307.85,877.2,307.86L877.2,307.86z M858.25,291.05
		c0.16-0.33,0.5-0.53,0.86-0.53h13.04c0.36,0,0.7,0.21,0.86,0.53l2.62,5.25h-20.02L858.25,291.05z M851.18,298.22h32.78V304h-2.02
		c-0.53-2.61-3.08-4.29-5.69-3.76c-1.89,0.39-3.37,1.86-3.76,3.76h-9.83c-0.53-2.61-3.08-4.29-5.69-3.76
		c-1.89,0.39-3.37,1.86-3.76,3.76h-2.02L851.18,298.22z"/>
	<path id="Path_12518" class="st0" d="M891.66,301.11c0,0.53,0.43,0.96,0.96,0.96h5.78c3.72,0,6.74-3.02,6.75-6.74v-9.64
		c0-0.53-0.44-0.96-0.97-0.96c-0.53,0-0.96,0.43-0.96,0.96v9.64c0,2.66-2.16,4.82-4.82,4.82h-5.78
		C892.09,300.15,891.66,300.58,891.66,301.11z"/>
	<path id="Path_12519" class="st0" d="M854.07,321.34h26.99c4.79,0,8.67-3.88,8.68-8.67v-26.98c-0.01-4.79-3.89-8.67-8.68-8.67
		h-26.99c-4.79,0.01-8.67,3.88-8.68,8.67v26.98C845.4,317.46,849.28,321.34,854.07,321.34z M847.32,285.69
		c0-3.72,3.02-6.74,6.75-6.74h26.99c3.72,0,6.74,3.02,6.75,6.74v26.98c-0.01,3.72-3.02,6.74-6.75,6.74h-26.99
		c-3.72,0-6.74-3.02-6.75-6.74V285.69z"/>
	<path id="Path_12526" class="st0" d="M810.62,270.94c-4.06-9.05-0.99-19.7,7.25-25.22c0.43-0.31,1.04-0.21,1.35,0.23
		s0.21,1.04-0.23,1.35c-0.02,0.01-0.04,0.03-0.06,0.04c-8.42,5.57-10.73,16.9-5.17,25.32c3.87,5.85,10.74,8.97,17.69,8.03
		c0.51-0.09,0.99,0.26,1.08,0.77c0,0.02,0.01,0.04,0.01,0.06c0.07,0.53-0.3,1.01-0.82,1.08c0,0,0,0,0,0
		C822.88,283.76,814.33,279.03,810.62,270.94z"/>
	<path id="Path_12527" class="st0" d="M840.22,279.4c-0.45,0.28-1.05,0.15-1.33-0.3c-0.28-0.44-0.16-1.01,0.27-1.31
		c8.42-5.57,10.73-16.91,5.16-25.33c-3.87-5.85-10.74-8.97-17.69-8.03c-0.51,0.09-0.99-0.26-1.08-0.77c0-0.02-0.01-0.04-0.01-0.06
		c-0.07-0.53,0.3-1.01,0.82-1.08c0,0,0,0,0,0c11.05-1.5,21.24,6.24,22.74,17.29C850.15,267.51,846.7,275.13,840.22,279.4
		L840.22,279.4z"/>
	<path id="Path_12528" class="st0" d="M841.58,301.11c0,0.53-0.43,0.96-0.96,0.96h-5.78c-3.72,0-6.74-3.02-6.75-6.74v-9.64
		c0-0.53,0.44-0.96,0.97-0.96c0.53,0,0.96,0.43,0.96,0.96v9.64c0,2.66,2.16,4.82,4.82,4.82h5.78
		C841.15,300.14,841.58,300.57,841.58,301.11C841.58,301.11,841.58,301.11,841.58,301.11z"/>
	<path id="Path_12529" class="st1" d="M904.46,276.18c-0.24,0-0.48-0.01-0.72-0.02c-3.26-0.23-6.16-2.12-7.68-5.01
		c-1.64-3.02-1.6-6.67,0.1-9.65l7.62-13.38c0.25-0.38,0.76-0.48,1.13-0.23c0.09,0.06,0.17,0.14,0.23,0.23l7.62,13.38
		c1.7,2.98,1.74,6.63,0.1,9.65c-1.52,2.89-4.43,4.78-7.68,5.01C904.95,276.17,904.7,276.18,904.46,276.18z M904.46,250.1
		l-6.94,12.18c-1.43,2.51-1.47,5.59-0.09,8.13c1.25,2.42,3.68,4.01,6.41,4.19c0.41,0.03,0.82,0.03,1.23,0
		c2.72-0.17,5.16-1.76,6.41-4.19c1.38-2.54,1.35-5.62-0.09-8.13L904.46,250.1z"/>
	<path id="Path_12530" class="st2" d="M902.29,268.91c-0.94-0.06-1.78-0.6-2.22-1.44c-0.47-0.86-0.46-1.91,0.03-2.76
		c0.09-0.15,0.28-0.2,0.42-0.12c0.15,0.09,0.2,0.28,0.12,0.42c-0.38,0.67-0.39,1.48-0.02,2.16c0.33,0.64,0.98,1.07,1.7,1.11
		c0.17,0.01,0.31,0.15,0.3,0.32C902.61,268.78,902.46,268.92,902.29,268.91L902.29,268.91z"/>
</g>
</svg>
