<svg xmlns="http://www.w3.org/2000/svg" xmlns:xlink="http://www.w3.org/1999/xlink" width="512" height="75" viewBox="0 0 128 36">
    <defs>
        <path id="a" d="M.152.257h38.342v24.067H.152z"/>
        <path id="c" d="M0 .185h23.746v35.49H0z"/>
        <path id="e" d="M.216.257H49.34v24.067H.216z"/>
        <path id="g" d="M.227.257h23.746v24.067H.227z"/>
    </defs>
    <g fill="none" fill-rule="evenodd">
        <g transform="translate(24.96 11.49)">
            <mask id="b" fill="#fff">
                <use xlink:href="#a"/>
            </mask>
            <path fill="#E20728" d="M12.025 5.654c3.336 0 5.603 2.418 6.26 4.689H5.766c.853-2.72 3.292-4.689 6.26-4.689m26.469 13.51c0-2.832-2.265-5.127-5.059-5.127-2.694 0-4.89 2.136-5.044 4.828h-15.78c-3.263 0-5.436-1.458-6.607-3.958H21.14c1.523 0 2.758-1.241 2.758-2.785 0-6.02-4.943-11.865-11.874-11.865C5.48.257.152 5.655.152 12.291c0 5.982 4.477 12.033 12.46 12.033h20.823c2.64 0 5.059-2.233 5.059-5.16" mask="url(#b)"/>
        </g>
        <g transform="translate(0 .14)">
            <mask id="d" fill="#fff">
                <use xlink:href="#c"/>
            </mask>
            <path fill="#E20728" d="M11.873 30.279c-3.61 0-6.548-2.977-6.548-6.637 0-3.66 2.937-6.637 6.548-6.637s6.548 2.977 6.548 6.637c0 3.66-2.937 6.637-6.548 6.637m0-18.67c-2.34 0-4.517.698-6.358 1.887V2.98c0-1.544-1.234-2.795-2.757-2.795C1.235.185 0 1.436 0 2.98v20.662c0 6.635 5.327 12.034 11.873 12.034 6.547 0 11.873-5.399 11.873-12.034 0-6.635-5.326-12.033-11.873-12.033" mask="url(#d)"/>
        </g>
        <g transform="translate(53.12 11.49)">
            <mask id="f" fill="#fff">
                <use xlink:href="#e"/>
            </mask>
            <path fill="#F59100" d="M39.786.257c-2.657 0-5.062 1.108-6.796 2.888-1.733-1.78-4.139-2.888-6.796-2.888-2.658 0-5.063 1.108-6.796 2.888C17.664 1.365 15.258.257 12.6.257H5.275C2.44.257.216 2.6.216 5.38c0 2.832 2.265 5.127 5.059 5.127 2.638 0 4.803-2.048 5.036-4.66h2.29c2.227 0 4.038 1.836 4.038 4.093v11.59c0 1.543 1.235 2.794 2.759 2.794 1.522 0 2.757-1.251 2.757-2.795V9.94c0-2.257 1.812-4.093 4.039-4.093 2.227 0 4.038 1.836 4.038 4.093v11.59c0 1.543 1.235 2.794 2.758 2.794s2.758-1.251 2.758-2.795V9.94c0-2.257 1.811-4.093 4.038-4.093 2.227 0 4.04 1.836 4.04 4.093v11.59c0 1.543 1.234 2.794 2.757 2.794 1.523 0 2.757-1.251 2.757-2.795V9.94c0-5.339-4.285-9.683-9.554-9.683" mask="url(#f)"/>
        </g>
        <g transform="translate(104 11.49)">
            <mask id="h" fill="#fff">
                <use xlink:href="#g"/>
            </mask>
            <path fill="#F59100" d="M12.1 18.928c-3.611 0-6.549-2.978-6.549-6.637 0-3.66 2.938-6.637 6.549-6.637 3.61 0 6.548 2.977 6.548 6.637 0 3.66-2.938 6.637-6.548 6.637m0-18.67C5.553.257.227 5.655.227 12.29S5.553 24.325 12.1 24.325c6.546 0 11.873-5.4 11.873-12.034C23.973 5.656 18.646.257 12.1.257" mask="url(#h)"/>
        </g>
    </g>
</svg>