<?xml version="1.0" encoding="UTF-8"?>
<!DOCTYPE svg PUBLIC "-//W3C//DTD SVG 1.1//EN" "http://www.w3.org/Graphics/SVG/1.1/DTD/svg11.dtd">
<!-- Creator: CorelDRAW X7 -->
<svg xmlns="http://www.w3.org/2000/svg" xml:space="preserve" width="24px" height="120px" version="1.1" style="shape-rendering:geometricPrecision; text-rendering:geometricPrecision; image-rendering:optimizeQuality; fill-rule:evenodd; clip-rule:evenodd"
viewBox="0 0 33 173"
 xmlns:xlink="http://www.w3.org/1999/xlink">
 <defs>
  <style type="text/css">
   <![CDATA[
    .fil0 {fill:#373435;fill-rule:nonzero}
   ]]>
  </style>
 </defs>
 <g id="Layer_x0020_1">
  <metadata id="CorelCorpID_0Corel-Layer"/>
  <g>
   <path class="fil0" d="M22 151l2 1 -1 3 -2 6 -2 6 -2 6 -3 -1 3 -6 2 -6 2 -5 1 -4zm8 -32l2 1 0 3 -1 5 -1 5 -2 6 0 2 -3 0 1 -3 1 -5 1 -6 1 -5 1 -3zm1 -33l2 0 0 1 0 5 0 5 0 5 0 5 0 2 -2 -1 0 -1 0 -5 0 -5 0 -5 0 -5 0 -1zm-6 -32l2 0 1 4 1 4 1 5 1 5 1 3 -3 1 0 -4 -1 -4 -1 -5 -1 -5 -1 -4zm-13 -30l2 -1 2 3 2 4 2 5 2 4 1 4 -2 1 -1 -4 -2 -4 -2 -5 -2 -4 -2 -3zm-5 -10l2 -1 0 0 -2 1 0 0zm-7 -14l27 20 -1 0 -1 0 -1 0 0 1 -1 0 -1 0 -1 0 -1 0 -1 1 0 0 -1 0 -1 1 -1 0 -1 0 0 1 -1 0 -1 0 0 1 -1 0 -1 1 0 0 -1 1 -1 0 0 1 -1 1 -1 0 0 1 -1 1 0 0 -1 1 0 1 -1 1 0 0 -4 -34z"/>
  </g>
 </g>
</svg>
