<?xml version="1.0" encoding="UTF-8"?>
<!DOCTYPE svg PUBLIC "-//W3C//DTD SVG 1.1//EN" "http://www.w3.org/Graphics/SVG/1.1/DTD/svg11.dtd">
<!-- Creator: CorelDRAW X7 -->
<svg xmlns="http://www.w3.org/2000/svg" xml:space="preserve" width="200px" height="228px" version="1.1" style="shape-rendering:geometricPrecision; text-rendering:geometricPrecision; image-rendering:optimizeQuality; fill-rule:evenodd; clip-rule:evenodd"
viewBox="0 0 2693 3074"
 xmlns:xlink="http://www.w3.org/1999/xlink">
 <defs>
  <style type="text/css">
   <![CDATA[
    .fil1 {fill:#373435}
    .fil0 {fill:#373435;fill-rule:nonzero}
    .fnt0 {font-weight:normal;font-size:718.886px;font-family:'Segoe Script'}
   ]]>
  </style>
 </defs>
 <g id="Layer_x0020_1">
  <metadata id="CorelCorpID_0Corel-Layer"/>
  <g id="_609668912">
   <g>
    <path class="fil0" d="M942 2665l40 6 -8 67 -18 110 -20 112 -25 114 -40 -9 25 -113 20 -111 17 -109 9 -67zm21 -607l41 -2 3 56 2 100 0 102 -4 103 -3 50 -41 -4 3 -48 4 -102 1 -100 -3 -99 -3 -56zm-99 -598l40 -11 1 6 23 89 21 91 17 92 15 94 4 31 -41 4 -4 -29 -14 -93 -17 -91 -20 -89 -23 -89 -2 -5zm-224 -564l36 -18 36 70 38 81 36 82 34 84 21 59 -38 13 -21 -57 -33 -83 -36 -81 -38 -80 -35 -70zm-333 -508l32 -24 40 51 54 72 52 74 50 75 39 64 -34 21 -40 -63 -49 -74 -51 -73 -53 -72 -40 -51zm-131 -157l30 -27 2 2 -31 26 -1 -1zm-176 -231l565 269 -16 5 -16 5 -16 5 -16 6 -15 6 -15 6 -15 7 -14 7 -14 8 -13 7 -14 9 -13 8 -12 9 -13 9 -12 10 -12 10 -11 10 -11 11 -11 11 -10 12 -11 11 -9 13 -10 12 -9 13 -9 13 -9 14 -8 14 -8 14 -7 15 -8 15 -7 15 -6 16 0 0 -195 -595z"/>
   </g>
   <g transform="matrix(1 -2.04204E-006 2.04204E-006 1 10907.3 -21184.5)">
    <text x="-10000" y="22222"  class="fil1 fnt0">Drag</text>
   </g>
  </g>
 </g>
</svg>
