<svg width="16" height="15" viewBox="0 0 16 15" fill="none" xmlns="http://www.w3.org/2000/svg">
<path d="M16 13.0001H7C6.92877 13.2935 6.79202 13.567 6.6 13.8001C6.48924 14.0407 6.31672 14.2478 6.1 14.4001L5.4 14.9001H3.6L2.9 14.4001C2.68328 14.2478 2.51076 14.0407 2.4 13.8001C2.20798 13.567 2.07123 13.2935 2 13.0001H0V12.0001H2C2.07123 11.7067 2.20798 11.4331 2.4 11.2001C2.51076 10.9595 2.68328 10.7524 2.9 10.6001L3.6 10.1001H5.4L6.1 10.6001C6.31672 10.7524 6.48924 10.9595 6.6 11.2001C6.79202 11.4331 6.92877 11.7067 7 12.0001H16V13.0001ZM5.1 14.0001L5.6 13.7001L5.9 13.2001C5.98031 13.0108 6.01458 12.8052 6 12.6001C6.01458 12.395 5.98031 12.1894 5.9 12.0001L5.6 11.5001L5.1 11.2001H3.9L3.4 11.5001L3.1 12.0001C3.01969 12.1894 2.98542 12.395 3 12.6001C2.98542 12.8052 3.01969 13.0108 3.1 13.2001L3.4 13.7001L3.9 14.0001H5.1Z" fill="#0078D4"/>
<path d="M16 3.0001H7C6.92877 3.29354 6.79202 3.56705 6.6 3.8001C6.48924 4.04074 6.31672 4.24776 6.1 4.4001L5.4 4.9001H3.6L2.9 4.4001C2.68328 4.24776 2.51076 4.04074 2.4 3.8001C2.20798 3.56705 2.07123 3.29354 2 3.0001H0V2.0001H2C2.07123 1.70665 2.20798 1.43315 2.4 1.2001C2.51076 0.959455 2.68328 0.752437 2.9 0.600098L3.6 0.100098H5.4L6.1 0.600098C6.31672 0.752437 6.48924 0.959455 6.6 1.2001C6.79202 1.43315 6.92877 1.70665 7 2.0001H16V3.0001ZM4.5 4.0001H5.1L5.6 3.7001L5.9 3.2001C5.99737 2.98049 6.03198 2.73819 6 2.5001C6.01458 2.295 5.98031 2.08938 5.9 1.9001L5.6 1.4001L5.1 1.1001H3.9L3.4 1.4001L3.1 1.9001C3.01969 2.08938 2.98542 2.295 3 2.5001C2.98542 2.70519 3.01969 2.91082 3.1 3.1001L3.4 3.6001L3.9 3.9001L4.5 4.0001Z" fill="#0078D4"/>
<path d="M0 7.0001H9C9.07123 6.70665 9.20798 6.43315 9.4 6.2001C9.51076 5.95946 9.68328 5.75244 9.9 5.6001L10.6 5.1001H12.4L13.1 5.6001C13.3167 5.75244 13.4892 5.95946 13.6 6.2001C13.792 6.43315 13.9288 6.70665 14 7.0001H16V8.0001H14C13.9288 8.29354 13.792 8.56705 13.6 8.8001C13.4892 9.04074 13.3167 9.24776 13.1 9.4001L12.4 9.9001H10.6L9.9 9.4001C9.68328 9.24776 9.51076 9.04074 9.4 8.8001C9.20798 8.56705 9.07123 8.29354 9 8.0001H0V7.0001ZM12.1 8.9001L12.6 8.6001L12.9 8.1001C12.9803 7.91082 13.0146 7.70519 13 7.5001C13.0146 7.295 12.9803 7.08938 12.9 6.9001L12.6 6.4001L12.1 6.1001H10.9L10.4 6.4001L10.1 6.9001C10.0197 7.08938 9.98542 7.295 10 7.5001C9.98542 7.70519 10.0197 7.91082 10.1 8.1001L10.4 8.6001L10.9 8.9001H12.1Z" fill="#0078D4"/>
</svg>
