<svg width="32" height="19" viewBox="0 0 34 21" fill="none" xmlns="http://www.w3.org/2000/svg">
<ellipse cx="27.6396" cy="6.35777" rx="2.08343" ry="2.08358" fill="#676D73"/>
<path d="M1.38999 4C1.38999 3.77909 1.2109 3.6 0.98999 3.6C0.769076 3.6 0.58999 3.77909 0.58999 4H1.38999ZM29.99 20.4C30.2109 20.4 30.39 20.2209 30.39 20C30.39 19.7791 30.2109 19.6 29.99 19.6V20.4ZM12.604 8.10553L12.8967 7.83287L12.8967 7.83287L12.604 8.10553ZM9.6758 8.10716L9.96877 8.3795L9.96877 8.3795L9.6758 8.10716ZM22.2265 12.7175L22.4902 13.0182L22.2265 12.7175ZM25.0019 12.8512L24.7105 13.1252L24.7105 13.1252L25.0019 12.8512ZM6.01018 1.4H31.0102V0.6H6.01018V1.4ZM32.6102 3V15H33.4102V3H32.6102ZM31.0102 16.6H6.01018V17.4H31.0102V16.6ZM4.41018 15V3H3.61018V15H4.41018ZM6.01018 16.6C5.12652 16.6 4.41018 15.8837 4.41018 15H3.61018C3.61018 16.3255 4.6847 17.4 6.01018 17.4V16.6ZM32.6102 15C32.6102 15.8837 31.8938 16.6 31.0102 16.6V17.4C32.3357 17.4 33.4102 16.3255 33.4102 15H32.6102ZM31.0102 1.4C31.8938 1.4 32.6102 2.11634 32.6102 3H33.4102C33.4102 1.67452 32.3357 0.6 31.0102 0.6V1.4ZM6.01018 0.6C4.6847 0.6 3.61018 1.67452 3.61018 3H4.41018C4.41018 2.11634 5.12652 1.4 6.01018 1.4V0.6ZM0.58999 4V18H1.38999V4H0.58999ZM2.98999 20.4H29.99V19.6H2.98999V20.4ZM0.58999 18C0.58999 19.3255 1.66451 20.4 2.98999 20.4V19.6C2.10634 19.6 1.38999 18.8837 1.38999 18H0.58999ZM21.1743 16.7179L12.8967 7.83287L12.3113 8.37819L20.589 17.2632L21.1743 16.7179ZM12.8967 7.83287C11.9469 6.81339 10.3315 6.81429 9.38283 7.83483L9.96877 8.3795C10.6012 7.69914 11.6782 7.69854 12.3113 8.37819L12.8967 7.83287ZM21.9628 12.4167L19.2182 14.8229L19.7455 15.4244L22.4902 13.0182L21.9628 12.4167ZM29.195 16.726L25.2932 12.5772L24.7105 13.1252L28.6122 17.274L29.195 16.726ZM22.4902 13.0182C23.1383 12.4501 24.12 12.4974 24.7105 13.1252L25.2932 12.5772C24.4075 11.6354 22.935 11.5644 21.9628 12.4167L22.4902 13.0182ZM9.38283 7.83483L3.80053 13.8401L4.38648 14.3848L9.96877 8.3795L9.38283 7.83483Z" fill="#676D73"/>
</svg>
