<svg width="16" height="16" viewBox="0 0 16 16" fill="none" xmlns="http://www.w3.org/2000/svg">
<path d="M5.0625 9.4333C4.82812 9.4333 4.61458 9.48004 4.42188 9.57351C4.22917 9.66699 4.04167 9.77085 3.85938 9.8851C3.67708 9.99935 3.48438 10.1032 3.28125 10.1967C3.07812 10.2902 2.85938 10.3369 2.625 10.3369C2.30208 10.3369 1.99479 10.259 1.70312 10.1032C1.41146 9.94742 1.14844 9.76826 0.914062 9.56573C0.596354 9.29049 0.364583 8.97631 0.21875 8.62317C0.0729167 8.27004 0 7.88315 0 7.46251C0 7.04706 0.0572917 6.63421 0.171875 6.22395C0.286458 5.8137 0.427083 5.41902 0.59375 5.03992C0.776042 4.63486 0.986979 4.24278 1.22656 3.86368C1.46615 3.48458 1.72656 3.12366 2.00781 2.78092C2.26302 2.46933 2.53385 2.17592 2.82031 1.90068C3.10677 1.62545 3.42188 1.37618 3.76562 1.15287C4.35417 0.778968 4.97917 0.493346 5.64062 0.296008C6.30208 0.0986693 6.98438 0 7.6875 0C8.34896 0 9 0.0856865 9.64062 0.257059C10.2812 0.428432 10.8932 0.669912 11.4766 0.9815C12.1901 1.37098 12.8255 1.82538 13.3828 2.34469C13.9401 2.86401 14.4141 3.44044 14.8047 4.074C15.1953 4.70756 15.4922 5.39046 15.6953 6.12269C15.8984 6.85492 16 7.63129 16 8.4518C16 8.95034 15.9635 9.44369 15.8906 9.93184C15.8177 10.42 15.7057 10.9056 15.5547 11.3885C15.4401 11.7572 15.2969 12.1259 15.125 12.4946C14.9531 12.8634 14.7474 13.2191 14.5078 13.5618C14.2682 13.9046 14.0078 14.224 13.7266 14.52C13.4453 14.816 13.1354 15.0756 12.7969 15.2989C12.4583 15.5222 12.099 15.6936 11.7188 15.813C11.3385 15.9325 10.9349 15.9948 10.5078 16C10.2734 16 10.0443 15.9792 9.82031 15.9377C9.59635 15.8961 9.3724 15.8364 9.14844 15.7585C8.6901 15.5975 8.29688 15.3976 7.96875 15.1587C7.64062 14.9198 7.36979 14.642 7.15625 14.3252C6.94271 14.0084 6.77865 13.6527 6.66406 13.258C6.54948 12.8634 6.47656 12.4297 6.44531 11.9572C6.42448 11.6715 6.41146 11.3859 6.40625 11.1003C6.40104 10.8147 6.36198 10.5316 6.28906 10.2512C6.26823 10.1733 6.24479 10.0902 6.21875 10.0019C6.19271 9.91366 6.15104 9.84096 6.09375 9.78384C6.03646 9.72152 5.96615 9.66699 5.88281 9.62025C5.79948 9.57351 5.71094 9.53716 5.61719 9.5112C5.52344 9.48523 5.42969 9.46706 5.33594 9.45667C5.24219 9.44628 5.15104 9.43849 5.0625 9.4333ZM10.5078 15.0029C10.8984 15.0029 11.2708 14.9302 11.625 14.7848C11.9792 14.6394 12.3073 14.4421 12.6094 14.1928C13.0208 13.8604 13.3776 13.4684 13.6797 13.0166C13.9818 12.5648 14.2318 12.0844 14.4297 11.5755C14.6276 11.0665 14.7734 10.5394 14.8672 9.99416C14.9609 9.44888 15.0078 8.91918 15.0078 8.40506C15.0078 7.68322 14.9193 7.00032 14.7422 6.35638C14.5651 5.71243 14.3021 5.11522 13.9531 4.56475C13.6042 4.01428 13.1849 3.51055 12.6953 3.05355C12.2057 2.59656 11.6432 2.19929 11.0078 1.86173C10.5026 1.5865 9.96875 1.37098 9.40625 1.21519C8.84375 1.0594 8.27083 0.9815 7.6875 0.9815C6.96875 0.9815 6.29688 1.09575 5.67188 1.32425C5.04688 1.55274 4.47135 1.86693 3.94531 2.2668C3.41927 2.66667 2.95312 3.13924 2.54688 3.68452C2.14062 4.2298 1.79427 4.81662 1.50781 5.44499C1.36198 5.76177 1.24219 6.08893 1.14844 6.42649C1.05469 6.76404 1.00521 7.10938 1 7.46251C1 7.73255 1.04167 7.97663 1.125 8.19474C1.20833 8.41285 1.35156 8.61539 1.55469 8.80234C1.61198 8.85427 1.68229 8.91139 1.76562 8.97371C1.84896 9.03603 1.9401 9.09315 2.03906 9.14508C2.13802 9.19701 2.23177 9.24375 2.32031 9.2853C2.40885 9.32684 2.49479 9.34761 2.57812 9.34761C2.72396 9.34761 2.88021 9.30088 3.04688 9.2074C3.21354 9.11392 3.39583 9.01006 3.59375 8.89581C3.79167 8.78156 4.01302 8.6777 4.25781 8.58423C4.5026 8.49075 4.77083 8.44142 5.0625 8.43622C5.22396 8.43622 5.38542 8.44921 5.54688 8.47517C5.70833 8.50114 5.86458 8.54008 6.01562 8.59202C6.35417 8.70107 6.61458 8.85686 6.79688 9.0594C6.97917 9.26193 7.11198 9.49302 7.19531 9.75268C7.27865 10.0123 7.33333 10.298 7.35938 10.6095C7.38542 10.9211 7.40365 11.2379 7.41406 11.5599C7.42448 11.8819 7.45833 12.2038 7.51562 12.5258C7.57292 12.8478 7.66927 13.1516 7.80469 13.4372C7.9401 13.7228 8.14323 13.9877 8.41406 14.2317C8.6849 14.4758 9.04167 14.6732 9.48438 14.8238C9.81771 14.9432 10.1589 15.0029 10.5078 15.0029ZM7 3.73126C7 3.52353 7.07292 3.34697 7.21875 3.20156C7.36458 3.05615 7.54167 2.98345 7.75 2.98345C7.95833 2.98345 8.13542 3.05615 8.28125 3.20156C8.42708 3.34697 8.5 3.52353 8.5 3.73126C8.5 3.93898 8.42708 4.11555 8.28125 4.26095C8.13542 4.40636 7.95833 4.47907 7.75 4.47907C7.54167 4.47907 7.36458 4.40636 7.21875 4.26095C7.07292 4.11555 7 3.93898 7 3.73126ZM10 4.72833C10 4.52061 10.0729 4.34404 10.2188 4.19864C10.3646 4.05323 10.5417 3.98053 10.75 3.98053C10.9583 3.98053 11.1354 4.05323 11.2812 4.19864C11.4271 4.34404 11.5 4.52061 11.5 4.72833C11.5 4.93606 11.4271 5.11263 11.2812 5.25803C11.1354 5.40344 10.9583 5.47614 10.75 5.47614C10.5417 5.47614 10.3646 5.40344 10.2188 5.25803C10.0729 5.11263 10 4.93606 10 4.72833ZM11.75 6.97176C11.75 6.76404 11.8229 6.58747 11.9688 6.44206C12.1146 6.29666 12.2917 6.22395 12.5 6.22395C12.7083 6.22395 12.8854 6.29666 13.0312 6.44206C13.1771 6.58747 13.25 6.76404 13.25 6.97176C13.25 7.17949 13.1771 7.35605 13.0312 7.50146C12.8854 7.64687 12.7083 7.71957 12.5 7.71957C12.2917 7.71957 12.1146 7.64687 11.9688 7.50146C11.8229 7.35605 11.75 7.17949 11.75 6.97176ZM11.75 9.963C11.75 9.75527 11.8229 9.57871 11.9688 9.4333C12.1146 9.28789 12.2917 9.21519 12.5 9.21519C12.7083 9.21519 12.8854 9.28789 13.0312 9.4333C13.1771 9.57871 13.25 9.75527 13.25 9.963C13.25 10.1707 13.1771 10.3473 13.0312 10.4927C12.8854 10.6381 12.7083 10.7108 12.5 10.7108C12.2917 10.7108 12.1146 10.6381 11.9688 10.4927C11.8229 10.3473 11.75 10.1707 11.75 9.963ZM9.75 11.9572C9.75 11.7494 9.82292 11.5729 9.96875 11.4275C10.1146 11.2821 10.2917 11.2093 10.5 11.2093C10.7083 11.2093 10.8854 11.2821 11.0312 11.4275C11.1771 11.5729 11.25 11.7494 11.25 11.9572C11.25 12.1649 11.1771 12.3414 11.0312 12.4869C10.8854 12.6323 10.7083 12.705 10.5 12.705C10.2917 12.705 10.1146 12.6323 9.96875 12.4869C9.82292 12.3414 9.75 12.1649 9.75 11.9572Z" fill="#0078D4"/>
</svg>
