<svg width="32" height="19" viewBox="0 0 34 21" fill="none" xmlns="http://www.w3.org/2000/svg">
<rect x="19.4315" y="15.8224" width="13.5785" height="4.56204" rx="2" fill="#676D73"/>
<path d="M4.99917 10.9907C4.99917 11.2116 5.17826 11.3907 5.39917 11.3907C5.62008 11.3907 5.79917 11.2116 5.79917 10.9907L4.99917 10.9907ZM5.79917 4.36546C5.79917 4.14455 5.62008 3.96546 5.39917 3.96546C5.17826 3.96546 4.99917 4.14455 4.99917 4.36546L5.79917 4.36546ZM2.98975 1.96937H31.0099V1.16937H2.98975V1.96937ZM32.6099 3.56937V11.5694H33.4099V3.56937H32.6099ZM31.0099 13.1694H2.98975V13.9694H31.0099V13.1694ZM1.38975 11.5694V3.56937H0.589746V11.5694H1.38975ZM2.98975 13.1694C2.10609 13.1694 1.38975 12.453 1.38975 11.5694H0.589746C0.589746 12.8948 1.66426 13.9694 2.98975 13.9694V13.1694ZM32.6099 11.5694C32.6099 12.453 31.8936 13.1694 31.0099 13.1694V13.9694C32.3354 13.9694 33.4099 12.8948 33.4099 11.5694H32.6099ZM31.0099 1.96937C31.8936 1.96937 32.6099 2.68571 32.6099 3.56937H33.4099C33.4099 2.24388 32.3354 1.16937 31.0099 1.16937V1.96937ZM2.98975 1.16937C1.66426 1.16937 0.589746 2.24388 0.589746 3.56937H1.38975C1.38975 2.68571 2.10609 1.96937 2.98975 1.96937V1.16937ZM5.79917 10.9907L5.79917 4.36546L4.99917 4.36546L4.99917 10.9907L5.79917 10.9907Z" fill="#676D73"/>
</svg>
