<svg width="32" height="19" viewBox="0 0 34 21" fill="none" xmlns="http://www.w3.org/2000/svg">
<path d="M3.39262 4.31376C3.23641 4.15755 2.98315 4.15755 2.82694 4.31375C2.67072 4.46996 2.67072 4.72323 2.82693 4.87944L3.39262 4.31376ZM4.70468 6.19156L4.42184 6.4744L4.70468 6.75725L4.98753 6.4744L4.70468 6.19156ZM7.41066 4.05127C7.56687 3.89506 7.56687 3.64179 7.41066 3.48558C7.25445 3.32937 7.00118 3.32937 6.84497 3.48558L7.41066 4.05127ZM12.7377 4.68057C12.5168 4.68057 12.3377 4.85965 12.3377 5.08057C12.3377 5.30148 12.5168 5.48057 12.7377 5.48057L12.7377 4.68057ZM33.0794 5.48057C33.3003 5.48057 33.4794 5.30148 33.4794 5.08057C33.4794 4.85965 33.3003 4.68057 33.0794 4.68057L33.0794 5.48057ZM12.7377 15.4794C12.5168 15.4794 12.3377 15.6585 12.3377 15.8794C12.3377 16.1003 12.5168 16.2794 12.7377 16.2794L12.7377 15.4794ZM33.0794 16.2794C33.3003 16.2794 33.4794 16.1003 33.4794 15.8794C33.4794 15.6585 33.3003 15.4794 33.0794 15.4794L33.0794 16.2794ZM3.1189 1.37998H7.1189V0.57998H3.1189V1.37998ZM8.7189 2.97998V6.97998H9.5189V2.97998H8.7189ZM7.1189 8.57998H3.1189V9.37998H7.1189V8.57998ZM1.5189 6.97998V2.97998H0.718896V6.97998H1.5189ZM3.1189 8.57998C2.23524 8.57998 1.5189 7.86364 1.5189 6.97998H0.718896C0.718896 8.30546 1.79341 9.37998 3.1189 9.37998V8.57998ZM8.7189 6.97998C8.7189 7.86364 8.00255 8.57998 7.1189 8.57998V9.37998C8.44438 9.37998 9.5189 8.30546 9.5189 6.97998H8.7189ZM7.1189 1.37998C8.00255 1.37998 8.7189 2.09632 8.7189 2.97998H9.5189C9.5189 1.6545 8.44438 0.57998 7.1189 0.57998V1.37998ZM3.1189 0.57998C1.79341 0.57998 0.718896 1.6545 0.718896 2.97998H1.5189C1.5189 2.09632 2.23524 1.37998 3.1189 1.37998V0.57998ZM2.82693 4.87944L4.42184 6.4744L4.98753 5.90872L3.39262 4.31376L2.82693 4.87944ZM4.98753 6.4744L7.41066 4.05127L6.84497 3.48558L4.42184 5.90871L4.98753 6.4744ZM12.7377 5.48057L33.0794 5.48057L33.0794 4.68057L12.7377 4.68057L12.7377 5.48057ZM12.7377 16.2794L33.0794 16.2794L33.0794 15.4794L12.7377 15.4794L12.7377 16.2794ZM3.1189 12.38H7.1189V11.58H3.1189V12.38ZM8.7189 13.98V17.98H9.5189V13.98H8.7189ZM7.1189 19.58H3.1189V20.38H7.1189V19.58ZM1.5189 17.98V13.98H0.718896V17.98H1.5189ZM3.1189 19.58C2.23524 19.58 1.5189 18.8636 1.5189 17.98H0.718896C0.718896 19.3055 1.79341 20.38 3.1189 20.38V19.58ZM8.7189 17.98C8.7189 18.8636 8.00255 19.58 7.1189 19.58V20.38C8.44438 20.38 9.5189 19.3055 9.5189 17.98H8.7189ZM7.1189 12.38C8.00255 12.38 8.7189 13.0963 8.7189 13.98H9.5189C9.5189 12.6545 8.44438 11.58 7.1189 11.58V12.38ZM3.1189 11.58C1.79341 11.58 0.718896 12.6545 0.718896 13.98H1.5189C1.5189 13.0963 2.23524 12.38 3.1189 12.38V11.58Z" fill="#676D73"/>
</svg>
