<svg width="32" height="19" viewBox="0 0 34 21" fill="none" xmlns="http://www.w3.org/2000/svg">
<path d="M14.1044 20C14.1044 20.2209 14.2835 20.4 14.5044 20.4C14.7253 20.4 14.9044 20.2209 14.9044 20L14.1044 20ZM14.9044 1C14.9044 0.779086 14.7253 0.6 14.5044 0.6C14.2835 0.6 14.1044 0.779086 14.1044 1L14.9044 1ZM20.0044 4.40002H31.0125V3.60002H20.0044V4.40002ZM32.6125 6.00002V15H33.4125V6.00002H32.6125ZM31.0125 16.6H20.0044V17.4H31.0125V16.6ZM18.4044 15V6.00002H17.6044V15H18.4044ZM20.0044 16.6C19.1207 16.6 18.4044 15.8837 18.4044 15H17.6044C17.6044 16.3255 18.6789 17.4 20.0044 17.4V16.6ZM32.6125 15C32.6125 15.8837 31.8962 16.6 31.0125 16.6V17.4C32.338 17.4 33.4125 16.3255 33.4125 15H32.6125ZM31.0125 4.40002C31.8962 4.40002 32.6125 5.11636 32.6125 6.00002H33.4125C33.4125 4.67453 32.338 3.60002 31.0125 3.60002V4.40002ZM20.0044 3.60002C18.6789 3.60002 17.6044 4.67453 17.6044 6.00002H18.4044C18.4044 5.11636 19.1207 4.40002 20.0044 4.40002V3.60002ZM2.92651 4.40002H9.00446V3.60002H2.92651V4.40002ZM10.6045 6.00002V15H11.4045V6.00002H10.6045ZM9.00447 16.6H2.92652V17.4H9.00447V16.6ZM1.32651 15V6.00002H0.526514V15H1.32651ZM2.92652 16.6C2.04286 16.6 1.32651 15.8837 1.32651 15H0.526514C0.526514 16.3255 1.60103 17.4 2.92652 17.4V16.6ZM10.6045 15C10.6045 15.8837 9.88812 16.6 9.00447 16.6V17.4C10.3299 17.4 11.4045 16.3255 11.4045 15H10.6045ZM9.00446 4.40002C9.88812 4.40002 10.6045 5.11636 10.6045 6.00002H11.4045C11.4045 4.67453 10.3299 3.60002 9.00446 3.60002V4.40002ZM2.92651 3.60002C1.60103 3.60002 0.526514 4.67453 0.526514 6.00002H1.32651C1.32651 5.11636 2.04286 4.40002 2.92651 4.40002V3.60002ZM14.9044 20L14.9044 1L14.1044 1L14.1044 20L14.9044 20Z" fill="#676D73"/>
</svg>
