<svg width="32" height="19" viewBox="0 0 34 21" fill="none" xmlns="http://www.w3.org/2000/svg">
<ellipse cx="21.3696" cy="5.99161" rx="1.99986" ry="2" fill="#676D73" />
<path d="M15.8139 10.7141L15.5212 10.9867L15.8139 10.7141ZM12.8869 10.7141L13.1796 10.9867L13.1796 10.9867L12.8869 10.7141ZM23.3016 13.2608L23.5928 12.9866L23.5928 12.9866L23.3016 13.2608ZM20.5285 13.1269L20.7919 13.4279L20.7919 13.4279L20.5285 13.1269ZM4.97711 3.89999C5.19803 3.89999 5.37711 3.7209 5.37711 3.49999C5.37711 3.27907 5.19803 3.09999 4.97711 3.09999V3.89999ZM4.97711 17.9C5.19803 17.9 5.37711 17.7209 5.37711 17.5C5.37711 17.2791 5.19803 17.1 4.97711 17.1V17.9ZM29.0229 3.1C28.802 3.1 28.6229 3.27909 28.6229 3.5C28.6229 3.72091 28.802 3.9 29.0229 3.9V3.1ZM29.0229 17.1C28.802 17.1 28.6229 17.2791 28.6229 17.5C28.6229 17.7209 28.802 17.9 29.0229 17.9V17.1ZM9.50125 1.4H24.4999V0.6H9.50125V1.4ZM26.0999 3V18H26.8999V3H26.0999ZM24.4999 19.6H9.50125V20.4H24.4999V19.6ZM7.90125 18V3H7.10125V18H7.90125ZM9.50125 19.6C8.61759 19.6 7.90125 18.8836 7.90125 18H7.10125C7.10125 19.3255 8.17576 20.4 9.50125 20.4V19.6ZM26.0999 18C26.0999 18.8836 25.3835 19.6 24.4999 19.6V20.4C25.8254 20.4 26.8999 19.3255 26.8999 18H26.0999ZM24.4999 1.4C25.3835 1.4 26.0999 2.11634 26.0999 3H26.8999C26.8999 1.67452 25.8254 0.6 24.4999 0.6V1.4ZM9.50125 0.6C8.17576 0.6 7.10125 1.67452 7.10125 3H7.90125C7.90125 2.11634 8.61759 1.4 9.50125 1.4V0.6ZM24.7557 19.7274L16.1066 10.4415L15.5212 10.9867L24.1703 20.2726L24.7557 19.7274ZM12.5942 10.4415L7.20718 16.2251L7.79258 16.7703L13.1796 10.9867L12.5942 10.4415ZM16.1066 10.4415C15.1575 9.42251 13.5432 9.42251 12.5942 10.4415L13.1796 10.9867C13.8123 10.3074 14.8884 10.3074 15.5212 10.9867L16.1066 10.4415ZM26.9186 16.5181L23.5928 12.9866L23.0104 13.5351L26.3362 17.0666L26.9186 16.5181ZM20.2651 12.8259L19.1065 13.8397L19.6333 14.4418L20.7919 13.4279L20.2651 12.8259ZM23.5928 12.9866C22.7074 12.0465 21.2369 11.9755 20.2651 12.8259L20.7919 13.4279C21.4398 12.861 22.4201 12.9083 23.0104 13.5351L23.5928 12.9866ZM1.4 15.5V5.49999H0.6V15.5H1.4ZM3 3.89999H4.97711V3.09999H3V3.89999ZM4.97711 17.1H3V17.9H4.97711V17.1ZM0.6 15.5C0.6 16.8255 1.67452 17.9 3 17.9V17.1C2.11634 17.1 1.4 16.3836 1.4 15.5H0.6ZM1.4 5.49999C1.4 4.61633 2.11634 3.89999 3 3.89999V3.09999C1.67452 3.09999 0.6 4.1745 0.6 5.49999H1.4ZM32.6001 5.5V15.5H33.4001V5.5H32.6001ZM29.0229 3.9H31.0001V3.1H29.0229V3.9ZM31.0001 17.1H29.0229V17.9H31.0001V17.1ZM32.6001 15.5C32.6001 16.3837 31.8837 17.1 31.0001 17.1V17.9C32.3255 17.9 33.4001 16.8255 33.4001 15.5H32.6001ZM33.4001 5.5C33.4001 4.17452 32.3255 3.1 31.0001 3.1V3.9C31.8837 3.9 32.6001 4.61634 32.6001 5.5H33.4001Z" fill="#676D73"/>
</svg>
