<svg width="32" height="19" viewBox="0 0 34 21" fill="none" xmlns="http://www.w3.org/2000/svg">
<path d="M1.00008 3C1.00008 1.89543 1.89551 1 3.00008 1H31.0001C32.1047 1 33.0001 1.89543 33.0001 3V14.5452C33.0001 15.6498 32.1047 16.5452 31.0001 16.5452H27.0131V19.582C27.0131 19.9598 26.6101 20.2012 26.277 20.0228L19.783 16.5452H3.00008C1.89551 16.5452 1.00008 15.6498 1.00008 14.5452V3Z" stroke="#676D73"/>
<path d="M9.18999 5.82689C9.22669 5.74923 9.30229 5.7 9.38491 5.7C9.46754 5.7 9.54325 5.74923 9.57984 5.82689L10.279 7.31085C10.3106 7.37797 10.3719 7.42454 10.4428 7.43532L12.0063 7.67324C12.0883 7.68567 12.1562 7.74582 12.1817 7.82817C12.2073 7.91052 12.186 8.00112 12.1267 8.06152L10.9955 9.21671C10.9442 9.26898 10.9208 9.34435 10.9328 9.4182L11.1998 11.0494C11.2136 11.1349 11.1803 11.2212 11.1132 11.2722C11.0462 11.3229 10.9577 11.3296 10.8842 11.2896L9.48571 10.5193C9.42247 10.4844 9.34675 10.4844 9.28339 10.5193L7.88486 11.2894C7.81168 11.3296 7.72288 11.323 7.65589 11.2722C7.58889 11.2213 7.55546 11.1349 7.56939 11.0494L7.8364 9.4182C7.84851 9.34435 7.82501 9.26898 7.77376 9.21671L6.64248 8.06152C6.58324 8.00099 6.56192 7.91052 6.58748 7.82817C6.61304 7.74582 6.68101 7.68567 6.76303 7.67324L8.32681 7.43532C8.39756 7.42454 8.45886 7.37797 8.49048 7.31072L9.18999 5.82689Z" fill="#676D73"/>
<path d="M16.8055 5.82689C16.8422 5.74923 16.9178 5.7 17.0004 5.7C17.083 5.7 17.1587 5.74923 17.1953 5.82689L17.8945 7.31085C17.9261 7.37797 17.9874 7.42454 18.0583 7.43532L19.6218 7.67324C19.7038 7.68567 19.7717 7.74582 19.7972 7.82817C19.8228 7.91052 19.8015 8.00112 19.7422 8.06152L18.6109 9.21671C18.5597 9.26898 18.5363 9.34435 18.5483 9.4182L18.8153 11.0494C18.8291 11.1349 18.7958 11.2212 18.7287 11.2722C18.6617 11.3229 18.5731 11.3296 18.4997 11.2896L17.1012 10.5193C17.0379 10.4844 16.9622 10.4844 16.8989 10.5193L15.5003 11.2894C15.4272 11.3296 15.3384 11.323 15.2714 11.2722C15.2044 11.2213 15.1709 11.1349 15.1849 11.0494L15.4519 9.4182C15.464 9.34435 15.4405 9.26898 15.3892 9.21671L14.258 8.06152C14.1987 8.00099 14.1774 7.91052 14.203 7.82817C14.2285 7.74582 14.2965 7.68567 14.3785 7.67324L15.9423 7.43532C16.013 7.42454 16.0743 7.37797 16.106 7.31072L16.8055 5.82689Z" fill="#676D73"/>
<path d="M24.4209 5.82689C24.4577 5.74923 24.5332 5.7 24.6159 5.7C24.6985 5.7 24.7742 5.74923 24.8108 5.82689L25.5099 7.31085C25.5416 7.37797 25.6029 7.42454 25.6737 7.43532L27.2373 7.67324C27.3193 7.68567 27.3871 7.74582 27.4127 7.82817C27.4383 7.91052 27.4169 8.00112 27.3577 8.06152L26.2264 9.21671C26.1752 9.26898 26.1518 9.34435 26.1638 9.4182L26.4308 11.0494C26.4446 11.1349 26.4113 11.2212 26.3442 11.2722C26.2772 11.3229 26.1886 11.3296 26.1152 11.2896L24.7167 10.5193C24.6534 10.4844 24.5777 10.4844 24.5143 10.5193L23.1158 11.2894C23.0426 11.3296 22.9538 11.323 22.8868 11.2722C22.8198 11.2213 22.7864 11.1349 22.8003 11.0494L23.0674 9.4182C23.0795 9.34435 23.056 9.26898 23.0047 9.21671L21.8734 8.06152C21.8142 8.00099 21.7929 7.91052 21.8184 7.82817C21.844 7.74582 21.912 7.68567 21.994 7.67324L23.5578 7.43532C23.6285 7.42454 23.6898 7.37797 23.7214 7.31072L24.4209 5.82689Z" fill="#676D73"/>
</svg>
