<svg width="32" height="19" viewBox="0 0 34 22" fill="none" xmlns="http://www.w3.org/2000/svg">
<path d="M16.6001 15.014C16.6001 15.235 16.7792 15.414 17.0001 15.414C17.221 15.414 17.4001 15.2349 17.4001 15.014L16.6001 15.014ZM17.4 6.01403C17.4 5.79312 17.2209 5.61404 17 5.61404C16.7791 5.61404 16.6 5.79313 16.6 6.01404L17.4 6.01403ZM9.79411 14.1581C9.71135 14.3629 9.81031 14.5961 10.0151 14.6788C10.22 14.7616 10.4531 14.6626 10.5359 14.4578L9.79411 14.1581ZM13.6015 6.87C13.6843 6.66517 13.5853 6.43204 13.3805 6.34928C13.1757 6.26652 12.9425 6.36548 12.8598 6.57031L13.6015 6.87ZM6.96257 14.1581C6.87981 14.3629 6.97877 14.5961 7.1836 14.6788C7.38842 14.7616 7.62156 14.6626 7.70431 14.4578L6.96257 14.1581ZM10.77 6.87C10.8527 6.66517 10.7538 6.43204 10.5489 6.34928C10.3441 6.26652 10.111 6.36548 10.0282 6.57031L10.77 6.87ZM17.4001 15.014L17.4 6.01403L16.6 6.01404L16.6001 15.014L17.4001 15.014ZM3.00006 3.41407H31.0001V2.61407H3.00006V3.41407ZM32.6001 5.01407V16.0141H33.4001V5.01407H32.6001ZM31.0001 17.6141H3.00006V18.4141H31.0001V17.6141ZM1.40006 16.0141V5.01407H0.600061V16.0141H1.40006ZM3.00006 17.6141C2.11641 17.6141 1.40006 16.8977 1.40006 16.0141H0.600061C0.600061 17.3396 1.67458 18.4141 3.00006 18.4141V17.6141ZM32.6001 16.0141C32.6001 16.8977 31.8837 17.6141 31.0001 17.6141V18.4141C32.3255 18.4141 33.4001 17.3396 33.4001 16.0141H32.6001ZM31.0001 3.41407C31.8837 3.41407 32.6001 4.13041 32.6001 5.01407H33.4001C33.4001 3.68859 32.3255 2.61407 31.0001 2.61407V3.41407ZM3.00006 2.61407C1.67458 2.61407 0.600061 3.68859 0.600061 5.01407H1.40006C1.40006 4.13041 2.11641 3.41407 3.00006 3.41407V2.61407ZM10.5359 14.4578L13.6015 6.87L12.8598 6.57031L9.79411 14.1581L10.5359 14.4578ZM7.70431 14.4578L10.77 6.87L10.0282 6.57031L6.96257 14.1581L7.70431 14.4578Z" fill="#676D73"/>
<circle cx="5.51947" cy="9.01405" r="0.75" fill="#676D73"/>
<path d="M6.26947 12.0141C6.26947 12.4283 5.93369 12.7641 5.51947 12.7641C5.10526 12.7641 4.76947 12.4283 4.76947 12.0141C4.76947 11.5998 5.10526 11.2641 5.51947 11.2641C5.93369 11.2641 6.26947 11.5998 6.26947 12.0141Z" fill="#676D73"/>
</svg>
