<svg width="32" height="19" viewBox="0 0 34 21" fill="none" xmlns="http://www.w3.org/2000/svg">
<path d="M1 16.1C0.779086 16.1 0.6 16.2791 0.6 16.5C0.6 16.7209 0.779086 16.9 1 16.9V16.1ZM33 16.9C33.2209 16.9 33.4 16.7209 33.4 16.5C33.4 16.2791 33.2209 16.1 33 16.1V16.9ZM1 19.6C0.779086 19.6 0.6 19.7791 0.6 20C0.6 20.2209 0.779086 20.4 1 20.4V19.6ZM33 20.4C33.2209 20.4 33.4 20.2209 33.4 20C33.4 19.7791 33.2209 19.6 33 19.6V20.4ZM3 1.4H31V0.6H3V1.4ZM32.6 3V11H33.4V3H32.6ZM31 12.6H3V13.4H31V12.6ZM1.4 11V3H0.6V11H1.4ZM3 12.6C2.11634 12.6 1.4 11.8837 1.4 11H0.6C0.6 12.3255 1.67452 13.4 3 13.4V12.6ZM32.6 11C32.6 11.8837 31.8837 12.6 31 12.6V13.4C32.3255 13.4 33.4 12.3255 33.4 11H32.6ZM31 1.4C31.8837 1.4 32.6 2.11634 32.6 3H33.4C33.4 1.67452 32.3255 0.6 31 0.6V1.4ZM3 0.6C1.67452 0.6 0.6 1.67452 0.6 3H1.4C1.4 2.11634 2.11634 1.4 3 1.4V0.6ZM1 16.9H33V16.1H1V16.9ZM1 20.4H33V19.6H1V20.4Z" fill="#676D73"/>
</svg>
