<svg width="32" height="19" viewBox="0 0 34 22" fill="none" xmlns="http://www.w3.org/2000/svg">
<path d="M16.6 15.014C16.6 15.2349 16.7791 15.414 17 15.414C17.2209 15.414 17.4 15.2349 17.4 15.014L16.6 15.014ZM17.3999 6.014C17.3999 5.79309 17.2208 5.61401 16.9999 5.61401C16.779 5.61401 16.5999 5.7931 16.5999 6.01401L17.3999 6.014ZM8.88561 14.3363C8.88562 14.5572 9.0647 14.7363 9.28562 14.7363C9.50653 14.7363 9.68562 14.5572 9.68561 14.3363L8.88561 14.3363ZM9.28553 6.94306L8.88553 6.94306L8.88553 6.94306L9.28553 6.94306ZM9.11557 6.87084L8.83639 6.58438L8.83639 6.58438L9.11557 6.87084ZM6.00646 9.34243C5.84826 9.49662 5.845 9.74987 5.99919 9.90807C6.15338 10.0663 6.40662 10.0695 6.56483 9.91535L6.00646 9.34243ZM3.00006 3.41404H31.0001V2.61404H3.00006V3.41404ZM32.6001 5.01404V16.014H33.4001V5.01404H32.6001ZM31.0001 17.614H3.00006V18.414H31.0001V17.614ZM1.40006 16.014V5.01404H0.600061V16.014H1.40006ZM3.00006 17.614C2.11641 17.614 1.40006 16.8977 1.40006 16.014H0.600061C0.600061 17.3395 1.67458 18.414 3.00006 18.414V17.614ZM32.6001 16.014C32.6001 16.8977 31.8837 17.614 31.0001 17.614V18.414C32.3255 18.414 33.4001 17.3395 33.4001 16.014H32.6001ZM31.0001 3.41404C31.8837 3.41404 32.6001 4.13038 32.6001 5.01404H33.4001C33.4001 3.68855 32.3255 2.61404 31.0001 2.61404V3.41404ZM3.00006 2.61404C1.67458 2.61404 0.600061 3.68855 0.600061 5.01404H1.40006C1.40006 4.13038 2.11641 3.41404 3.00006 3.41404V2.61404ZM17.4 15.014L17.3999 6.014L16.5999 6.01401L16.6 15.014L17.4 15.014ZM9.68561 14.3363L9.68553 6.94305L8.88553 6.94306L8.88561 14.3363L9.68561 14.3363ZM8.83639 6.58438L6.00646 9.34243L6.56483 9.91535L9.39475 7.1573L8.83639 6.58438ZM9.68553 6.94306C9.68553 6.50427 9.15575 6.27314 8.83639 6.58438L9.39475 7.1573C9.20198 7.34517 8.88553 7.20469 8.88553 6.94306L9.68553 6.94306Z" fill="#676D73"/>
</svg>
