<svg width="32" height="19" viewBox="0 0 34 21" fill="none" xmlns="http://www.w3.org/2000/svg">
<path d="M16.9998 8.15215H24.9998V13.2815C24.9998 13.8338 24.5521 14.2815 23.9998 14.2815H16.9998V8.15215Z" fill="#676D73" stroke="#676D73" stroke-linecap="round"/>
<path d="M33 8.15216H0.999997M9 14.2815L0.999947 14.2815M9 14.2815L9 8.15216M9 14.2815L8.99981 20M9 14.2815L16.9999 14.2815L16.9999 20M3 20H31C32.1046 20 33 19.1046 33 18V3C33 1.89543 32.1046 1 31 1H3C1.89543 1 0.999997 1.89543 0.999997 3V18C0.999997 19.1046 1.89543 20 3 20Z" stroke="#676D73" stroke-linecap="round"/>
</svg>
