<svg width="34" height="21" viewBox="0 0 34 21" fill="none" xmlns="http://www.w3.org/2000/svg">
<path d="M15.8512 15.6811H9.22909C6.69312 15.6811 4.62055 13.6085 4.62055 11.0166C4.62055 8.42967 6.58109 6.3571 9.22909 6.3571C9.6874 6.3571 10.2068 6.46913 10.7822 6.53024L11.76 6.81541L12.0502 5.83769C12.9719 2.84341 15.8491 1 19.1336 1C23.1056 1 26.1559 4.05029 26.1559 8.02229C26.1559 8.65882 26.0439 9.29027 25.8707 9.92681L25.4684 11.3628L27.0216 11.1897H27.3068C28.4627 11.1897 29.3793 12.1725 29.3793 13.2623C29.3793 14.3571 28.5748 15.1668 27.597 15.3348H22.4742M14.7959 11.6973C15.5833 11.0824 16.5742 10.716 17.6507 10.716C20.2144 10.716 22.2927 12.7943 22.2927 15.358C22.2927 17.9217 20.2144 20 17.6507 20C16.5742 20 15.5833 19.6336 14.7959 19.0187" stroke="#676D73" stroke-linecap="round"/>
</svg>
