<svg width="32" height="19" viewBox="0 0 34 22" fill="none" xmlns="http://www.w3.org/2000/svg">
<path d="M16.6002 15.014C16.6002 15.235 16.7792 15.414 17.0002 15.414C17.2211 15.414 17.4002 15.2349 17.4002 15.014L16.6002 15.014ZM17.4001 6.01403C17.4001 5.79312 17.221 5.61404 17.0001 5.61404C16.7792 5.61404 16.6001 5.79313 16.6001 6.01404L17.4001 6.01403ZM3 3.41404H31V2.61404H3V3.41404ZM32.6 5.01404V16.014H33.4V5.01404H32.6ZM31 17.614H3V18.414H31V17.614ZM1.4 16.014V5.01404H0.6V16.014H1.4ZM3 17.614C2.11634 17.614 1.4 16.8977 1.4 16.014H0.6C0.6 17.3395 1.67452 18.414 3 18.414V17.614ZM32.6 16.014C32.6 16.8977 31.8837 17.614 31 17.614V18.414C32.3255 18.414 33.4 17.3395 33.4 16.014H32.6ZM31 3.41404C31.8837 3.41404 32.6 4.13038 32.6 5.01404H33.4C33.4 3.68855 32.3255 2.61404 31 2.61404V3.41404ZM3 2.61404C1.67452 2.61404 0.6 3.68855 0.6 5.01404H1.4C1.4 4.13038 2.11634 3.41404 3 3.41404V2.61404ZM17.4002 15.014L17.4001 6.01403L16.6001 6.01404L16.6002 15.014L17.4002 15.014Z" fill="#676D73"/>
<path d="M5.1818 14.0669H12.8183C13.0944 14.0669 13.3183 13.8431 13.3183 13.5669V8.526L9.00004 12.5971L4.6818 8.526V13.5669C4.6818 13.8431 4.90566 14.0669 5.1818 14.0669Z" fill="#676D73"/>
<path d="M9.00021 11.2965L13.2586 7.40826C13.326 7.3467 13.2825 7.23441 13.1912 7.23441H4.80898C4.71769 7.23441 4.67413 7.3467 4.74156 7.40826L9.00021 11.2965Z" fill="#676D73"/>
</svg>
