<svg width="32" height="19" viewBox="0 0 34 21" fill="none" xmlns="http://www.w3.org/2000/svg">
<path d="M27.6472 3.97787H31C32.1046 3.97787 33 4.87331 33 5.97787V11.65C33 12.7546 32.1046 13.65 31 13.65H14.4174C13.3128 13.65 12.4174 12.7546 12.4174 11.65V5.97787C12.4174 4.8733 13.3128 3.97787 14.4174 3.97787H17.5675" stroke="#676D73" stroke-linecap="round"/>
<path fill-rule="evenodd" clip-rule="evenodd" d="M22.7436 10.8167C23.8146 9.69913 25.9567 6.31028 25.9567 4.41038C25.9567 2.03552 24.2803 1.05763 22.7436 1.05763C21.2069 1.05763 19.4607 2.14029 19.4607 4.41038C19.4607 6.22646 21.6493 9.6642 22.7436 10.8167ZM22.7088 6.00557C21.7717 6.00557 21.012 5.2459 21.012 4.30879C21.012 3.37169 21.7717 2.61201 22.7088 2.61201C23.6459 2.61201 24.4056 3.37169 24.4056 4.30879C24.4056 5.2459 23.6459 6.00557 22.7088 6.00557Z" fill="#676D73"/>
<rect x="0.976807" y="3.97787" width="6" height="9.67214" rx="2" stroke="#676D73"/>
<path d="M1 19H33" stroke="#676D73" stroke-linecap="round"/>
</svg>
