<svg width="10" height="16" viewBox="0 0 10 16" fill="none" xmlns="http://www.w3.org/2000/svg">
<path d="M5 0L6.2 0.2L7.3 0.6L8.2 1.3L8.9 2.2C9.09245 2.54239 9.22757 2.91397 9.3 3.3C9.41526 3.69037 9.48243 4.09335 9.5 4.5C9.48243 4.90665 9.41526 5.30963 9.3 5.7C9.21014 6.04912 9.0757 6.38521 8.9 6.7L8.2 7.5C8.02024 7.78138 7.78138 8.02024 7.5 8.2L6.8 8.9L6.1 9.6C5.92607 9.88026 5.79147 10.1831 5.7 10.5C5.58622 10.8222 5.51888 11.1589 5.5 11.5V13H4.5V11.5C4.51757 11.0934 4.58474 10.6904 4.7 10.3C4.78986 9.95088 4.9243 9.61479 5.1 9.3L5.8 8.5L6.5 7.8L7.2 7.1C7.48138 6.92024 7.72024 6.68138 7.9 6.4C8.07393 6.11974 8.20853 5.81691 8.3 5.5C8.41378 5.17785 8.48112 4.84114 8.5 4.5C8.50702 4.01666 8.40446 3.53802 8.2 3.1C8.02684 2.69834 7.79051 2.32698 7.5 2C7.17302 1.70949 6.80166 1.47316 6.4 1.3C5.96198 1.09554 5.48334 0.992976 5 1C4.51666 0.992976 4.03802 1.09554 3.6 1.3C3.19834 1.47316 2.82698 1.70949 2.5 2C2.20949 2.32698 1.97316 2.69834 1.8 3.1C1.59554 3.53802 1.49298 4.01666 1.5 4.5H0.5C0.517575 4.09335 0.584738 3.69037 0.7 3.3C0.772434 2.91397 0.907553 2.54239 1.1 2.2L1.8 1.3L2.7 0.6L3.8 0.2L5 0ZM4.5 15H5.5V16H4.5V15Z" fill="#0078D4"/>
</svg>
