<svg width="32" height="19" viewBox="0 0 34 22" fill="none" xmlns="http://www.w3.org/2000/svg">
<path d="M29.1755 10.914C29.3965 10.914 29.5755 10.735 29.5755 10.514C29.5755 10.2931 29.3965 10.114 29.1755 10.114L29.1755 10.914ZM20.1755 10.114C19.9546 10.114 19.7755 10.2931 19.7755 10.514C19.7755 10.735 19.9546 10.914 20.1755 10.914L20.1755 10.114ZM3 3.41403H31V2.61403H3V3.41403ZM32.6 5.01403V16.014H33.4V5.01403H32.6ZM31 17.614H3V18.414H31V17.614ZM1.4 16.014V5.01403H0.6V16.014H1.4ZM3 17.614C2.11634 17.614 1.4 16.8977 1.4 16.014H0.6C0.6 17.3395 1.67452 18.414 3 18.414V17.614ZM32.6 16.014C32.6 16.8977 31.8837 17.614 31 17.614V18.414C32.3255 18.414 33.4 17.3395 33.4 16.014H32.6ZM31 3.41403C31.8837 3.41403 32.6 4.13037 32.6 5.01403H33.4C33.4 3.68855 32.3255 2.61403 31 2.61403V3.41403ZM3 2.61403C1.67452 2.61403 0.6 3.68855 0.6 5.01403H1.4C1.4 4.13037 2.11634 3.41403 3 3.41403V2.61403ZM29.1755 10.114L20.1755 10.114L20.1755 10.914L29.1755 10.914L29.1755 10.114Z" fill="#676D73"/>
<path d="M18.6072 10.514L4.82446 10.514" stroke="#676D73" stroke-width="1.5" stroke-linecap="round"/>
<circle cx="18.6072" cy="10.514" r="2.5" fill="#676D73"/>
</svg>
