<svg width="32" height="19" viewBox="0 0 34 22" fill="none" xmlns="http://www.w3.org/2000/svg">
<path d="M4.59995 15.014C4.59995 15.235 4.77904 15.414 4.99995 15.414C5.22087 15.414 5.39995 15.2349 5.39995 15.014L4.59995 15.014ZM5.39986 6.01403C5.39986 5.79312 5.22077 5.61404 4.99986 5.61404C4.77895 5.61404 4.59986 5.79313 4.59986 6.01404L5.39986 6.01403ZM5.39995 15.014L5.39986 6.01403L4.59986 6.01404L4.59995 15.014L5.39995 15.014ZM3.00006 3.41407H31.0001V2.61407H3.00006V3.41407ZM32.6001 5.01407V16.0141H33.4001V5.01407H32.6001ZM31.0001 17.6141H3.00006V18.4141H31.0001V17.6141ZM1.40006 16.0141V5.01407H0.600061V16.0141H1.40006ZM3.00006 17.6141C2.11641 17.6141 1.40006 16.8977 1.40006 16.0141H0.600061C0.600061 17.3396 1.67458 18.4141 3.00006 18.4141V17.6141ZM32.6001 16.0141C32.6001 16.8977 31.8837 17.6141 31.0001 17.6141V18.4141C32.3255 18.4141 33.4001 17.3396 33.4001 16.0141H32.6001ZM31.0001 3.41407C31.8837 3.41407 32.6001 4.13041 32.6001 5.01407H33.4001C33.4001 3.68859 32.3255 2.61407 31.0001 2.61407V3.41407ZM3.00006 2.61407C1.67458 2.61407 0.600061 3.68859 0.600061 5.01407H1.40006C1.40006 4.13041 2.11641 3.41407 3.00006 3.41407V2.61407Z" fill="#676D73"/>
<path d="M31.428 15.4738C31.428 16.0738 31.028 16.4738 30.428 16.4738H26.428L31.428 11.4738V15.4738Z" fill="#676D73"/>
</svg>
