<svg width="32" height="19" viewBox="0 0 34 21" fill="none" xmlns="http://www.w3.org/2000/svg">
<path d="M20.5 2.73888C20.5 4.67187 18.933 6.23888 17 6.23888C15.067 6.23888 13.5 4.67187 13.5 2.73888C13.5 2.10596 13.668 1.51228 13.9618 1H8.5C7.39543 1 6.5 1.89543 6.5 3V7.62734C5.93308 7.23191 5.24362 7 4.5 7C2.567 7 1 8.567 1 10.5C1 12.433 2.567 14 4.5 14C5.24362 14 5.93308 13.7681 6.5 13.3727V18C6.5 19.1046 7.39543 20 8.5 20H13.9468C13.6623 19.4938 13.5 18.9097 13.5 18.2877C13.5 16.3547 15.067 14.7877 17 14.7877C18.933 14.7877 20.5 16.3547 20.5 18.2877C20.5 18.9097 20.3377 19.4938 20.0532 20H25.5C26.6046 20 27.5 19.1046 27.5 18V13.3727C28.0669 13.7681 28.7564 14 29.5 14C31.433 14 33 12.433 33 10.5C33 8.567 31.433 7 29.5 7C28.7564 7 28.0669 7.23191 27.5 7.62734V3C27.5 1.89543 26.6046 1 25.5 1H20.0382C20.332 1.51228 20.5 2.10596 20.5 2.73888Z" stroke="#676D73" stroke-linecap="round"/>
</svg>
