<svg width="32" height="19" viewBox="0 0 34 22" fill="none" xmlns="http://www.w3.org/2000/svg">
<path d="M16.6 15.014C16.6 15.235 16.779 15.414 17 15.414C17.2209 15.414 17.4 15.2349 17.4 15.014L16.6 15.014ZM17.3999 6.01403C17.3999 5.79312 17.2208 5.61404 16.9999 5.61404C16.779 5.61404 16.5999 5.79313 16.5999 6.01404L17.3999 6.01403ZM3 3.41404H31V2.61404H3V3.41404ZM32.6 5.01404V16.014H33.4V5.01404H32.6ZM31 17.614H3V18.414H31V17.614ZM1.4 16.014V5.01404H0.6V16.014H1.4ZM3 17.614C2.11634 17.614 1.4 16.8977 1.4 16.014H0.6C0.6 17.3395 1.67452 18.414 3 18.414V17.614ZM32.6 16.014C32.6 16.8977 31.8837 17.614 31 17.614V18.414C32.3255 18.414 33.4 17.3395 33.4 16.014H32.6ZM31 3.41404C31.8837 3.41404 32.6 4.13038 32.6 5.01404H33.4C33.4 3.68855 32.3255 2.61404 31 2.61404V3.41404ZM3 2.61404C1.67452 2.61404 0.6 3.68855 0.6 5.01404H1.4C1.4 4.13038 2.11634 3.41404 3 3.41404V2.61404ZM17.4 15.014L17.3999 6.01403L16.5999 6.01404L16.6 15.014L17.4 15.014Z" fill="#676D73"/>
<path d="M5.50004 7.4902C5.2239 7.4902 5.00004 7.71406 5.00004 7.9902V9.37805L13 9.37805V7.9902C13 7.71406 12.7762 7.4902 12.5 7.4902H5.50004Z" fill="#676D73"/>
<path d="M13 10.678L5.00004 10.678V14.3534C5.00004 14.6296 5.2239 14.8534 5.50004 14.8534H12.5C12.7762 14.8534 13 14.6296 13 14.3534V10.678Z" fill="#676D73"/>
<path d="M6.81149 7.49021L6.81018 6.014M11.1899 7.49021L11.1886 6.014" stroke="#676D73" stroke-linecap="round"/>
</svg>
