<svg width="32" height="19" viewBox="0 0 34 22" fill="none" xmlns="http://www.w3.org/2000/svg">
<path fill-rule="evenodd" clip-rule="evenodd" d="M9.17847 14.6007C11.3876 14.6007 13.1785 12.8098 13.1785 10.6007C13.1785 8.39157 11.3876 6.60071 9.17847 6.60071C6.96933 6.60071 5.17847 8.39157 5.17847 10.6007C5.17847 12.8098 6.96933 14.6007 9.17847 14.6007ZM9.53149 8.91921C9.53149 8.64306 9.30764 8.41921 9.03149 8.41921C8.75535 8.41921 8.53149 8.64306 8.53149 8.91921V10.869L10.0603 12.3978C10.2555 12.593 10.5721 12.593 10.7674 12.3978C10.9627 12.2025 10.9627 11.8859 10.7674 11.6907L9.53149 10.4548V8.91921Z" fill="#676D73"/>
<path d="M16.6102 15.014C16.6102 15.235 16.7893 15.414 17.0102 15.414C17.2311 15.414 17.4102 15.2349 17.4102 15.014L16.6102 15.014ZM17.4101 6.01403C17.4101 5.79312 17.231 5.61404 17.0101 5.61404C16.7892 5.61404 16.6101 5.79313 16.6101 6.01404L17.4101 6.01403ZM17.4102 15.014L17.4101 6.01403L16.6101 6.01404L16.6102 15.014L17.4102 15.014ZM3.01031 3.41407H31.0103V2.61407H3.01031V3.41407ZM32.6103 5.01407V16.0141H33.4103V5.01407H32.6103ZM31.0103 17.6141H3.01031V18.4141H31.0103V17.6141ZM1.41031 16.0141V5.01407H0.610315V16.0141H1.41031ZM3.01031 17.6141C2.12666 17.6141 1.41031 16.8977 1.41031 16.0141H0.610315C0.610315 17.3396 1.68483 18.4141 3.01031 18.4141V17.6141ZM32.6103 16.0141C32.6103 16.8977 31.894 17.6141 31.0103 17.6141V18.4141C32.3358 18.4141 33.4103 17.3396 33.4103 16.0141H32.6103ZM31.0103 3.41407C31.894 3.41407 32.6103 4.13041 32.6103 5.01407H33.4103C33.4103 3.68859 32.3358 2.61407 31.0103 2.61407V3.41407ZM3.01031 2.61407C1.68483 2.61407 0.610315 3.68859 0.610315 5.01407H1.41031C1.41031 4.13041 2.12666 3.41407 3.01031 3.41407V2.61407Z" fill="#676D73"/>
</svg>
