<svg width="32" height="19" viewBox="0 0 34 21" fill="none" xmlns="http://www.w3.org/2000/svg">
<rect x="0.999908" y="3.00002" width="32" height="15" rx="7.5" stroke="#676D73"/>
<path d="M28.4537 13.8643L26.5048 11.8373C27.0059 11.2416 27.2804 10.4921 27.2804 9.71182C27.2804 7.88879 25.7972 6.40558 23.9742 6.40558C22.1512 6.40558 20.668 7.88879 20.668 9.71182C20.668 11.5348 22.1512 13.0181 23.9742 13.0181C24.6586 13.0181 25.3108 12.8116 25.8684 12.4198L27.8322 14.4622C27.9142 14.5474 28.0246 14.5944 28.1429 14.5944C28.2549 14.5944 28.3612 14.5517 28.4418 14.4741C28.6131 14.3092 28.6186 14.0358 28.4537 13.8643ZM23.9742 7.26808C25.3217 7.26808 26.418 8.36431 26.418 9.71182C26.418 11.0593 25.3217 12.1556 23.9742 12.1556C22.6267 12.1556 21.5305 11.0593 21.5305 9.71182C21.5305 8.36431 22.6267 7.26808 23.9742 7.26808Z" fill="#676D73"/>
</svg>
