<svg width="32" height="19" viewBox="0 0 34 22" fill="none" xmlns="http://www.w3.org/2000/svg">
<path d="M16.6 15.014C16.6 15.235 16.779 15.414 17 15.414C17.2209 15.414 17.4 15.2349 17.4 15.014L16.6 15.014ZM17.3999 6.01403C17.3999 5.79312 17.2208 5.61404 16.9999 5.61404C16.779 5.61404 16.5999 5.79313 16.5999 6.01404L17.3999 6.01403ZM4.90191 14.345C4.80855 14.5452 4.89517 14.7832 5.09538 14.8766C5.2956 14.9699 5.53359 14.8833 5.62695 14.6831L4.90191 14.345ZM8.99489 6.51405L9.35742 6.345L8.99489 5.56757L8.63237 6.345L8.99489 6.51405ZM12.3628 14.6831C12.4562 14.8833 12.6942 14.9699 12.8944 14.8766C13.0946 14.7832 13.1813 14.5452 13.0879 14.345L12.3628 14.6831ZM11.4076 12.6539C11.6285 12.6539 11.8076 12.4748 11.8076 12.2539C11.8076 12.033 11.6285 11.8539 11.4076 11.8539V12.6539ZM6.59359 11.8539C6.37268 11.8539 6.19359 12.033 6.19359 12.2539C6.19359 12.4748 6.37268 12.6539 6.59359 12.6539V11.8539ZM17.4 15.014L17.3999 6.01403L16.5999 6.01404L16.6 15.014L17.4 15.014ZM3.00006 3.41407H31.0001V2.61407H3.00006V3.41407ZM32.6001 5.01407V16.0141H33.4001V5.01407H32.6001ZM31.0001 17.6141H3.00006V18.4141H31.0001V17.6141ZM1.40006 16.0141V5.01407H0.600061V16.0141H1.40006ZM3.00006 17.6141C2.11641 17.6141 1.40006 16.8977 1.40006 16.0141H0.600061C0.600061 17.3396 1.67458 18.4141 3.00006 18.4141V17.6141ZM32.6001 16.0141C32.6001 16.8977 31.8837 17.6141 31.0001 17.6141V18.4141C32.3255 18.4141 33.4001 17.3396 33.4001 16.0141H32.6001ZM31.0001 3.41407C31.8837 3.41407 32.6001 4.13041 32.6001 5.01407H33.4001C33.4001 3.68859 32.3255 2.61407 31.0001 2.61407V3.41407ZM3.00006 2.61407C1.67458 2.61407 0.600061 3.68859 0.600061 5.01407H1.40006C1.40006 4.13041 2.11641 3.41407 3.00006 3.41407V2.61407ZM5.62695 14.6831L9.35742 6.6831L8.63237 6.345L4.90191 14.345L5.62695 14.6831ZM13.0879 14.345L9.35742 6.345L8.63237 6.6831L12.3628 14.6831L13.0879 14.345ZM11.4076 11.8539H6.59359V12.6539H11.4076V11.8539Z" fill="#676D73"/>
</svg>
