<svg width="32" height="19" viewBox="0 0 34 21" fill="none" xmlns="http://www.w3.org/2000/svg">
<ellipse cx="27.855" cy="6.14285" rx="1.99986" ry="2" fill="#676D73"/>
<path d="M23.4277 19.9506L11.7506 7.41669C10.9591 6.56713 9.61291 6.56787 8.82236 7.41832L0.954668 15.8822M18.2937 14.0902L20.8915 11.8128C21.693 11.1102 22.9046 11.1595 23.6463 11.9249L31.3217 19.8462M3.00004 20H31C32.1046 20 33 19.1046 33 18V3.00002C33 1.89545 32.1046 1.00002 31 1.00002H3.00004C1.89547 1.00002 1.00004 1.89544 1.00004 3.00001V18C1.00004 19.1046 1.89547 20 3.00004 20Z" stroke="#676D73"/>
</svg>
