<svg width="32" height="19" viewBox="0 0 34 21" fill="none" xmlns="http://www.w3.org/2000/svg">
<path d="M30.4231 3.97302C30.1004 2.81052 29.1547 1.89418 27.9554 1.58115C25.7643 1 16.9998 1 16.9998 1C16.9998 1 8.23549 1 6.04437 1.55899C4.86816 1.87182 3.89939 2.81073 3.5766 3.97302C3.00004 6.09637 3.00004 10.5 3.00004 10.5C3.00004 10.5 3.00004 14.9258 3.5766 17.027C3.8996 18.1893 4.84509 19.1058 6.04458 19.4189C8.25856 20 17 20 17 20C17 20 25.7643 20 27.9554 19.441C29.1549 19.1282 30.1004 18.2116 30.4234 17.0493C30.9999 14.9258 30.9999 10.5224 30.9999 10.5224C30.9999 10.5224 31.023 6.09637 30.4231 3.97302Z" stroke="#676D73"/>
<path d="M20.931 11.024L14.9952 14.1881C14.6622 14.3656 14.26 14.1243 14.26 13.7469V10.5927V7.27145C14.26 6.88982 14.6703 6.64887 15.0036 6.83479L20.9394 10.1461C21.285 10.3389 21.2803 10.8378 20.931 11.024Z" fill="#676D73"/>
</svg>
