<svg width="32" height="19" viewBox="0 0 34 22" fill="none" xmlns="http://www.w3.org/2000/svg">
<path d="M16.6 15.014C16.6 15.235 16.779 15.414 17 15.414C17.2209 15.414 17.4 15.2349 17.4 15.014L16.6 15.014ZM17.3999 6.01403C17.3999 5.79312 17.2208 5.61404 16.9999 5.61404C16.779 5.61404 16.5999 5.79313 16.5999 6.01404L17.3999 6.01403ZM17.4 15.014L17.3999 6.01403L16.5999 6.01404L16.6 15.014L17.4 15.014ZM3.00006 3.41407H31.0001V2.61407H3.00006V3.41407ZM32.6001 5.01407V16.0141H33.4001V5.01407H32.6001ZM31.0001 17.6141H3.00006V18.4141H31.0001V17.6141ZM1.40006 16.0141V5.01407H0.600061V16.0141H1.40006ZM3.00006 17.6141C2.11641 17.6141 1.40006 16.8977 1.40006 16.0141H0.600061C0.600061 17.3396 1.67458 18.4141 3.00006 18.4141V17.6141ZM32.6001 16.0141C32.6001 16.8977 31.8837 17.6141 31.0001 17.6141V18.4141C32.3255 18.4141 33.4001 17.3396 33.4001 16.0141H32.6001ZM31.0001 3.41407C31.8837 3.41407 32.6001 4.13041 32.6001 5.01407H33.4001C33.4001 3.68859 32.3255 2.61407 31.0001 2.61407V3.41407ZM3.00006 2.61407C1.67458 2.61407 0.600061 3.68859 0.600061 5.01407H1.40006C1.40006 4.13041 2.11641 3.41407 3.00006 3.41407V2.61407Z" fill="#676D73"/>
<path d="M12.0053 7.61457L13.0635 9.51933L10.3122 10.514L13.0635 11.5087L11.963 13.477L9.67725 11.5934L10.164 14.514H7.96296L8.42857 11.5934L6.16402 13.5193L5 11.4876L7.75132 10.4929L5.02116 9.54049L6.10053 7.5934L8.44974 9.45584L7.96296 6.51404H10.1852L9.67725 9.45584L12.0053 7.61457Z" fill="#676D73"/>
</svg>
