<svg width="32" height="19" viewBox="0 0 34 21" fill="none" xmlns="http://www.w3.org/2000/svg">
<path d="M29.189 6.17389L27.3411 4.32608L25.4933 6.17389" stroke="#676D73" stroke-width="1.5" stroke-linecap="round"/>
<path d="M29.1891 13.4C29.41 13.4 29.5891 13.2209 29.5891 13C29.5891 12.7791 29.41 12.6 29.1891 12.6V13.4ZM1.00008 12.6C0.779164 12.6 0.600078 12.7791 0.600078 13C0.600078 13.2209 0.779164 13.4 1.00008 13.4V12.6ZM32.1258 16.9C32.3467 16.9 32.5258 16.7209 32.5258 16.5C32.5258 16.2791 32.3467 16.1 32.1258 16.1V16.9ZM1.00013 16.1C0.779214 16.1 0.600128 16.2791 0.600128 16.5C0.600128 16.7209 0.779214 16.9 1.00013 16.9V16.1ZM18.5722 20.4C18.7931 20.4 18.9722 20.2209 18.9722 20C18.9722 19.7791 18.7931 19.6 18.5722 19.6V20.4ZM0.999908 19.6C0.778995 19.6 0.599908 19.7791 0.599908 20C0.599908 20.2209 0.778995 20.4 0.999908 20.4V19.6ZM31 0.6H3V1.4H31V0.6ZM0.600002 3V7.49998H1.4V3H0.600002ZM3 9.89998H31V9.09998H3V9.89998ZM33.4 7.49998V3H32.6V7.49998H33.4ZM31 9.89998C32.3255 9.89998 33.4 8.82547 33.4 7.49998H32.6C32.6 8.38364 31.8837 9.09998 31 9.09998V9.89998ZM0.600002 7.49998C0.600002 8.82547 1.67452 9.89998 3 9.89998V9.09998C2.11635 9.09998 1.4 8.38364 1.4 7.49998H0.600002ZM3 0.6C1.67452 0.6 0.600002 1.67452 0.600002 3H1.4C1.4 2.11634 2.11635 1.4 3 1.4V0.6ZM31 1.4C31.8837 1.4 32.6 2.11634 32.6 3H33.4C33.4 1.67452 32.3255 0.6 31 0.6V1.4ZM29.1891 12.6H1.00008V13.4H29.1891V12.6ZM32.1258 16.1H1.00013V16.9H32.1258V16.1ZM18.5722 19.6H0.999908V20.4H18.5722V19.6Z" fill="#676D73"/>
</svg>
