<svg width="32" height="19" viewBox="0 0 34 21" fill="none" xmlns="http://www.w3.org/2000/svg">
<path d="M31.7091 20C31.7091 20.2209 31.8882 20.4 32.1091 20.4C32.33 20.4 32.5091 20.2209 32.5091 20L31.7091 20ZM32.509 0.999996C32.509 0.779082 32.3299 0.599998 32.1089 0.6C31.888 0.600002 31.709 0.77909 31.709 1L32.509 0.999996ZM1.11087 17.3644C1.0175 17.5646 1.10413 17.8026 1.30434 17.896C1.50456 17.9893 1.74255 17.9027 1.83591 17.7025L1.11087 17.3644ZM8.95279 1.49382L9.31531 1.32478L8.95279 0.547334L8.59027 1.32477L8.95279 1.49382ZM16.0696 17.7025C16.1629 17.9027 16.4009 17.9893 16.6011 17.896C16.8013 17.8026 16.888 17.5646 16.7946 17.3644L16.0696 17.7025ZM13.79 13.4019C14.0109 13.4019 14.19 13.2228 14.19 13.0019C14.19 12.781 14.0109 12.6019 13.79 12.6019V13.4019ZM4.13819 12.6019C3.91728 12.6019 3.73819 12.781 3.73819 13.0019C3.73819 13.2228 3.91728 13.4019 4.13819 13.4019V12.6019ZM26.5001 17.5334C26.5001 17.7544 26.6791 17.9334 26.9001 17.9334C27.121 17.9334 27.3001 17.7544 27.3001 17.5334H26.5001ZM27.3001 8.21221C27.3001 7.9913 27.121 7.81221 26.9001 7.81221C26.6791 7.81221 26.5001 7.9913 26.5001 8.21221H27.3001ZM32.5091 20L32.509 0.999996L31.709 1L31.7091 20L32.5091 20ZM1.83591 17.7025L9.31531 1.66287L8.59027 1.32477L1.11087 17.3644L1.83591 17.7025ZM16.7946 17.3644L9.31531 1.32478L8.59027 1.66287L16.0696 17.7025L16.7946 17.3644ZM13.79 12.6019H4.13819V13.4019H13.79V12.6019ZM27.3001 17.5334V8.21221H26.5001V17.5334H27.3001ZM26.5001 12.8728C26.5001 15.2259 24.5925 17.1334 22.2395 17.1334V17.9334C25.0344 17.9334 27.3001 15.6677 27.3001 12.8728H26.5001ZM22.2395 17.1334C19.8864 17.1334 17.9789 15.2259 17.9789 12.8728H17.1789C17.1789 15.6677 19.4446 17.9334 22.2395 17.9334V17.1334ZM17.9789 12.8728C17.9789 10.5197 19.8864 8.61219 22.2395 8.61219V7.81219C19.4446 7.81219 17.1789 10.0779 17.1789 12.8728H17.9789ZM22.2395 8.61219C24.5925 8.61219 26.5001 10.5197 26.5001 12.8728H27.3001C27.3001 10.0779 25.0344 7.81219 22.2395 7.81219V8.61219Z" fill="#676D73"/>
</svg>
