<svg width="32" height="19" viewBox="0 0 34 21" fill="none" xmlns="http://www.w3.org/2000/svg">
<path d="M5.33861 14.5901C5.1177 14.5901 4.93861 14.7692 4.93861 14.9901C4.93861 15.211 5.1177 15.3901 5.33861 15.3901V14.5901ZM22.5578 15.3901C22.7787 15.3901 22.9578 15.211 22.9578 14.9901C22.9578 14.7692 22.7787 14.5901 22.5578 14.5901V15.3901ZM5.33861 11.6518C5.1177 11.6518 4.93861 11.8309 4.93861 12.0518C4.93861 12.2727 5.1177 12.4518 5.33861 12.4518V11.6518ZM16.4321 12.4518C16.653 12.4518 16.8321 12.2727 16.8321 12.0518C16.8321 11.8309 16.653 11.6518 16.4321 11.6518V12.4518ZM3 1.4H31V0.6H3V1.4ZM32.6 3V18H33.4V3H32.6ZM31 19.6H3V20.4H31V19.6ZM1.4 18V3H0.6V18H1.4ZM3 19.6C2.11634 19.6 1.4 18.8836 1.4 18H0.6C0.6 19.3255 1.67452 20.4 3 20.4V19.6ZM32.6 18C32.6 18.8836 31.8837 19.6 31 19.6V20.4C32.3255 20.4 33.4 19.3255 33.4 18H32.6ZM31 1.4C31.8837 1.4 32.6 2.11634 32.6 3H33.4C33.4 1.67452 32.3255 0.6 31 0.6V1.4ZM3 0.6C1.67452 0.6 0.6 1.67452 0.6 3H1.4C1.4 2.11634 2.11634 1.4 3 1.4V0.6ZM5.33861 15.3901H22.5578V14.5901H5.33861V15.3901ZM5.33861 12.4518H16.4321V11.6518H5.33861V12.4518Z" fill="#676D73"/>
<rect x="5.33861" y="6.00992" width="18.8139" height="1.76441" rx="0.882204" fill="#676D73" stroke="#676D73"/>
</svg>
