<svg version="1.1" xmlns="http://www.w3.org/2000/svg" width="1024" height="1024" viewBox="0 0 1024 1024">
<path d="M576.091 44.186c-29.37 7.832-54.824 19.58-80.278 33.286-23.496 15.664-46.992 33.286-66.572 52.866-19.58 21.538-37.202 43.076-52.866 68.53-13.706 25.454-25.454 50.908-33.286 80.278s-11.748 58.74-11.748 90.068c0 39.16 5.874 78.32 19.58 113.564s33.286 70.488 58.74 99.858l-373.98 375.938c-5.874 5.874-9.79 13.706-9.79 21.538s3.916 15.664 9.79 21.538c5.874 5.874 13.706 9.79 21.538 9.79s15.664-3.916 21.538-9.79l372.022-373.98c31.328 25.454 64.614 45.034 99.858 58.74 37.202 13.706 74.404 19.58 113.564 19.58 31.328 0 60.698-3.916 90.068-11.748s54.824-19.58 80.278-33.286c25.454-13.706 46.992-31.328 68.53-52.866 19.58-21.538 37.202-43.076 52.866-68.53 13.706-25.454 25.454-50.908 33.286-80.278s11.748-58.74 11.748-90.068c0-31.328-3.916-60.698-11.748-90.068s-19.58-54.824-33.286-80.278c-13.706-23.496-31.328-46.992-50.908-68.53-19.58-19.58-43.076-37.202-68.53-52.866-25.454-13.706-50.908-25.454-80.278-33.286s-58.74-11.748-90.068-11.748-60.698 3.916-90.068 11.748zM558.469 621.8c-33.286-13.706-62.656-33.286-88.11-58.74s-45.034-54.824-58.74-88.11c-13.706-33.286-21.538-68.53-21.538-107.69 0-37.202 7.832-74.404 21.538-107.69s33.286-62.656 58.74-88.11 54.824-45.034 88.11-58.74c33.286-13.706 68.53-21.538 107.69-21.538s74.404 7.832 107.69 21.538c33.286 17.622 62.656 37.202 86.152 62.656s45.034 52.866 60.698 86.152c13.706 33.286 21.538 68.53 21.538 107.69 0 37.202-7.832 74.404-21.538 107.69s-33.286 62.656-58.74 88.11-54.824 45.034-88.11 58.74c-33.286 13.706-68.53 21.538-107.69 21.538s-72.446-7.832-107.69-23.496z"></path>
</svg>
