<?xml version="1.0" standalone="no"?>
<!DOCTYPE svg PUBLIC "-//W3C//DTD SVG 1.1//EN" "http://www.w3.org/Graphics/SVG/1.1/DTD/svg11.dtd" >
<svg xmlns="http://www.w3.org/2000/svg">
<metadata>Generated by IcoMoon</metadata>
<defs>
<font id="icons" horiz-adv-x="1024">
<font-face units-per-em="1024" ascent="819.8005865102639" descent="-204.19941348973606" />
<missing-glyph horiz-adv-x="1024" />
<glyph unicode="&#x20;" horiz-adv-x="0" d="" />
<glyph unicode="&#xe900;" glyph-name="grouped-list" d="M0 849.712h515.512v-147.29h-515.512v147.29zM147.29 628.779h662.803v-73.646h-662.803v73.646zM147.29 481.488h515.512v-73.646h-515.512v73.646zM0 334.198h515.512v-147.29h-515.512v147.29zM147.29 113.263h515.512v-73.646h-515.512v73.646zM147.29-34.026h515.512v-73.646h-515.512v73.646z" />
<glyph unicode="&#xe901;" glyph-name="list" d="M147.29 776.066h883.737v-147.29h-883.737v147.29zM147.29 555.133h883.737v-147.29h-883.737v147.29zM147.29 334.198h883.737v-147.29h-883.737v147.29zM147.29 113.263h883.737v-147.29h-883.737v147.29z" />
<glyph unicode="&#xe902;" glyph-name="filtrofier" d="M525.815 786.538h474.719q11.078 0 18.723-7.645t7.645-18.723-7.645-18.723-18.723-7.645h-474.719q-11.078 0-18.723 7.645t-7.645 18.723 7.645 18.723 18.723 7.645zM815.922 417.312v-158.24l-105.494-105.494v263.733l-184.613 263.733h474.719zM262.669 667.158q53.077 0 101.374-20.698t83.063-55.463 55.463-83.063 20.698-101.374l-0.534-1.061 0.534-2.657q0-74.837-41.396-139.056l145.956-145.425q12.208-13.797 11.944-23.618t-11.944-22.557l-31.314-30.783q-13.797-10.613-24.68-10.613t-20.962 10.613l-145.956 145.425q-63.159-40.869-138.525-40.869l-2.657 0.534-1.061-0.534q-53.077 0-101.374 20.698t-83.063 55.463-55.463 83.063-20.698 101.374 20.698 101.374 55.463 83.063 83.063 55.463 101.374 20.698zM262.669 577.463q-46.705 0-85.982-22.82t-62.097-62.097-22.82-85.982 22.82-85.982 62.097-62.097 85.982-22.82 85.982 22.82 62.097 62.097 22.82 85.982-22.82 85.982-62.097 62.097-85.982 22.82z" />
<glyph unicode="&#xe903;" glyph-name="api-management" horiz-adv-x="1447" d="M938.976 197.096c0-81.129-31.609-157.393-89.088-214.809-57.384-57.48-133.679-89.088-214.809-89.088s-157.425 31.609-214.809 89.088l61.38 61.38c82.064-82.064 224.796-82.064 306.859 0 41.016 41.016 63.666 95.531 63.666 153.43s-22.65 112.414-63.666 153.43c-82.064 82.064-224.796 82.064-306.859 0l-61.38 61.38c114.799 114.864 314.818 114.864 429.584 0 57.48-57.384 89.088-133.679 89.088-214.809zM1102.782 624.714c-24.066 168.122-169.024 297.774-343.687 297.774-115.669 0-222.895-59.026-286.594-152.656-15.916 2.581-31.993 3.868-48.201 3.868-170.925 0-309.985-139.060-309.985-309.985s139.060-310.017 309.985-310.017h88.57c17.911-50.455 65.632-86.8 122.241-86.8 71.914 0 130.2 58.287 130.2 130.2s-58.287 130.2-130.2 130.2c-56.609 0-104.295-36.341-122.241-86.8h-88.57c-123.272 0-223.186 99.945-223.186 223.186s99.945 223.186 223.186 223.186c32.8 0 63.73-7.505 91.761-20.204 37.116 98.528 131.552 168.992 243.064 168.992 143.828 0 260.399-116.603 260.399-260.399l0.16-37.148 74.2 0.16c82.192 0 148.79-66.855 148.79-149.048s-66.631-148.758-148.822-148.758h-68.014l-0.16-86.8h68.208c129.909 0 235.59 105.681 235.59 235.59 0 126.945-100.911 230.756-226.697 235.429z" />
<glyph unicode="&#xe904;" glyph-name="chevron-right" d="M779.36 407.842l-500.371-500.371c-6.378-6.378-16.080-6.378-22.49 0s-6.378 16.080 0 22.49l477.881 477.881-477.978 477.978c-6.378 6.378-6.378 16.080 0 22.49s16.080 6.378 22.49 0l500.467-500.467z" />
<glyph unicode="&#xe905;" glyph-name="code" d="M235.106 623.811l45.3-45.3-170.152-170.668 170.152-170.668-45.3-45.3-216.483 215.968 216.483 215.968zM795.921 191.877l-45.3 45.3 170.152 170.668-170.152 170.668 45.3 45.3 216.483-215.968-216.483-215.968zM610.658 794.478h67.47l-257.756-773.27h-67.47l257.756 773.27z" />
<glyph unicode="&#xe906;" glyph-name="upload" d="M260.657 362.284c5.174-11.228 16.333-18.878 29.277-18.878 0.015 0 0.030 0 0.045 0h128.876v-418.855c0-17.783 14.434-32.217 32.217-32.217h128.878c17.783 0 32.217 14.434 32.217 32.217v418.855h128.878c12.956 0.011 24.118 7.654 29.236 18.68l0.082 0.198c5.283 11.533 3.221 25-5.091 34.542l-225.537 257.756c-5.92 6.771-14.568 11.021-24.215 11.021-0.006 0-0.012 0-0.017 0h0.001c-9.279 0-18.11-4.060-24.232-11.021l-225.537-257.756c-8.376-9.471-10.31-23.002-5.091-34.542zM161.098 601.161v193.318h708.832v-193.318h128.878v257.756c0 35.637-28.868 64.441-64.441 64.441h-837.709c-35.637 0-64.441-28.804-64.441-64.441v-257.756h128.878z" />
<glyph unicode="&#xe907;" glyph-name="openapi" d="M272.487 330.424h-272.117v-14.914c0-2.947 0.457-5.893 0.738-9.206v-2.025q0.457-4.881 1.104-9.853v-0.921c0-3.495 0.921-6.998 1.378-10.493 3.605-24.779 8.516-46.545 14.928-67.666l-0.843 3.225 3.038-9.944v-1.104c0.921-2.947 1.934-5.893 3.038-9.206l0.83-2.208 2.764-7.736 1.287-3.495 2.483-6.351 3.495-3.959 2.117-4.972 2.672-6.076 1.751-4.051 3.404-7.272 1.104-2.3 4.051-8.285 0.647-1.196 4.789-9.206 1.104-1.843 233.178 140.569c-8.582 17.613-14.584 38.090-16.866 59.675l-0.069 0.806zM13.257 205.687l0.091-0.274 8.747 2.764-8.84-2.483zM339.318 205.504l-192.305-192.305 2.947-2.764 5.429-4.789 2.764-2.483 8.285-6.998 7.546-5.711 0.921-0.738 8.193-6.351q17.308-12.982 35.811-24.214l1.287-0.738 7.546-4.789 4.325-2.483 4.142-2.3 7.455-4.417h1.013c6.998-3.685 14.087-6.998 21.176-10.31l6.815 16.478 96.384 234.098v0.83c-11.296 6.139-21.028 12.757-30.039 20.225l0.305-0.245zM319.434 224.651c-2.025 2.3-4.051 4.698-5.985 7.089s-3.404 4.234-4.972 6.442-3.589 4.972-5.338 7.546-3.404 5.155-4.972 7.736l-232.717-140.293c3.589-5.893 7.272-11.688 11.14-17.399v-1.196l0.921-1.378q6.076-9.206 12.427-17.582l5.612-7.363 0.738-0.921 5.985-7.455 3.312-2.855 5.521-6.533 2.483-2.764 4.789-5.429 2.764-2.947 1.196-1.378 3.589-3.868 1.47-1.47 6.442-6.625 191.937 191.937c-2.217 2.113-4.292 4.303-6.25 6.596l-0.1 0.12zM573.785 205.595l-6.442-4.972 0.457-0.83 139.925-232.257c6.442 4.234 12.891 8.559 19.15 13.165 14.597 10.827 27.411 21.475 39.612 32.773l-0.301-0.275-192.398 192.398zM690.053-43.508v0zM689.96-43.6h0.091l-0.366 0.556 0.274-0.556zM689.868-43.692v0zM690.42-43.324v0zM692.261-42.312v0zM689.776-43.692v0zM687.474-34.394l-4.789 7.919-130.627 216.885c-2.672-1.568-5.338-3.038-8.010-4.508s-5.429-2.855-8.285-4.142c-23.269-11.361-50.622-18.006-79.533-18.006-18.807 0-36.961 2.814-54.061 8.040l1.306-0.342c-2.947 0.921-5.802 2.025-8.65 3.038s-5.802 1.934-8.65 3.038l-103.472-250.853h1.568l6.815-2.581 8.559-3.312 4.417-1.66c26.802-9.827 58.26-17.622 90.793-22.013l2.364-0.26 3.685-0.457h3.868l7.363-0.83h1.843l9.206-0.738h3.038l7.919-0.457h22.371c26.772 0.017 52.995 2.325 78.493 6.746l-2.734-0.389h1.287l12.427 2.3 12.427 2.672h1.378c41.523 9.853 78.043 23.888 112.007 42.077l-2.458-1.202 14.727 8.285 5.521 3.13 1.843 1.104-3.959 6.533zM339.504 492.074l6.442 4.972-0.457 0.83-139.925 232.257c-6.533-4.234-12.891-8.65-19.242-13.257-14.563-10.78-27.348-21.402-39.512-32.676l0.294 0.269 192.398-192.398zM133.757 671.674c-2.208-2.208-4.234-4.417-6.351-6.625l-6.351-6.625c-13.412-14.472-26.133-30.143-37.797-46.621l-0.961-1.427-1.66-2.391-3.868-5.711-3.959-6.076-1.47-2.208c-41.514-64.319-67.472-142.173-70.855-225.842l-0.028-0.892v-18.412h270.828v9.206c0 3.038 0 6.168 0.457 9.206 3.832 37.962 18.66 71.877 41.214 99.179l-0.248-0.309c1.934 2.391 4.142 4.599 6.168 6.815s3.959 4.599 6.168 6.815l-191.293 191.937zM693.827 739.152l-1.104 0.647-7.18 4.325-8.467 4.789-8.559 4.599c-13.14 7.094-29.273 14.493-45.883 20.941l-3.093 1.057-1.287 0.457-10.957 3.959c-26.303 9.542-57.201 17.151-89.143 21.465l-2.36 0.259-3.777 0.556h-3.777l-7.363 0.83h-2.025l-9.206 0.738h-14.914v-272.117c15.313-1.69 29.279-4.93 42.563-9.61l-1.321 0.404 200.222 200.222c-7.089 6.723-14.635 11.688-22.371 16.478zM225.813 732.064v0zM447.484 805.249h-9.206c-20.99-0.854-40.745-2.963-60.079-6.278l2.731 0.384h-1.287l-12.427-2.3-12.427-2.672h-1.378c-41.615-10.090-78.175-24.372-112.15-42.813l2.417 1.2-14.727-8.285-5.985-3.404-1.568-0.921 4.789-7.919 135.414-224.708c2.672 1.568 5.338 3.038 8.010 4.508s5.429 2.855 8.285 4.142c17.692 8.642 38.264 14.678 59.954 16.962l0.803 0.068 9.206 0.738h9.206v271.565l-9.572-0.274zM912.735 371.297v10.957c0 2.855 0 5.711-0.738 8.559v2.208q-0.457 4.789-1.013 9.206v1.568q-0.647 5.155-1.378 10.31c-3.567 24.772-8.453 46.542-14.827 67.671l0.839-3.23q-1.47 4.881-3.038 9.757v1.287c-0.921 2.947-1.934 5.893-2.947 9.206l-0.83 2.391-2.764 7.546-1.378 3.589-2.483 6.259-4.051 9.757-2.672 6.168-1.568 3.495-3.404 7.363-1.104 2.208-4.142 8.376-0.647 1.196-4.789 9.206c-9.048 16.59-17.644 30.37-26.931 43.627l0.973-1.462-200.314-200.314c4.278-11.965 7.518-25.927 9.129-40.386l0.077-0.854h270.185c-0.091 1.66-0.091 2.947-0.183 4.325zM641.815 348.834v-9.206c0-3.038 0-6.168-0.457-9.206-3.832-37.962-18.66-71.877-41.214-99.179l0.248 0.309c-1.934-2.391-4.142-4.599-6.168-6.815s-3.959-4.599-6.168-6.815l191.937-191.937c2.208 2.208 4.234 4.417 6.351 6.625l6.351 6.625c13.444 14.522 26.198 30.255 37.884 46.799l0.965 1.436 1.378 1.934 4.234 6.168 3.685 5.612 1.751 2.764c41.428 64.279 67.32 142.072 70.672 225.667l0.028 0.884v18.412l-271.474-0.091zM993.93 886.074c-23.007 23.028-54.808 37.276-89.936 37.276-70.21 0-127.13-56.917-127.13-127.13 0-20.592 4.897-40.041 13.585-57.247l-0.331 0.73-276.997-276.997c-16.478 8.358-35.929 13.257-56.522 13.257-70.21 0-127.13-56.917-127.13-127.13s56.917-127.13 127.13-127.13c70.21 0 127.13 56.917 127.13 127.13 0 20.594-4.898 40.044-13.588 57.252l0.331-0.73 276.997 276.997c16.477-8.357 35.926-13.254 56.517-13.254 70.21 0 127.13 56.917 127.13 127.13 0 35.080-14.211 66.843-37.185 89.845l0.001-0.001z" />
<glyph unicode="&#xe908;" glyph-name="play" d="M262.847-91.497l605.31 482.844c9.99 8.056 9.99 24.84 0 32.896l-605.31 482.94c-7.217 5.77-18.046 7.409-27.421 4.316-1.966-0.615-3.509-1.351-4.54-1.966-6.801-3.708-11.149-10.829-11.149-18.558v-966.395c0-7.736 4.22-14.851 11.149-18.558 1.127-0.615 2.677-1.351 4.444-1.966 9.471-2.997 20.3-1.351 27.517 4.444z" />
<glyph unicode="&#xe909;" glyph-name="chevron-left" d="M251.668 407.842l500.371 500.371c6.378 6.378 16.080 6.378 22.49 0s6.378-16.080 0-22.49l-477.881-477.881 477.978-477.978c6.378-6.378 6.378-16.080 0-22.49s-16.080-6.378-22.49 0l-500.467 500.467z" />
<glyph unicode="&#xe90a;" glyph-name="chevron-down" d="M515.512 143.996l-500.371 500.371c-6.378 6.378-6.378 16.080 0 22.49s16.080 6.378 22.49 0l477.881-477.881 477.978 477.978c6.378 6.378 16.080 6.378 22.49 0s6.378-16.080 0-22.49l-500.467-500.467z" />
<glyph unicode="&#xe90b;" glyph-name="chevron-up" d="M515.512 671.688l500.371-500.371c6.378-6.378 6.378-16.080 0-22.49s-16.080-6.378-22.49 0l-477.881 477.881-477.978-477.978c-6.378-6.378-16.080-6.378-22.49 0s-6.378 16.080 0 22.49l500.467 500.467z" />
<glyph unicode="&#xe90c;" glyph-name="duplicate" d="M64.441 601.161v-708.832h579.953v708.832h-579.953zM515.512 21.207h-322.196v451.075h322.196v-451.075zM386.635 923.356v-257.756h128.878v128.878h322.196v-451.075h-128.878v-128.878h257.756v708.832z" />
<glyph unicode="&#xe90d;" glyph-name="download" d="M770.371 453.401c-5.174 11.228-16.333 18.878-29.277 18.878-0.015 0-0.030 0-0.045 0h-128.876v418.855c0 17.783-14.434 32.217-32.217 32.217h-128.878c-17.783 0-32.217-14.434-32.217-32.217v-418.855h-128.878c-12.956-0.011-24.118-7.654-29.236-18.68l-0.082-0.198c-5.283-11.533-3.221-25 5.091-34.542l225.537-257.756c5.92-6.771 14.568-11.021 24.215-11.021 0.006 0 0.012 0 0.017 0h-0.001c9.279 0 18.11 4.060 24.232 11.021l225.537 257.756c8.376 9.471 10.31 23.002 5.091 34.542zM869.93 214.527v-193.318h-708.832v193.318h-128.878v-257.756c0-35.637 28.868-64.441 64.441-64.441h837.709c35.637 0 64.441 28.804 64.441 64.441v257.756h-128.878z" />
<glyph unicode="&#xe90e;" glyph-name="menu-8" d="M1031.028 665.598h-1031.028v171.838h1031.028v-171.838zM1031.028 493.762h-1031.028v-171.838h1031.028v171.838zM1031.028 150.086h-1031.028v-171.838h1031.028v171.838z" />
<glyph unicode="&#xe90f;" glyph-name="simple-remove" d="M1039.147 858.41l-64.945 64.945-454.627-462.745-454.627 462.745-64.945-64.945 462.745-454.627-462.745-454.627 64.945-64.945 454.627 462.745 454.627-462.745 64.945 64.945-462.745 454.627z" />
<glyph unicode="&#xe910;" glyph-name="search-filter-add" horiz-adv-x="1091" d="M303.243 680.762v242.595h-60.648v-242.595h-242.595v-60.648h242.595v-242.595h60.648v242.595h242.595v60.648zM424.541 498.817v-90.973l242.595-230.465v-285.049h181.947v285.049l242.595 230.465v90.973h-667.135zM788.432 195.57v-242.595h-60.648v242.595l-242.595 224.4v18.197h545.838v-18.197l-242.595-224.4z" />
<glyph unicode="&#xe911;" glyph-name="brackets" d="M930.507 566.181v167.219c0 152.586-198.981 157.349-244.95 153.974v-98.53c64.088-2.070 116.528-42.613 116.528-90.097v-185.916c0-40.495 28.653-75.966 71.682-96.154-43.029-20.19-71.682-55.65-71.682-96.148v-185.923c0-47.481-52.438-88.022-116.528-90.092v0-98.535c45.969-3.367 244.95 1.392 244.95 153.979v167.212c0 0-7.135 107.374 95.125 107.374v84.261c-102.259 0-95.125 107.369-95.125 107.369zM100.528 733.4v-167.219c0 0 7.135-107.369-95.132-107.369v-84.261c102.266 0 95.132-107.374 95.132-107.374v-167.212c0-152.586 198.981-157.35 244.95-153.979v98.535c-64.088 2.070-116.528 42.608-116.528 90.092v185.923c0 40.495-28.653 75.961-71.682 96.148 43.029 20.19 71.682 55.655 71.682 96.154v185.916c0 47.481 52.438 88.027 116.528 90.097v98.53c-45.969 3.372-244.95-1.386-244.95-153.974z" />
<glyph unicode="&#xe912;" glyph-name="open" d="M266.924 652.825c-41.276 0-74.738-33.462-74.738-74.74v-491.147c0-41.277 33.461-74.74 74.738-74.74h491.133c41.277 0 74.74 33.462 74.74 74.74v170.834c0 17.69 14.341 32.031 32.031 32.031s32.027-14.341 32.027-32.031v-170.834c0-76.657-62.141-138.803-138.798-138.803h-491.133c-76.657 0-138.799 62.145-138.799 138.803v491.147c0 76.659 62.143 138.803 138.799 138.803h170.829c17.69 0 32.031-14.341 32.031-32.031s-14.341-32.031-32.031-32.031h-170.829zM555.196 684.856c0 17.69 14.341 32.031 32.031 32.031h277.617c17.69 0 32.031-14.341 32.031-32.031v-277.604c0-17.69-14.341-32.031-32.031-32.031s-32.031 14.341-32.031 32.031v200.271l-222.938-222.923c-12.509-12.505-32.787-12.505-45.296 0.004s-12.509 32.791 0 45.299l222.942 222.923h-200.294c-17.69 0-32.031 14.341-32.031 32.031z" />
<glyph unicode="&#xe913;" glyph-name="edit" d="M976.239 784.157c-63.795 63.789-167.213 63.791-231.005 0.005l-631.033-630.975c-15.449-15.447-27.088-34.279-33.996-55.005l-78.014-234.041c-5.111-15.334-1.12-32.23 10.307-43.665 11.427-11.426 28.331-15.411 43.662-10.308l234.047 78.020c20.72 6.903 39.548 18.543 54.992 33.988l631.031 630.969c63.795 63.79 63.795 167.219 0.009 231.012zM805.571 723.82c30.466 30.464 79.856 30.463 110.32-0.003 30.473-30.467 30.473-79.863 0-110.329l-62.612-62.607-110.327 110.327 62.618 62.612zM682.61 600.87l110.327-110.327-508.075-508.028c-6.077-6.076-13.486-10.658-21.64-13.372l-153.093-51.029 51.029 153.083c2.719 8.157 7.299 15.568 13.379 21.647l508.073 508.026z" />
<glyph unicode="&#xe91b;" glyph-name="magnifier" d="M581.5 910.984c-30.93-8.248-57.736-20.62-84.543-35.054-24.744-16.496-49.488-35.054-70.108-55.674-20.62-22.682-39.178-45.364-55.674-72.17-14.434-26.806-26.806-53.612-35.054-84.543s-12.372-61.86-12.372-94.854c0-41.24 6.186-82.481 20.62-119.599s35.054-74.232 61.86-105.164l-393.852-395.915c-6.186-6.186-10.31-14.434-10.31-22.682s4.124-16.496 10.31-22.682c6.186-6.186 14.434-10.31 22.682-10.31s16.496 4.124 22.682 10.31l391.79 393.852c32.992-26.806 68.046-47.426 105.164-61.86 39.178-14.434 78.357-20.62 119.599-20.62 32.992 0 63.922 4.124 94.854 12.372s57.736 20.62 84.543 35.054c26.806 14.434 49.488 32.992 72.17 55.674 20.62 22.682 39.178 45.364 55.674 72.17 14.434 26.806 26.806 53.612 35.054 84.543s12.372 61.86 12.372 94.854c0 32.992-4.124 63.922-12.372 94.854s-20.62 57.736-35.054 84.543c-14.434 24.744-32.992 49.488-53.612 72.17-20.62 20.62-45.364 39.178-72.17 55.674-26.806 14.434-53.612 26.806-84.543 35.054s-61.86 12.372-94.854 12.372-63.922-4.124-94.854-12.372zM562.942 302.678c-35.054 14.434-65.984 35.054-92.792 61.86s-47.426 57.736-61.86 92.792c-14.434 35.054-22.682 72.17-22.682 113.413 0 39.178 8.248 78.357 22.682 113.413s35.054 65.984 61.86 92.792 57.736 47.426 92.792 61.86c35.054 14.434 72.17 22.682 113.413 22.682s78.357-8.248 113.413-22.682c35.054-18.558 65.984-39.178 90.73-65.984s47.426-55.674 63.922-90.73c14.434-35.054 22.682-72.17 22.682-113.413 0-39.178-8.248-78.357-22.682-113.413s-35.054-65.984-61.86-92.792-57.736-47.426-92.792-61.86c-35.054-14.434-72.17-22.682-113.413-22.682s-76.295 8.248-113.413 24.744z" />
<glyph unicode="&#xe91c;" glyph-name="plus" d="M964.589 409.84h-453.072v-453.072h-60.445v453.072h-453.072v60.445h453.072v453.072h60.445v-453.072h453.072v-60.445z" />
<glyph unicode="&#xe91d;" glyph-name="option-horizontal" d="M1031.028 108.199c0-56.931-46.171-103.102-103.102-103.102s-103.102 46.171-103.102 103.102c0 56.931 46.171 103.102 103.102 103.102s103.102-46.171 103.102-103.102zM618.617 108.199c0-56.931-46.171-103.102-103.102-103.102s-103.102 46.171-103.102 103.102c0 56.931 46.171 103.102 103.102 103.102s103.102-46.171 103.102-103.102zM206.205 108.199c0-56.931-46.171-103.102-103.102-103.102s-103.102 46.171-103.102 103.102c0 56.931 46.171 103.102 103.102 103.102s103.102-46.171 103.102-103.102z" />
<glyph unicode="&#xe91e;" glyph-name="drag-handle" d="M515.512 923.356c56.931 0 103.102-46.171 103.102-103.102s-46.171-103.102-103.102-103.102c-56.931 0-103.102 46.171-103.102 103.102s46.171 103.102 103.102 103.102zM515.512 510.945c56.931 0 103.102-46.171 103.102-103.102s-46.171-103.102-103.102-103.102c-56.931 0-103.102 46.171-103.102 103.102s46.171 103.102 103.102 103.102zM515.512 98.536c56.931 0 103.102-46.171 103.102-103.102s-46.171-103.102-103.102-103.102c-56.931 0-103.102 46.171-103.102 103.102s46.171 103.102 103.102 103.102z" />
<glyph unicode="&#xe91f;" glyph-name="eye" horiz-adv-x="1447" d="M197.346 256.604l0.448-1.159-0.448-1.383v2.542zM923.801 190.91c0 111.383-90.633 202.017-202.017 202.017s-202.017-90.633-202.017-202.017 90.633-202.017 202.017-202.017 202.017 90.633 202.017 202.017zM847.505 190.91c0-69.337-56.417-125.753-125.753-125.753s-125.753 56.417-125.753 125.753c0 69.337 56.417 125.753 125.753 125.753s125.753-56.417 125.753-125.753zM1094.406 521.062c-99.783 86.476-232.142 134.098-372.62 134.098s-272.835-47.619-372.62-134.098c-101.331-87.831-157.167-205.077-157.167-330.122h76.262c0 213.906 203.435 387.956 453.491 387.956s453.491-174.050 453.491-387.956h76.262c0 125.045-55.835 242.291-157.167 330.122z" />
<glyph unicode="&#xe920;" glyph-name="eye-fill" horiz-adv-x="1447" d="M206.431 259.213l0.416-1.127-0.416-1.383v2.51zM721.783 382.067c-103.49 0-187.389-83.901-187.389-187.389s83.901-187.389 187.389-187.389c103.49 0 187.389 83.901 187.389 187.389s-83.901 187.389-187.389 187.389zM721.783 650.876c-287.044 0-520.603-204.627-520.603-456.198h74.943c0 210.2 199.922 381.222 445.662 381.222s445.662-171.022 445.662-381.222h74.943c0 251.57-233.528 456.198-520.603 456.198z" />
<glyph unicode="&#xe921;" glyph-name="tag" horiz-adv-x="1447" d="M608.596-128.002l-422.528 422.528 649.16 649.16h422.528v-422.528l-649.16-649.16zM300.802 294.526l307.794-307.794 568.032 568.032v307.794h-307.794l-568.032-568.032zM1014.308 781.397c-44.82 0-81.161-36.341-81.161-81.161s36.341-81.161 81.161-81.161 81.161 36.341 81.161 81.161-36.341 81.161-81.161 81.161z" />
<glyph unicode="&#xe922;" glyph-name="trash" d="M902.149 730.039h-64.441v-741.051c0-13.435-2.51-25.999-7.537-37.763s-11.924-21.971-20.652-30.706c-8.732-8.732-18.976-15.593-30.706-20.652s-24.328-7.537-37.763-7.537h-515.512c-13.435 0-25.999 2.51-37.763 7.537s-21.971 11.924-30.706 20.652c-8.732 8.732-15.593 18.976-20.652 30.706s-7.537 24.328-7.537 37.763v741.051h-64.441v64.441h257.756v64.441c0 9.055 1.678 17.463 5.027 25.164s7.96 14.53 13.854 20.396c5.866 5.866 12.66 10.502 20.396 13.854s16.112 5.027 25.164 5.027h193.318c9.055 0 17.463-1.678 25.164-5.027s14.53-7.96 20.396-13.854c5.866-5.866 10.502-12.66 13.854-20.396s5.027-16.112 5.027-25.164v-64.441h257.756v-64.441zM386.635 794.478h193.318v64.441h-193.318v-64.441zM773.27 730.039h-579.953v-741.051c0-8.732 3.189-16.272 9.567-22.65s13.922-9.567 22.65-9.567h515.512c8.732 0 16.272 3.189 22.65 9.567s9.567 13.922 9.567 22.65v741.051zM386.635 85.645h-64.441v515.512h64.441v-515.512zM515.512 85.645h-64.441v515.512h64.441v-515.512zM644.392 85.645h-64.441v515.512h64.441v-515.512z" />
<glyph unicode="&#xe923;" glyph-name="search-filter" horiz-adv-x="1447" d="M866.16-60.953h-288.494v421.69l-360.601 399.427v116.506h1009.697v-116.506l-360.601-399.427v-421.69zM649.805 11.155h144.247v377.259l360.601 399.459v16.624h-865.483v-16.624l360.601-399.459v-377.259z" />
<glyph unicode="&#xe984;" glyph-name="spinner11" d="M1029.015 511.31h-385.88l144.233 144.233c-72.885 72.881-169.787 113.020-272.859 113.020s-199.975-40.139-272.859-113.020c-72.881-72.885-113.020-169.787-113.020-272.859s40.139-199.975 113.020-272.859c72.885-72.881 169.787-113.020 272.859-113.020s199.975 40.139 272.857 113.022c6.086 6.084 11.92 12.352 17.541 18.758l96.791-84.695c-94.306-107.691-232.798-175.714-387.191-175.714-284.154 0-514.506 230.353-514.506 514.506s230.353 514.506 514.506 514.506c142.078 0 270.687-57.606 363.789-150.719l150.719 150.719v-385.88z" />
<glyph unicode="&#xe9b7;" glyph-name="power-cord" d="M1027.006 587.747l-90.772 90.766-179.271-179.277-101.797 101.799 179.275 179.275-90.766 90.766-179.275-179.275-115.084 115.086-86.881-86.879 513.504-513.502 86.879 86.877-115.088 115.088 179.277 179.275zM796.371 195.308l-445.127 445.127c-96.1-115.241-205.12-293.312-129.776-446.523l-132.636-132.636c-31.202-31.204-31.202-82.264 0-113.469l14.903-14.903c31.204-31.204 82.266-31.204 113.471 0l132.634 132.632c153.212-75.353 331.288 33.665 446.533 129.77z" />
<glyph unicode="&#xea0c;" glyph-name="info" d="M450.634 604.48c0 26.556 21.726 48.282 48.282 48.282h32.186c26.556 0 48.282-21.726 48.282-48.282v-32.186c0-26.556-21.726-48.282-48.282-48.282h-32.186c-26.556 0-48.282 21.726-48.282 48.282v32.186zM643.763 137.752h-257.504v64.378h64.378v193.129h-64.378v64.378h193.129v-257.504h64.378zM515.009 910.267c-284.432 0-515.009-230.578-515.009-515.009s230.578-515.009 515.009-515.009 515.009 230.578 515.009 515.009-230.578 515.009-515.009 515.009zM515.009-23.189c-231.101 0-418.446 187.345-418.446 418.446s187.345 418.446 418.446 418.446 418.446-187.345 418.446-418.446-187.345-418.446-418.446-418.446z" />
</font>
</defs>
</svg>
