<?xml version="1.0" standalone="no"?>
<!DOCTYPE svg PUBLIC "-//W3C//DTD SVG 1.1//EN" "http://www.w3.org/Graphics/SVG/1.1/DTD/svg11.dtd" >
<svg xmlns="http://www.w3.org/2000/svg">
<defs>
  <font id="paperbits" horiz-adv-x="256">
    <font-face font-family="paperbits"
      units-per-em="256" ascent="256"
      descent="0" />
    <missing-glyph horiz-adv-x="0" />
    <glyph glyph-name="chat-45"
      unicode="&#xEA02;"
      horiz-adv-x="256" d="M0 160L0 64L26.5 64L53 64L53 32.5C53 15.175 53.233 1 53.517 1C53.802 1 73.833 15.175 98.032 32.5L142.028 64L199.014 64L256 64L256 160L256 256L128 256L0 256L0 160M234.5 160L234.5 85.5L184.672 85.241L134.845 84.981L105.487 63.991C89.34 52.446 75.875 43 75.565 43C75.254 43 75 52.45 75 64L75 85L48 85L21 85L21 160.005L21 235.009L127.75 234.755L234.5 234.5L234.5 160" />
    <glyph glyph-name="layout-11"
      unicode="&#xEA03;"
      horiz-adv-x="256" d="M21 181.5L21 107L69 107L117 107L117 181.5L117 256L69 256L21 256L21 181.5M139 213.5L139 171L187 171L235 171L235 213.5L235 256L187 256L139 256L139 213.5M96 181.5L96 128L69.5 128L43 128L43 181.5L43 235L69.5 235L96 235L96 181.5M213 213.5L213 192L186.5 192L160 192L160 213.5L160 235L186.5 235L213 235L213 213.5M139 74.5L139 0L187 0L235 0L235 74.5L235 149L187 149L139 149L139 74.5M213 74.5L213 21L186.5 21L160 21L160 74.5L160 128L186.5 128L213 128L213 74.5M21 42.5L21 0L69 0L117 0L117 42.5L117 85L69 85L21 85L21 42.5M96 42.5L96 21L69.5 21L43 21L43 42.5L43 64L69.5 64L96 64L96 42.5" />
    <glyph glyph-name="action-74"
      unicode="&#xEA08;"
      horiz-adv-x="256" d="M119 234.455C61.525 222.69 11.297 212.358 7.382 211.494L0.265 209.922L2.398 199.711C4 192.04 4.9 189.552 6.015 189.707C9.104 190.139 230.515 235.294 230.833 235.557C231.152 235.821 228.409 250.615 227.367 254.25C227.091 255.213 226.108 255.965 225.183 255.922C224.257 255.879 176.475 246.219 119 234.455M11 85.5L11 0L128 0L245 0L245 85.5L245 171L128 171L11 171L11 85.5M224 85L224 21L128 21L32 21L32 85L32 149L128 149L224 149L224 85M96 85.583C96 57.762 96.192 35 96.426 35C97.158 35 177.428 83.206 178.795 84.467C179.967 85.548 154.11 101.744 100.782 133.333L96 136.165L96 85.583M126.861 92.83C131.613 89.986 136.317 87.11 137.316 86.439C138.931 85.354 138.009 84.54 129.02 79.109C123.458 75.749 118.478 73 117.953 73C117.4 73 117 78.24 117 85.5C117 92.375 117.275 98 117.611 98C117.947 98 122.11 95.673 126.861 92.83" />
    <glyph glyph-name="align-center"
      unicode="&#xEA09;"
      horiz-adv-x="256" d="M0 224L0 213L128 213L256 213L256 224L256 235L128 235L0 235L0 224M53 160L53 148.987L127.75 149.244L202.5 149.5L202.5 160L202.5 170.5L127.75 170.756L53 171.013L53 160M0 96L0 85L128 85L256 85L256 96L256 107L128 107L0 107L0 96M53 32L53 20.987L127.75 21.244L202.5 21.5L202.5 32L202.5 42.5L127.75 42.756L53 43.013L53 32" />
    <glyph glyph-name="align-justify"
      unicode="&#xEA0A;"
      horiz-adv-x="256" d="M0 224L0 213L128 213L256 213L256 224L256 235L128 235L0 235L0 224M0 160L0 149L128 149L256 149L256 160L256 171L128 171L0 171L0 160M0 96L0 85L128 85L256 85L256 96L256 107L128 107L0 107L0 96M0 32L0 21L128 21L256 21L256 32L256 43L128 43L0 43L0 32" />
    <glyph glyph-name="align-left-2"
      unicode="&#xEA0B;"
      horiz-adv-x="256" d="M0 224L0 213L128 213L256 213L256 224L256 235L128 235L0 235L0 224M0 160L0 149L74.5 149L149 149L149 160L149 171L74.5 171L0 171L0 160M0 96L0 85L128 85L256 85L256 96L256 107L128 107L0 107L0 96M0 32L0 21L74.5 21L149 21L149 32L149 43L74.5 43L0 43L0 32" />
    <glyph glyph-name="align-right-2"
      unicode="&#xEA0C;"
      horiz-adv-x="256" d="M0 224L0 213L128 213L256 213L256 224L256 235L128 235L0 235L0 224M107 160L107 149L181.5 149L256 149L256 160L256 171L181.5 171L107 171L107 160M0 96L0 85L128 85L256 85L256 96L256 107L128 107L0 107L0 96M107 32L107 21L181.5 21L256 21L256 32L256 43L181.5 43L107 43L107 32" />
    <glyph glyph-name="size"
      unicode="&#xEA0D;"
      horiz-adv-x="256" d="M11 229.5L11 203L21.5 203L32 203L32 219L32 235L74.5 235L117 235L117 128L117 21L90.5 21L64 21L64 10.5L64 0L128 0L192 0L192 10.5L192 21L165.5 21L139 21L139 128L139 235L181.5 235L224 235L224 219L224 203L234.5 203L245 203L245 229.5L245 256L128 256L11 256L11 229.5M192 149.5L192 139L181.5 139L171 139L171 128L171 117L181.5 117L192 117L192 106.5L192 96L202.5 96L213 96L213 106.466L213 116.932L223.75 117.216L234.5 117.5L234.5 128L234.5 138.5L223.75 138.784L213 139.068L213 149.534L213 160L202.5 160L192 160L192 149.5M11 128L11 116.972L42.75 117.236L74.5 117.5L74.5 128L74.5 138.5L42.75 138.764L11 139.028L11 128" />
    <glyph glyph-name="edit-2"
      unicode="&#xEA0E;"
      horiz-adv-x="256" d="M11 229.5L11 203L21.5 203L32 203L32 219L32 235L74.5 235L117 235L117 128L117 21L90.5 21L64 21L64 10.5L64 0L128 0L192 0L192 10.5L192 21L165.5 21L139 21L139 128L139 235L181.5 235L224 235L224 219L224 203L234.5 203L245 203L245 229.5L245 256L128 256L11 256L11 229.5" />
    <glyph glyph-name="code"
      unicode="&#xEA0F;"
      horiz-adv-x="256" d="M117.713 130.866C104.635 78.542 94.122 35.545 94.35 35.317C95.006 34.661 114.077 29.736 114.404 30.139C115.072 30.961 162.035 220.298 161.663 220.67C161.231 221.102 143.322 226 142.174 226C141.798 226 130.791 183.19 117.713 130.866M34.998 156.498L6.509 127.996L35.243 99.261L63.977 70.527L71.497 77.997L79.017 85.466L57.767 106.733L36.517 128L57.767 149.267L79.017 170.534L71.735 177.767C67.73 181.745 64.236 185 63.97 185C63.704 185 50.667 172.174 34.998 156.498M184.241 177.759L177 170.517L198.241 149.259L219.483 128L198.233 106.733L176.983 85.466L184.503 77.997L192.023 70.527L220.757 99.261L249.491 127.996L221.002 156.498C205.333 172.174 192.281 185 191.998 185C191.715 185 188.224 181.741 184.241 177.759" />
    <glyph glyph-name="list-bullet"
      unicode="&#xEA10;"
      horiz-adv-x="256" d="M22.365 243.969C20.64 243.437 17.055 241.539 14.398 239.751C-2.19 228.589 -4.757 206.276 8.872 191.706C14.243 185.964 18.366 183.672 26.25 182.045C36.911 179.845 47.277 183.313 55.128 191.706C69.929 207.529 65.396 232.016 45.795 242.129C40.955 244.627 27.839 245.656 22.365 243.969M37.712 222.034C46.127 216.903 42.077 203 32.167 203C21.783 203 17.567 216.717 26.311 222.048C30.356 224.515 33.65 224.511 37.712 222.034M85 213.5L85 203L170.5 203L256 203L256 213.5L256 224L170.5 224L85 224L85 213.5M24.734 158.97C15.404 156.627 7.095 149.89 2.812 141.193C0.946 137.404 0.5 134.862 0.5 128C0.5 117.879 2.692 112.466 9.579 105.579C20.752 94.406 37.733 92.939 50.421 102.051C71.042 116.86 67.331 147.659 43.744 157.47C38.969 159.456 29.609 160.195 24.734 158.97M37.64 136.827C41.998 134.694 43.693 127.533 41.022 122.541C40.301 121.193 38.18 119.364 36.308 118.476C25.798 113.489 16.426 127.153 24.689 135.416C28.256 138.983 32.328 139.427 37.64 136.827M85 128L85 117L170.5 117L256 117L256 128L256 139L170.5 139L85 139L85 128M26.054 73.838C10.784 71.376 -0.819 56.506 0.265 40.789C1.074 29.045 7.369 19.575 18.205 13.796C21.815 11.871 24.015 11.506 32 11.506C39.985 11.506 42.185 11.871 45.795 13.796C60.814 21.806 67.61 38.461 61.964 53.419C59.453 60.07 53.632 66.971 47.558 70.496C43.973 72.576 41.906 73.153 33.5 74.416C32.4 74.581 29.049 74.321 26.054 73.838M38.462 50.75C43.249 46.564 43.469 38.544 38.91 34.419C36.005 31.79 28.007 31.779 25.111 34.4C20.24 38.808 20.762 47.619 26.117 51.369C29.516 53.75 35.366 53.457 38.462 50.75M85 42.5L85 32L170.5 32L256 32L256 42.5L256 53L170.5 53L85 53L85 42.5" />
    <glyph glyph-name="list-numbers"
      unicode="&#xEA11;"
      horiz-adv-x="256" d="M17.607 239.418C15.933 235.055 16.884 233.267 21.5 232.104L26 230.971L26 212.599L26 194.227L21.5 193.552C17.17 192.903 17 192.748 17 189.439L17 186L33.5 186L50 186L50 189.383C50 192.917 48.479 193.955 43.25 193.986L41 194L41 217.5L41 241L29.607 241C20.141 241 18.111 240.733 17.607 239.418M75 213.5L75 203L165.5 203L256 203L256 213.5L256 224L165.5 224L75 224L75 213.5M20.02 153.75C14.602 150.981 12.021 147.577 11.307 142.254L10.761 138.181L17.383 137.841C23.684 137.516 24.004 137.609 24.002 139.75C23.999 143.104 27.44 146 31.429 146C35.741 146 38 143.793 38 139.579C38 135.313 34.74 130.994 22.107 118.519C12.106 108.642 12 108.488 12 103.769L12 99L34 99L56 99L56 108.5L56 118L51.019 118C46.4 118 45.994 117.8 45.426 115.25C43.966 108.689 44.411 109 36.477 109L29.09 109L38.542 118.144C49.78 129.016 53.545 135.471 52.752 142.507C51.684 151.979 45.716 155.942 32.462 155.978C26.068 155.996 23.523 155.54 20.02 153.75M75 128L75 117L165.5 117L256 117L256 128L256 139L165.5 139L75 139L75 128M25.037 73.885C19.723 72.27 16.387 69.423 14.614 64.993C12.19 58.935 12.464 57.002 15.75 56.989C17.262 56.983 20.187 56.699 22.249 56.358C25.823 55.768 26.027 55.883 26.619 58.847C27.578 63.642 31.878 65.757 36.837 63.872C39.928 62.697 40.964 61.305 40.985 58.297C41.026 52.405 36.935 48.653 29.105 47.401C25.024 46.748 25 46.718 25 42.372L25 38L30.865 38C38.407 38 42 35.536 42 30.362C42 25.713 40.702 23.534 37.027 22.011C32.949 20.322 26.508 21.423 21.618 24.645L17.736 27.203L14.128 23.594C9.812 19.278 10.318 17.742 17.224 14.188C27.172 9.068 41.375 9.125 49.188 14.316C54.166 17.623 57.265 24.339 56.601 30.376C55.913 36.627 53.772 39.826 48.911 41.867C46.771 42.765 45.033 43.725 45.049 44C45.064 44.275 46.522 45.402 48.289 46.505C57.498 52.256 57.094 67.502 47.604 72.355C43.055 74.682 30.468 75.535 25.037 73.885M75 42.5L75 32L165.5 32L256 32L256 42.5L256 53L165.5 53L75 53L75 42.5" />
    <glyph glyph-name="bold"
      unicode="&#xEA12;"
      horiz-adv-x="256" d="M21 245.572L21 235.068L31.75 234.784L42.5 234.5L42.719 127.75L42.937 21L31.969 21L21 21L21 10.459L21 -0.082L97.75 0.221L174.5 0.523L181.5 2.876C207.146 11.498 225.075 30.186 232.121 55.638C235.089 66.361 235.077 83.169 232.094 94.423C228.59 107.64 219.381 122.15 208.872 131.011C204.303 134.864 194.35 141.377 191.632 142.294C191.009 142.504 193.077 145.463 196.226 148.869C207.274 160.819 211.929 171.876 212.739 188.097C213.694 207.214 208.44 222.195 196.249 235.118C188.082 243.776 179.742 249.28 169.5 252.772L161.5 255.5L91.25 255.788L21 256.076L21 245.572M166.28 230.785C180.23 224.124 188.793 213.195 191.125 199.073C193.437 185.072 189.218 172.058 179.08 161.92C171.896 154.736 164.97 151.33 154.888 150.021C150.825 149.493 128.713 149.048 105.75 149.031L64 149L64 192.07L64 235.139L111.25 234.82L158.5 234.5L166.28 230.785M177.202 125.296C185.747 122.066 191.442 118.398 197.829 112.011C207.964 101.876 213.008 89.584 212.988 75.068C212.967 59.477 208.476 48.554 197.5 37.396C189.34 29.101 179.372 23.739 169 22.064C165.101 21.435 142.789 21.012 113.25 21.008L64 21L64 74.548L64 128.097L117.75 127.774C169.952 127.461 171.664 127.39 177.202 125.296" />
    <glyph glyph-name="audio-91"
      unicode="&#xEA13;"
      horiz-adv-x="256" d="M113.674 254.455C102.207 252.175 92.727 246.798 82.964 237.036C76.463 230.534 73.538 226.683 70.691 220.877C64.919 209.107 63.997 202.105 64.017 170.162C64.037 138.366 64.8 132.877 70.919 120.5C78.356 105.458 92.187 93.589 108.285 88.435C115.192 86.223 118.331 85.805 128 85.805C137.669 85.805 140.808 86.223 147.715 88.435C163.813 93.589 177.644 105.458 185.081 120.5C191.2 132.877 191.963 138.366 191.983 170.162C192.003 202.105 191.081 209.107 185.309 220.877C180.079 231.542 167.542 244.079 156.877 249.309C144.085 255.583 128.615 257.425 113.674 254.455M134.855 233.954C152.831 231.037 167.372 216.327 169.956 198.447C171.276 189.319 171.27 151.288 169.948 143C166.539 121.62 149.504 107 128 107C106.396 107 89.021 121.98 85.943 143.258C84.725 151.681 84.794 189.803 86.044 198.447C88.92 218.352 105.756 233.327 127 234.876C127.825 234.936 131.36 234.521 134.855 233.954M21.418 147.75C22.515 128.576 25.651 115.793 32.765 101.5C47.539 71.816 76.757 49.896 108.5 44.682L116.5 43.367L116.783 32.184L117.066 21L90.533 21L64 21L64 10.5L64 0L128 0L192 0L192 10.5L192 21L165.467 21L138.934 21L139.217 32.184L139.5 43.367L147.5 44.681C179.123 49.872 208.575 71.966 223.243 101.5C230.356 115.822 233.486 128.59 234.582 147.75L235.283 160L224.282 160L213.28 160L212.718 146.25C212.095 130.996 210.063 122.061 204.857 111.671C195.865 93.727 180.166 78.911 161.5 70.75C153.71 67.344 137.112 64 128 64C118.888 64 102.29 67.344 94.5 70.75C75.834 78.911 60.135 93.727 51.143 111.671C45.857 122.221 43.855 131.011 43.271 146.25L42.744 160L31.73 160L20.717 160L21.418 147.75" />
    <glyph glyph-name="quote"
      unicode="&#xEA14;"
      horiz-adv-x="256" d="M51.992 229.936C25.244 215.963 9.023 192.609 2.373 158.5C0.829 150.579 0.575 141.194 0.253 80.25L-0.112 11L53.451 11L107.015 11L106.757 74.75L106.5 138.5L64.25 138.761L22 139.022L22.001 142.261C22.002 144.042 22.674 149.312 23.494 153.972C28.223 180.845 40.455 199.441 60.762 210.627C64.468 212.669 67.611 214.411 67.746 214.499C67.987 214.656 60.279 233.054 59.751 233.582C59.604 233.729 56.112 232.089 51.992 229.936M200.376 229.471C175.508 216.509 158.995 193.332 152.556 162.351C149.745 148.825 149 129.561 149 70.355L149 11L202.5 11L256 11L256 75L256 139L213.42 139L170.841 139L171.541 145.75C172.708 157.013 176.706 170.981 181.631 181C187.574 193.093 198.544 204.543 209.75 210.351C213.738 212.418 217 214.32 217 214.577C217 216.669 209.377 233 208.401 233C207.71 233 204.099 231.412 200.376 229.471M85 74.5L85 32L53 32L21 32L21 74.5L21 117L53 117L85 117L85 74.5M235 74.5L235 32L203 32L171 32L171 74.5L171 117L203 117L235 117L235 74.5" />
    <glyph glyph-name="subscript"
      unicode="&#xEA15;"
      horiz-adv-x="256" d="M11 224L11 203L21.5 203L32 203L32 213.5L32 224L64 224L96 224L96 144L96 64L74.5 64L53 64L53 53.5L53 43L106.5 43L160 43L160 53.5L160 64L138.5 64L117 64L117 144L117 224L149 224L181 224L181 213.5L181 203L192 203L203 203L203 224L203 245L107 245L11 245L11 224M203 64.025L203 53L208 53L213 53L213 42.5L213 32L208 32L203 32L203 21.5L203 11L224 11L245 11L245 21.5L245 32L240.02 32L235.04 32L234.77 53.25L234.5 74.5L218.75 74.775L203 75.051L203 64.025" />
    <glyph glyph-name="superscript"
      unicode="&#xEA16;"
      horiz-adv-x="256" d="M213 234.5L213 224L218.5 224L224 224L224 213.5L224 203L218.5 203L213 203L213 192L213 181L234.5 181L256 181L256 192L256 203L250.5 203L245 203L245 224L245 245L229 245L213 245L213 234.5M0 192L0 171L10.5 171L21 171L21 181.5L21 192L53 192L85 192L85 112L85 32L64 32L43 32L43 21.5L43 11L96 11L149 11L149 21.5L149 32L128 32L107 32L107 112L107 192L139 192L171 192L171 181.5L171 171L181.5 171L192 171L192 192L192 213L96 213L0 213L0 192" />
    <glyph glyph-name="alert-circle-i"
      unicode="&#xEA17;"
      horiz-adv-x="256" d="M108.5 254.445C52.322 244.952 9.966 202.042 1.455 146C-4.588 106.211 9.673 64.918 39.355 36.262C89.301 -11.958 166.699 -11.958 216.645 36.262C269.023 86.829 268.891 168.914 216.351 220.158C188.519 247.304 146.082 260.795 108.5 254.445M139.047 233.947C155.39 232.27 173.266 225.796 187.91 216.251C195.179 211.513 211.571 195.089 216.36 187.746C224.311 175.554 230.359 160.394 233.033 145.956C234.762 136.619 234.49 117.016 232.5 107.5C222.7 60.647 185.467 26.777 138.509 22.001C107.75 18.872 77.618 29.17 55.12 50.5C33.239 71.244 21.825 97.587 21.759 127.5C21.709 149.564 27.489 169.131 39.487 187.515C44.409 195.057 60.729 211.453 68.09 216.251C85.279 227.455 105.094 233.809 126.144 234.867C127.598 234.94 133.404 234.526 139.047 233.947M123 190.727C119.573 189.023 116.658 182.833 117.493 179.031C118.443 174.706 123.291 171 128 171C130.655 171 132.777 171.783 134.85 173.527C144.279 181.461 134.095 196.244 123 190.727M96 138.5L96 128L106.5 128L117 128L117 106.5L117 85L106.5 85L96 85L96 74.5L96 64L128 64L160 64L160 74.5L160 85L149.5 85L139 85L139 117L139 149L117.5 149L96 149L96 138.5" />
    <glyph glyph-name="chat-45-2"
      unicode="&#xEA18;"
      horiz-adv-x="256" d="M0 160L0 64L26.5 64L53 64L53 32.5C53 15.175 53.233 1 53.517 1C53.802 1 73.833 15.175 98.032 32.5L142.028 64L199.014 64L256 64L256 160L256 256L128 256L0 256L0 160M234.5 160L234.5 85.5L184.672 85.241L134.845 84.981L105.487 63.991C89.34 52.446 75.875 43 75.565 43C75.254 43 75 52.45 75 64L75 85L48 85L21 85L21 160.005L21 235.009L127.75 234.755L234.5 234.5L234.5 160" />
    <glyph glyph-name="drop"
      unicode="&#xEA1A;"
      horiz-adv-x="256" d="M115.876 237.25C82.613 202.966 51.564 159.162 39.941 130.121C31.637 109.369 30.11 91.157 34.985 71C44.837 30.267 84.468 0.026 128 0.026C171.769 0.026 210.973 30.096 221.183 71.5C224.047 83.114 224.269 102.94 221.652 113.486C215.15 139.697 194.512 173.964 161.117 214C151.343 225.718 129.313 249 128 249C127.602 249 122.146 243.713 115.876 237.25M136.552 209.885C170.055 171.462 193.575 135.054 200.11 111.5C206.456 88.632 199.432 61.894 182.5 44.454C170.6 32.198 157.81 25.372 141.373 22.506C130.527 20.614 125.473 20.614 114.627 22.506C98.19 25.372 85.4 32.198 73.5 44.454C56.568 61.894 49.544 88.632 55.89 111.5C61.298 130.992 78.247 159.297 102.966 190.118C113.276 202.974 127.167 219 128 219C128.332 219 132.181 214.898 136.552 209.885M85.699 106.366C84.726 105.393 84.861 96.741 85.969 89.075C87.872 75.909 96.272 64.439 108.331 58.539C114.871 55.339 126.739 52.814 133.41 53.203L138.5 53.5L138.5 64L138.5 74.5L129.913 75C122.607 75.425 120.6 75.949 116.462 78.513C109.499 82.825 107.62 86.6 107.006 97.5L106.5 106.5L96.449 106.783C90.922 106.938 86.084 106.751 85.699 106.366" />
    <glyph glyph-name="database"
      unicode="&#xEA1B;"
      horiz-adv-x="256" d="M101.5 254.92C83.95 252.847 77.606 251.791 68.543 249.436C49.677 244.532 35.486 237.601 28.516 229.886C20.996 221.563 21.5 228.877 21.5 128L21.5 37.5L23.728 32.98C33.568 13.015 74.719 0 128 0C181.281 0 222.432 13.015 232.272 32.98L234.5 37.5L234.5 128C234.5 228.877 235.004 221.563 227.484 229.886C219.288 238.958 200.114 247.317 177 251.894C158.736 255.511 119.733 257.074 101.5 254.92M163 232.404C176.332 230.53 186.342 228.053 196.644 224.078C205.469 220.674 213 215.834 213 213.567C213 211.159 206.016 206.231 198.071 203.034C188.919 199.351 173.87 195.616 161 193.833C148.468 192.098 107.52 192.099 95 193.835C69.731 197.339 45.844 206.03 43.307 212.643C41.342 217.762 62.198 227.014 85 231.138C106.931 235.105 139.975 235.641 163 232.404M59 179.849C66.623 177.179 86.461 173.294 98.856 172.044C104.552 171.47 117.667 171 128 171C161.827 171 184.823 174.712 207.75 183.873L213 185.971L213 155.964L213 125.956L207.083 122.132C199.559 117.269 185.431 112.578 169.766 109.742C158.902 107.775 154.129 107.521 128 107.521C101.871 107.521 97.098 107.775 86.234 109.742C70.569 112.578 56.441 117.269 48.917 122.132L43 125.956L43 155.964L43 185.971L48.25 183.873C51.138 182.719 55.975 180.908 59 179.849M210.8 39.287C205.795 33.96 188.778 27.827 170 24.584C125.527 16.902 63.497 23.842 46.25 38.429L43 41.178L43 70.589C43 86.765 43.394 100 43.876 100C44.357 100 47.233 98.903 50.265 97.561C87.006 81.313 170.013 81.49 206.445 97.895L212.5 100.622L212.765 71.142C213.029 41.849 213.016 41.646 210.8 39.287" />
    <glyph glyph-name="m-location"
      unicode="&#xEA1D;"
      horiz-adv-x="256" d="M208.5 236.454C183.75 230.219 162.367 225.091 160.982 225.059C159.597 225.026 144.445 229.678 127.31 235.396L96.156 245.793L48.078 233.772L0 221.75L0 114.875C0 56.094 0.199 8 0.442 8C0.685 8 21.675 13.175 47.087 19.5C72.498 25.825 94.237 31 95.394 31C96.552 31 110.476 26.674 126.337 21.388C142.198 16.101 155.528 12.163 155.958 12.638C156.389 13.112 158.102 17.615 159.764 22.644L162.787 31.788L129.385 42.772L95.984 53.756L58.742 44.406C38.259 39.263 21.387 35.043 21.25 35.028C21.113 35.012 21 73.233 21 119.961L21 204.923L24.759 205.935C37.806 209.448 94.106 223 95.655 223C96.689 223 111.558 218.321 128.695 212.602L159.855 202.203L196.89 211.472C217.259 216.57 234.167 220.5 234.463 220.204C234.758 219.909 235 203.767 235 184.333L235 149L245.5 149L256 149L256 198.5C256 237.489 255.735 247.978 254.75 247.896C254.063 247.838 233.25 242.69 208.5 236.454M194.402 138.047C182.681 136.227 174.357 132.137 165.485 123.837C154.56 113.617 149.919 103.353 149.732 89C149.572 76.662 153.565 65.97 164.244 50.14C172.054 38.564 193.027 14.505 199.838 9.31L203.192 6.752L209.189 12.626C217.869 21.127 231.958 37.426 238.463 46.492C256.836 72.101 260.278 89.736 250.819 109.802C245.291 121.529 231.039 133.165 218.238 136.403C210.601 138.335 200.666 139.02 194.402 138.047M217.861 113.479C228.571 107.65 234.474 98.087 234.304 86.84C234.224 81.498 230.389 72.453 224.303 63.245C219.115 55.398 204.08 37.5 202.676 37.5C201.183 37.5 186.102 55.573 180.248 64.378C177.729 68.169 174.628 73.797 173.357 76.885C166.854 92.693 174.616 109.24 191.332 115.208C199.262 118.039 210.874 117.282 217.861 113.479M198.388 95.02C192.753 92.743 190.31 84.897 193.704 79.973C196.417 76.037 198.21 75.066 202.827 75.032C206.3 75.006 207.731 75.577 210.077 77.923C212.423 80.269 212.994 81.7 212.968 85.173C212.909 93.197 205.785 98.008 198.388 95.02" />
    <glyph glyph-name="mobile"
      unicode="&#xEA1F;"
      horiz-adv-x="256" d="M54.296 254.566C44.397 251.44 35.124 241.376 33.015 231.469C32.3 228.112 32.045 193.732 32.228 125.478L32.5 24.457L35.834 17.685C38.231 12.816 40.573 9.803 44.17 6.96C53.29 -0.249 51.205 -0.086 130.096 0.224C199.729 0.497 200.551 0.524 205.149 2.649C211.384 5.532 217.627 11.973 220.852 18.852L223.5 24.5L223.5 128.5L223.5 232.5L221 237.493C217.884 243.715 211.467 250.099 205.25 253.161L200.5 255.5L129.5 255.696C72.845 255.853 57.651 255.625 54.296 254.566M199.231 231.231L202.5 227.962L202.5 128L202.5 28.038L199.231 24.769L195.962 21.5L129.426 21.229C70.173 20.988 62.522 21.133 59.522 22.556C52.594 25.844 52.942 19.942 53.236 129.351L53.5 227.839L56 230.529C57.375 232.008 59.4 233.596 60.5 234.057C61.6 234.518 92.529 234.806 129.231 234.697L195.962 234.5L199.231 231.231M123 62.727C119.573 61.023 116.658 54.833 117.493 51.031C118.443 46.706 123.291 43 128 43C130.655 43 132.777 43.783 134.85 45.527C144.279 53.461 134.095 68.244 123 62.727" />
    <glyph glyph-name="desktop-screen"
      unicode="&#xEA20;"
      horiz-adv-x="256" d="M0 149L0 53L58.5 53L117 53L117 42.5L117 32L85 32L53 32L53 21.5L53 11L128 11L203 11L203 21.5L203 32L171 32L139 32L139 42.5L139 53L197.5 53L256 53L256 149L256 245L128 245L0 245L0 149M235 149.5L235 75L128 75L21 75L21 149.5L21 224L128 224L235 224L235 149.5" />
    <glyph glyph-name="mobile-landscape"
      unicode="&#xEA22;"
      horiz-adv-x="256" d="M22.296 222.562C12.406 219.448 3.129 209.383 1.012 199.469C0.306 196.164 0.043 171.389 0.225 125.478L0.5 56.456L3.834 49.685C6.231 44.816 8.573 41.803 12.17 38.96C21.483 31.599 15.648 31.932 130.069 32.232C232.484 32.5 232.501 32.5 237.149 34.649C243.384 37.532 249.627 43.973 252.852 50.852L255.5 56.5L255.5 128.5L255.5 200.5L253 205.493C249.884 211.715 243.467 218.099 237.25 221.161L232.5 223.5L129.5 223.693C46.421 223.848 25.687 223.629 22.296 222.562M231.231 199.231L234.5 195.962L234.5 128L234.5 60.038L231.231 56.769L227.962 53.5L129.413 53.236C19.935 52.942 25.844 52.594 22.556 59.522C21.133 62.521 20.988 70.168 21.229 129.365L21.5 195.84L24 198.529C25.375 200.008 27.4 201.594 28.5 202.054C29.6 202.513 74.929 202.801 129.231 202.694L227.962 202.5L231.231 199.231M49.378 137.539C42.479 134.59 40.797 126.497 45.898 120.789C53.194 112.622 66.448 120.473 63.386 131.148C61.766 136.798 54.936 139.914 49.378 137.539" />
    <glyph glyph-name="player-48"
      unicode="&#xEA23;"
      horiz-adv-x="256" d="M29.274 243.078C15.156 238.266 3.687 225.294 1.015 211.114C-0.359 203.822 -0.36 52.185 1.014 44.886C4.017 28.937 17.932 15.022 33.886 12.015C41.21 10.635 214.79 10.635 222.114 12.015C237.988 15.007 251.993 29.012 254.985 44.886C256.36 52.183 256.36 203.817 254.985 211.114C252.23 225.731 240.073 239.041 225.416 243.487C221.204 244.765 207.177 244.97 127.5 244.919C41.02 244.864 34.134 244.735 29.274 243.078M223.736 221.074C229.045 218.033 232.605 212.964 233.995 206.47C234.725 203.058 234.979 176.689 234.786 124.47L234.5 47.5L231.723 42.777C229.923 39.714 227.286 37.077 224.223 35.277L219.5 32.5L128.903 32.23L38.307 31.959L32.919 34.774C28.985 36.829 26.717 38.905 24.515 42.465L21.5 47.342L21.208 124.921C21.004 179.018 21.249 203.862 22.018 207C23.652 213.665 27.484 218.564 33.35 221.487L38.475 224.041L128.987 223.77L219.5 223.5L223.736 221.074M96 127.941C96 78.597 96.256 66.022 97.25 66.564C101.712 68.998 189 127.433 189 127.986C189 128.655 97.5 190 96.502 190C96.226 190 96 162.073 96 127.941M134.698 139.25C143.64 133.338 150.956 128.275 150.956 128C150.956 127.362 118.683 106 117.72 106C117.324 106 117 115.9 117 128C117 140.1 117.324 150 117.72 150C118.115 150 125.755 145.162 134.698 139.25" />
    <glyph glyph-name="tablet-2"
      unicode="&#xEA24;"
      horiz-adv-x="256" d="M31.5 253.955C24.789 251.35 17.517 244.908 14.21 238.638L11.5 233.5L11.5 128L11.5 22.5L14.203 17.377C17.654 10.833 24.708 4.627 31.64 2.033C36.958 0.044 39.026 0 128 0C218.641 0 218.943 0.007 224.681 2.154C232.471 5.068 239.939 12.549 242.864 20.367L245.036 26.172L244.768 129.836L244.5 233.5L242.137 238C238.744 244.462 230.893 251.522 224.401 253.951C219.025 255.963 217.266 255.999 127.712 255.948C39.879 255.898 36.315 255.824 31.5 253.955M217.466 233.579C224.377 230.691 224 236.783 224 128C224 19.217 224.377 25.309 217.466 22.421C212.392 20.301 43.608 20.301 38.534 22.421C31.623 25.309 32 19.217 32 128C32 236.407 31.655 230.64 38.315 233.536C43.121 235.627 212.469 235.667 217.466 233.579M123 62.727C119.573 61.023 116.658 54.833 117.493 51.031C118.443 46.706 123.291 43 128 43C130.655 43 132.777 43.783 134.85 45.527C144.279 53.461 134.095 68.244 123 62.727" />
    <glyph glyph-name="wifi-off"
      unicode="&#xEA25;"
      horiz-adv-x="256" d="M213.896 229.402L194.298 209.805L184.656 213.416C135.991 231.643 81.911 225.5 39.104 196.882C29.642 190.557 9.334 173.034 8.279 170.285C7.916 169.338 10.253 166.264 14.77 161.747L21.829 154.688L32.522 164.357C49.378 179.599 65.253 189.045 85.5 195.879C110.298 204.25 144.596 204.445 169.078 196.353C173.435 194.913 177 193.452 177 193.106C177 192.76 169.583 185.071 160.519 176.019L144.038 159.56L128.769 159.445C115.741 159.347 112.105 158.953 104 156.762C85.973 151.89 72.411 144.045 59.527 131.039L52.554 124L59.5 117C63.32 113.15 66.923 110 67.504 110C68.086 110 71.249 112.729 74.531 116.065C87.031 128.767 101.5 135.96 119.469 138.405C123.29 138.925 121.652 137.16 75.475 90.975L27.512 43.004L35.258 35.258L43.005 27.512L96.924 81.424L150.844 135.337L156.574 133.145C164.381 130.157 174.295 123.355 181.469 116.065C184.751 112.729 187.914 110 188.496 110C189.077 110 192.68 113.15 196.5 117L203.446 124L196.473 131.039C189.133 138.448 177.812 146.839 171.099 149.844L167.108 151.631L182.957 167.457L198.806 183.283L206.06 178.46C212.538 174.153 217.932 169.613 230.26 158.089L234.021 154.574L241.01 161.51C244.855 165.325 248 168.985 248 169.644C248 171.299 231.053 186.733 222.248 193.096C218.262 195.977 215 198.602 215 198.928C215 199.255 222.65 207.162 232 216.5C241.35 225.838 249 233.945 249 234.516C249 235.829 235.789 249 234.472 249C233.934 249 224.675 240.181 213.896 229.402M129.309 87.784L124.119 78.615L129.809 75.199C135.564 71.745 136.985 70.236 138.133 66.364C139.685 61.126 135.635 54.738 129.974 53.494C125.227 52.452 120.86 55.281 116.929 61.946L113.439 67.864L104.97 62.955C100.311 60.255 96.066 57.891 95.535 57.701C93.679 57.038 104.159 41.847 108.697 38.624C120.65 30.133 135.095 29.917 146.436 38.061C162.251 49.419 164.409 72.591 150.908 86.092C148.094 88.906 135.864 97.117 134.696 96.976C134.588 96.963 132.164 92.827 129.309 87.784" />
    <glyph glyph-name="wifi"
      unicode="&#xEA26;"
      horiz-adv-x="256" d="M110 222.904C82.939 219.883 54.265 208.429 32 191.744C23.256 185.192 8 171.148 8 169.651C8 168.989 11.126 165.344 14.948 161.552L21.895 154.658L31.198 163.195C48.764 179.315 64.104 188.618 84.292 195.39C98.735 200.235 111.557 202.246 128 202.246C144.443 202.246 157.265 200.235 171.708 195.39C191.896 188.618 207.236 179.315 224.802 163.195L234.105 154.658L241.052 161.552C244.874 165.344 248 168.989 248 169.651C248 171.148 232.744 185.192 224 191.744C191.576 216.042 150.098 227.379 110 222.904M113.814 158.992C103.021 157.276 95.466 154.874 85.5 149.992C74.882 144.79 67.999 139.971 58.251 130.913L52.238 125.325L59.436 117.469L66.634 109.613L73.305 115.819C83.235 125.057 93.728 131.485 104.861 135.152C113.767 138.085 115.526 138.326 128 138.326C140.474 138.326 142.233 138.085 151.139 135.152C162.272 131.485 172.765 125.057 182.695 115.819L189.366 109.613L196.574 117.48L203.782 125.347L198.261 130.423C183.21 144.264 167.737 153.144 151.956 156.996C142.288 159.357 122.587 160.388 113.814 158.992M120.734 94.97C111.404 92.627 103.095 85.89 98.812 77.193C96.946 73.404 96.5 70.862 96.5 64C96.5 53.879 98.692 48.466 105.579 41.579C116.752 30.406 133.733 28.939 146.421 38.051C167.042 52.86 163.331 83.659 139.744 93.47C134.969 95.456 125.609 96.195 120.734 94.97M133.64 72.827C137.998 70.694 139.693 63.533 137.022 58.541C136.301 57.193 134.18 55.364 132.308 54.476C121.798 49.489 112.426 63.153 120.689 71.416C124.256 74.983 128.328 75.427 133.64 72.827" />
    <glyph glyph-name="ban"
      unicode="&#xEA27;"
      horiz-adv-x="256" d="M108.5 254.445C52.322 244.952 9.966 202.042 1.455 146C-4.588 106.211 9.673 64.918 39.355 36.262C89.301 -11.958 166.699 -11.958 216.645 36.262C269.023 86.829 268.891 168.914 216.351 220.158C188.519 247.304 146.082 260.795 108.5 254.445M139.047 233.947C150.581 232.764 164.87 228.595 175.41 223.34C182.78 219.665 192.136 213.747 193.862 211.667C194.653 210.713 176.605 192.101 120.111 135.611L45.313 60.818L42.206 64.74C38.331 69.633 31.72 81.81 28.403 90.165C22.328 105.467 19.934 129.95 22.947 145.956C25.716 160.662 31.583 175.403 39.487 187.515C44.409 195.057 60.729 211.453 68.09 216.251C85.279 227.455 105.094 233.809 126.144 234.867C127.598 234.94 133.404 234.526 139.047 233.947M219.31 183C227.185 169.658 232.458 153.379 233.913 137.918C239.405 79.549 196.931 27.944 138.509 22.001C112.257 19.331 84.501 26.974 64.659 42.338L60.818 45.313L135.659 120.195L210.5 195.077L213.282 191.788C214.812 189.98 217.524 186.025 219.31 183" />
    <glyph glyph-name="single-content-03"
      unicode="&#xEA28;"
      horiz-adv-x="256" d="M11 128L11 0L128 0L245 0L245 128L245 256L128 256L11 256L11 128M224 128L224 21L128 21L32 21L32 128L32 235L128 235L224 235L224 128M64 181.5L64 171L128 171L192 171L192 181.5L192 192L128 192L64 192L64 181.5M64 128L64 117L128 117L192 117L192 128L192 139L128 139L64 139L64 128M64 74.5L64 64L96 64L128 64L128 74.5L128 85L96 85L64 85L64 74.5" />
    <glyph glyph-name="single-copy-04"
      unicode="&#xEA29;"
      horiz-adv-x="256" d="M43 245.5L43 235L133.5 235L224 235L224 128L224 21L234.5 21L245 21L245 138.5L245 256L144 256L43 256L43 245.5M11 106.5L11 0L107 0L203 0L203 106.5L203 213L107 213L11 213L11 106.5M181 106.5L181 21L106.5 21L32 21L32 106.5L32 192L106.5 192L181 192L181 106.5M53 149.5L53 139L106.5 139L160 139L160 149.5L160 160L106.5 160L53 160L53 149.5M53 106.5L53 96L106.5 96L160 96L160 106.5L160 117L106.5 117L53 117L53 106.5M53 64L53 53L85 53L117 53L117 64L117 75L85 75L53 75L53 64" />
    <glyph glyph-name="single-copies"
      unicode="&#xEA2A;"
      horiz-adv-x="256" d="M96 245.5L96 235L160 235L224 235L224 160L224 85L234.5 85L245 85L245 170.5L245 256L170.5 256L96 256L96 245.5M53 202.5L53 192L117 192L181 192L181 117.5L181 43L192 43L203 43L203 128L203 213L128 213L53 213L53 202.5M11 85.5L11 0L85.5 0L160 0L160 85.5L160 171L85.5 171L11 171L11 85.5M138.757 85.25L138.5 21.5L85.25 21.241L32 20.982L32 84.991L32 149L85.507 149L139.015 149L138.757 85.25" />
    <glyph glyph-name="mirror-2"
      unicode="&#xEA2B;"
      horiz-adv-x="256" d="M14.176 254.874C9.612 253.543 2.397 246.093 1.081 241.351C0.354 238.736 0.009 205.514 0.006 137.864L0 38.228L2.794 32.88C4.828 28.987 6.916 26.71 10.464 24.515L15.339 21.5L55.67 21.198L96 20.895L96 31.948L96 43L58.5 43L21 43L21 139.006L21 235.013L95.75 234.756L170.5 234.5L170.762 197.25L171.024 160L152.209 160C134.168 160 133.189 159.898 128.446 157.517C122.761 154.663 119.093 149.868 117.907 143.739C116.683 137.409 116.837 21.425 118.078 16C119.57 9.473 122.808 5.288 128.562 2.448L133.624 -0.051L187.562 0.225C240.045 0.493 241.608 0.556 245.5 2.589C247.7 3.738 250.85 6.589 252.5 8.925L255.5 13.172L255.5 79.909L255.5 146.646L252.686 150.899C250.737 153.844 248.277 155.894 244.686 157.566C239.665 159.904 238.748 159.981 215.792 159.99L192.084 160L191.792 200.825L191.5 241.649L188.741 245.816C187.224 248.108 184.107 251.224 181.815 252.741L177.647 255.5L97.574 255.672C48.289 255.777 16.222 255.47 14.176 254.874M234.5 80L234.5 21.5L186.75 21.24L139 20.981L139 80L139 139.019L186.75 138.76L234.5 138.5L234.5 80" />
    <glyph glyph-name="slider"
      unicode="&#xEA2C;"
      horiz-adv-x="256" d="M0 170.5L0 85L128 85L256 85L256 170.5L256 256L128 256L0 256L0 170.5M234.757 170.75L235.015 107L128.007 107L21 107L21 171.005L21 235.009L127.75 234.755L234.5 234.5L234.757 170.75M33.792 62.66C25.47 60.31 18.31 54.235 13.705 45.616C11.882 42.205 11.506 39.873 11.506 32C11.506 24.015 11.871 21.815 13.796 18.205C19.575 7.369 29.045 1.074 40.789 0.265C49.656 -0.347 57.515 2.531 64.294 8.872C70.036 14.243 72.328 18.366 73.955 26.25C75.297 32.754 74.131 40.853 70.967 47C68.386 52.014 61.272 58.564 55.776 60.987C49.754 63.643 39.924 64.391 33.792 62.66M205.734 62.973C199.817 61.483 194.848 58.529 190.359 53.833C185.302 48.542 183.582 45.216 182.043 37.75C179.846 27.087 183.314 16.722 191.706 8.872C207.537 -5.936 231.713 -1.468 242.204 18.205C244.128 21.814 244.495 24.018 244.497 32C244.5 40.665 244.239 41.971 241.532 46.859C238.219 52.841 232.758 57.97 226.458 61.021C221.607 63.369 211.199 64.349 205.734 62.973M121.525 52.326C118.001 51.328 112.874 47.277 110.156 43.344C107.853 40.012 107.5 38.492 107.5 31.927C107.5 25.607 107.891 23.783 109.862 20.907C113.846 15.092 119.576 11.658 126.082 11.188C133.555 10.647 137.731 12.135 142.783 17.136C147.81 22.114 149.359 26.415 148.804 33.856C148.008 44.517 140.347 52.008 129.671 52.564C126.277 52.741 122.611 52.634 121.525 52.326M46.401 41.606C50.743 39.792 53 36.456 53 31.854C53 27.339 49.238 22.431 45.077 21.517C38.919 20.164 31.993 25.824 32.004 32.2C32.01 36.005 35.607 40.832 39.212 41.871C41.02 42.393 42.627 42.86 42.782 42.91C42.937 42.959 44.566 42.373 46.401 41.606M219.24 40.832C221.366 39.743 224 34.855 224 32C224 25.81 216.984 20.186 210.923 21.517C206.762 22.431 203 27.339 203 31.854C203 40.272 211.337 44.881 219.24 40.832" />
    <glyph glyph-name="abc"
      unicode="&#xEA2F;"
      horiz-adv-x="256" d="M107 234.557L107 224L124.066 224C134.665 224 141.959 223.577 143.316 222.883C146.391 221.31 148.952 217.887 148.978 215.313C149 213.157 148.751 213.122 131.25 212.813C113.702 212.504 113.424 212.464 106.841 209.345C78.568 195.95 78.521 156.186 106.761 142.318L112.5 139.5L141.82 139.207L171.14 138.914L170.82 179.707L170.5 220.5L167.849 226.155C164.719 232.83 158.721 238.973 152.193 242.188C147.836 244.334 146.048 244.522 127.25 244.807L107 245.114L107 234.557M149 175.931L149 159.862L133.07 160.181C118.759 160.468 116.852 160.713 114.32 162.592C105.409 169.203 104.437 180.483 112.155 187.69C116.052 191.328 118.876 191.871 134.25 191.937L149 192L149 175.931M21 79.915L21 10.831L47.75 11.165L74.5 11.5L81.259 14.701C101.822 24.442 110.859 45.587 104.038 68C102.451 73.214 95.989 81.954 90.254 86.643C81.716 93.625 75.928 95.277 58.25 95.78L43 96.214L43 122.607L43 149L32 149L21 149L21 79.915M186.054 105.932C175.509 104.05 165.984 95.918 162.069 85.456C159.999 79.923 159.887 78.237 160.184 57.037C160.497 34.713 160.526 34.447 163.28 28.839C166.333 22.621 171.588 17.325 178.205 13.796C182.147 11.693 183.998 11.477 200.753 11.173C222.349 10.78 226.16 11.641 233.984 18.675C238.99 23.177 246.486 34.405 245.523 35.962C244.941 36.904 229.088 46 228.028 46C227.637 46 226.103 43.768 224.619 41.041C219.805 32.196 218.823 31.814 201.88 32.181C181.22 32.63 181.015 32.896 181.006 59.282C180.997 84.106 181.733 85 202.175 85C209.945 85 216.943 84.527 218.295 83.911C219.61 83.312 222.194 80.275 224.039 77.161C225.883 74.048 227.503 71.339 227.638 71.142C227.976 70.648 246 81.015 246 81.703C246 82.008 244.573 84.751 242.828 87.8C238.559 95.262 232.929 100.685 226.303 103.719C221.383 105.971 219.277 106.269 206.155 106.569C198.095 106.753 189.049 106.466 186.054 105.932M68.779 73.954C85.4 70.389 90.67 48.697 77.684 37.296C72.772 32.983 68.563 32.012 54.75 32.006L43 32L43 53.5L43 75L53.451 75C59.199 75 66.096 74.529 68.779 73.954" />
    <glyph glyph-name="puzzle-10"
      unicode="&#xEA30;"
      horiz-adv-x="256" d="M97 254.61C93.975 253.937 89.508 252.35 87.073 251.083C81.181 248.016 72.618 239.8 69.5 234.22C66.811 229.41 64 219.896 64 215.606L64 213L32 213L0 213L0 170.622L0 128.245L8.75 127.812C16.097 127.449 18.18 126.947 21.742 124.682C33.257 117.36 35.201 101.723 25.794 92.101C21.01 87.207 17.442 85.806 8.313 85.237L0 84.718L0 42.359L0 0L42.5 0L85 0L85.044 5.25C85.151 18.195 88.832 25.303 97.667 29.625C102.175 31.831 103.967 32.18 108.425 31.72C115.147 31.026 121.103 27.37 124.682 21.742C126.947 18.18 127.449 16.097 127.812 8.75L128.245 0L170.622 0L213 0L213 32L213 64L215.606 64C219.685 64 229.58 66.829 233.731 69.181C239.091 72.22 247.664 80.736 250.556 85.893C255.814 95.272 257.236 106.833 254.448 117.54C252.49 125.059 249.271 130.571 243.421 136.421C235.763 144.079 225.22 148.955 216.25 148.988L213 149L213 181L213 213L181 213L149 213L148.989 216.75C148.964 225.546 144.148 235.851 136.606 243.248C125.697 253.948 111.867 257.915 97 254.61M114.583 232.888C121.192 230.888 127.933 221.297 127.978 213.83C127.99 211.811 126.65 206.335 125 201.66C123.35 196.985 122 192.899 122 192.58C122 192.261 137.75 192 157 192L192 192L192 157C192 137.75 192.261 122 192.58 122C192.899 122 196.985 123.35 201.66 125C211.433 128.45 215.877 128.701 221.5 126.121C229.794 122.317 234.143 115.537 234.143 106.413C234.143 96.351 227.594 88.172 217.781 85.975C212.618 84.82 211.87 84.929 202.179 88.247L192 91.732L192 56.366L192 21L170.223 21L148.445 21L145.546 27.655C141.633 36.637 133.46 44.954 124.364 49.21C111.917 55.035 95.929 54.146 84.666 47.003C76.01 41.514 68.786 32.305 65.639 22.75C65.113 21.154 63.127 21 43.031 21L21 21L21 43.031C21 63.127 21.154 65.113 22.75 65.639C32.945 68.997 44.072 78.184 48.329 86.759C54.326 98.836 54.647 112.747 49.197 124.393C44.954 133.459 36.625 141.638 27.655 145.546L21 148.445L21 170.223L21 192L56.43 192L91.86 192L88.871 200.19C83.555 214.757 85.153 223.438 94.457 230.535C99.754 234.575 106.427 235.355 114.583 232.888" />
    <glyph glyph-name="image-2"
      unicode="&#xEA31;"
      horiz-adv-x="256" d="M73.5 243.598C61.78 239.882 51.894 231.273 46.769 220.319C44.253 214.944 43.532 211.919 43.184 205.282C42.486 191.98 46.181 181.915 54.998 173.097C61.269 166.827 66.796 163.548 74.46 161.552C89.812 157.554 104.566 161.734 115.591 173.203C121.838 179.702 124.498 184.275 126.478 191.914C130.355 206.876 126.371 221.471 115.421 232.421C106.672 241.17 97.147 245.021 84.5 244.921C80.65 244.891 75.7 244.295 73.5 243.598M93.5 222.121C101.728 218.347 106.143 211.533 106.142 202.611C106.142 196.074 104.962 193.071 100.421 188.044C90.024 176.536 71.116 180.656 65.378 195.68C62.074 204.332 65.833 215.345 73.812 220.381C80.236 224.436 87.126 225.045 93.5 222.121M138.534 135.046C119.959 110.271 104.585 90 104.369 90C104.154 90 94.288 97.27 82.445 106.156C70.098 115.421 60.556 121.926 60.078 121.406C59.619 120.908 46.887 95.863 31.786 65.75L4.328 11L127.771 11C226.137 11 251.108 11.254 250.693 12.25C247.827 19.119 173.727 178.673 173.12 179.28C172.673 179.727 157.11 159.821 138.534 135.046M194.888 82L217.663 32.5L128.67 32.245C79.724 32.104 39.501 32.166 39.285 32.382C38.744 32.923 67.324 90 68.136 90C68.495 90 77.273 83.561 87.644 75.692C98.015 67.822 107.047 61.055 107.717 60.653C108.529 60.166 118.824 73.109 138.673 99.571L168.413 139.22L170.263 135.36C171.281 133.237 182.362 109.225 194.888 82" />
    <glyph glyph-name="paint-bucket-40"
      unicode="&#xEA32;"
      horiz-adv-x="256" d="M123.5 253.961C107.376 249.679 85.334 235.886 67.634 219C39.165 191.841 21.573 161.854 21.581 140.5C21.585 130.636 23.824 125.145 30.096 119.622C36.599 113.896 146.077 33.96 149 32.803C150.375 32.26 155.1 32 159.5 32.227C166.291 32.577 168.819 33.26 176.227 36.744C188.182 42.367 198.631 49.781 210.152 60.814C227.644 77.566 238.787 93.425 243.519 108.302C247.729 121.539 246.935 125.612 237.55 138.93C232.234 146.472 232.112 146.791 233.915 148.423C236.776 151.012 241.763 160.991 243.469 167.542C245.386 174.902 245.423 187.822 243.547 194.869C239.664 209.461 228.189 223.271 214.813 229.451C205.434 233.784 198.084 234.983 180.83 234.992L167.16 235L162.16 241.875C159.41 245.657 155.803 249.716 154.146 250.896C146.631 256.247 136.083 257.302 123.5 253.961M141.55 233.307C145.6 229.257 140.466 212.099 130.748 197.21C115.336 173.594 91.257 151.435 69.5 140.845C57.752 135.127 49.44 133.023 45.569 134.787C43.323 135.81 43 136.568 43 140.822C43 149.782 48.636 162.591 59.14 177.5C67.234 188.989 87.903 209.647 99.512 217.851C118.592 231.334 136.821 238.036 141.55 233.307M205.795 210.136C212.32 206.76 217.644 201.426 220.676 195.23C222.903 190.679 223.42 188.23 223.456 182.069C223.5 174.555 220.829 164.531 218.961 165.201C217.992 165.548 184 211.632 184 212.599C184 212.954 187.938 213.045 192.75 212.801C199.193 212.475 202.633 211.772 205.795 210.136M181.404 179.43C198.948 155.446 201.599 151.359 200.167 150.5C199.191 149.914 186.177 149.364 168.75 149.172L139 148.844L139 138.36L139 127.876L171.75 128.199C202.856 128.506 204.773 128.633 209.94 130.737C212.933 131.956 215.441 132.851 215.514 132.726C215.587 132.602 217.672 129.8 220.146 126.5C224.288 120.978 224.582 120.202 223.839 116.754C219.149 94.97 177.503 54.363 159.111 53.642C155.861 53.514 151.295 56.591 113.5 84.371C90.4 101.35 71.106 115.604 70.624 116.047C70.143 116.489 73.465 118.72 78.007 121.004C94.127 129.109 110.112 141.165 124.565 156.12C140.02 172.112 149.858 185.782 157.428 201.786C159.039 205.191 160.495 207.838 160.665 207.669C160.834 207.499 170.167 194.792 181.404 179.43M21.592 88.75C11.13 72.791 3.999 59.246 1.458 50.504C-2.724 36.119 4.006 21.368 18.205 13.796C21.815 11.871 24.015 11.506 32 11.506C39.985 11.506 42.185 11.871 45.795 13.796C60.021 21.382 66.718 36.102 62.529 50.575C61.585 53.834 58.586 60.845 55.862 66.156C50.024 77.541 33.536 103 32 103C31.413 103 26.729 96.588 21.592 88.75M37.426 55.696C42.766 45.289 43.465 40.44 40.248 36.131C34.388 28.281 21.8 32.674 21.8 42.568C21.8 45.166 23.33 49.373 26.574 55.696C29.2 60.813 31.642 65 32 65C32.358 65 34.8 60.813 37.426 55.696" />
    <glyph glyph-name="palette"
      unicode="&#xEA33;"
      horiz-adv-x="256" d="M70.459 239.669C59.888 236.967 50.702 231.024 38.088 218.726C-12.232 169.668 -12.458 87.443 37.591 37.622C61.482 13.839 94.395 0 127.063 0C160.726 0 193.288 13.234 217.547 36.777C226.528 45.492 230.571 50.501 237.37 61.334C254.44 88.534 259.267 123.413 249.975 152.42C242.074 177.085 224.143 192.292 196.856 197.468C180.65 200.542 167.829 199.009 137.63 190.387C117.148 184.54 109.815 183.694 106.087 186.75L103.952 188.5L106.673 197.5C110.262 209.37 110.447 219.62 107.185 225.791C104.03 231.762 98.223 237.278 93.492 238.8C87.541 240.714 76.219 241.141 70.459 239.669M87.242 218.35C88.647 217.482 87.999 209.546 85.989 203C81.695 189.011 82.435 180.845 88.619 174C93.551 168.541 99.565 165.309 107.295 163.962C115.2 162.586 120.989 163.566 145.083 170.363C166.375 176.369 172.663 177.363 185.606 176.768C209.063 175.689 223.834 165.055 230.261 144.62C232.193 138.477 232.498 135.305 232.488 121.5C232.479 109.456 232.048 103.942 230.745 99.198C222.815 70.32 201.893 45.704 173.642 32.016C146.944 19.08 117.211 18.081 88.5 29.156C74.189 34.676 64.537 41.083 52.167 53.273C18.412 86.539 11.77 140.971 36.398 182.5C44.091 195.473 59.789 211.609 70 217.04C74.819 219.604 84.076 220.307 87.242 218.35M173.734 158.973C167.817 157.483 162.848 154.529 158.359 149.833C153.302 144.542 151.582 141.216 150.043 133.75C147.846 123.087 151.314 112.722 159.706 104.872C175.537 90.064 199.713 94.532 210.204 114.205C212.128 117.814 212.495 120.018 212.497 128C212.5 136.665 212.239 137.971 209.532 142.859C206.219 148.841 200.758 153.97 194.458 157.021C189.607 159.369 179.199 160.349 173.734 158.973M44.5 147.159C23.901 137.34 30.701 107 53.5 107C74.216 107 82.288 133.433 65.229 145.41C59.671 149.312 50.62 150.076 44.5 147.159M187.24 136.832C189.366 135.743 192 130.855 192 128C192 121.81 184.984 116.186 178.923 117.517C174.762 118.431 171 123.339 171 127.854C171 136.272 179.337 140.881 187.24 136.832M71.5 94.104C63.796 90.537 59 83.016 59 74.5C59 62.538 67.976 53.609 80 53.609C92.13 53.609 101.034 62.568 100.978 74.718C100.908 90.003 85.098 100.4 71.5 94.104M137.5 74.478C136.95 74.305 134.864 73.891 132.864 73.558C130.631 73.186 127.447 71.385 124.618 68.895C113.11 58.765 115.645 41.235 129.605 34.405C134.245 32.135 135.923 31.815 140.647 32.303C151.058 33.378 158.622 40.942 159.697 51.353C160.183 56.066 159.864 57.757 157.625 62.333C155.04 67.618 150.02 72.161 145.5 73.307C141.345 74.361 138.467 74.782 137.5 74.478" />
    <glyph glyph-name="transform-origin"
      unicode="&#xEA34;"
      horiz-adv-x="256" d="M24.734 254.97C2.611 249.414 -7.091 223.966 5.983 205.785C8.192 202.714 12.113 199.034 15.344 197L20.904 193.5L20.952 175.77L21 158.041L16.959 155.979C7.898 151.357 1.208 141.381 0.276 131.104C-0.83 118.906 4.815 107.628 15.344 101L20.904 97.5L20.952 79.77L21 62.041L16.959 59.979C11.657 57.274 5.691 51.039 2.812 45.193C-0.514 38.441 -0.496 25.522 2.849 18.73C14.234 -4.39 45.347 -6.257 59 15.362L62.5 20.904L80 20.904L97.5 20.904L101 15.362C113.858 -4.998 142.142 -4.998 155 15.362L158.5 20.904L176 20.904L193.5 20.904L197 15.362C207.057 -0.563 227.41 -4.729 242.436 6.061C262.082 20.17 259.844 49.204 238.25 60.371L235 62.051L235.048 79.776L235.096 97.5L240.638 101C262.016 114.5 260.711 144.756 238.25 156.371L235 158.051L235.048 175.776L235.096 193.5L240.638 197C263.176 211.233 260.301 242.919 235.5 253.636C229.076 256.412 217.812 256.036 210.845 252.813C204.699 249.97 198.535 244.266 195.48 238.594L193.545 235L176 235L158.455 235L156.52 238.594C148.607 253.287 129.766 259.715 114.845 252.813C108.699 249.97 102.535 244.266 99.48 238.594L97.545 235L80 235L62.455 235L60.52 238.594C57.521 244.162 51.332 249.959 45.569 252.597C39.634 255.314 30.325 256.375 24.734 254.97M35.445 234C36.15 234 37.914 232.814 39.364 231.364C41.469 229.259 42 227.774 42 224C42 217.368 38.632 214 32 214C24.775 214 20.387 219.341 21.751 226.476C22.64 231.129 28.736 235.466 32.832 234.36C33.564 234.162 34.74 234 35.445 234M131.445 234C132.15 234 133.914 232.814 135.364 231.364C139.09 227.638 139.121 220.394 135.427 216.7C128.464 209.737 118 214.151 118 224.052C118 227.743 118.543 229.27 120.577 231.304C123.146 233.873 126.304 235.042 128.832 234.36C129.564 234.162 130.74 234 131.445 234M229.64 232.827C235 230.204 235.956 221.228 231.364 216.636C227.606 212.878 220.394 212.878 216.636 216.636C212.908 220.364 212.879 227.606 216.577 231.304C220.256 234.984 224.276 235.452 229.64 232.827M101 207.362C113.858 187.002 142.142 187.002 155 207.362L158.5 212.904L176 212.896L193.5 212.889L197.295 206.989C199.95 202.861 202.861 199.95 206.989 197.295L212.889 193.5L212.944 175.77L213 158.041L208.959 155.979C199.898 151.357 193.208 141.381 192.276 131.104C191.17 118.906 196.815 107.628 207.344 101L212.904 97.5L212.952 79.77L213 62.041L208.959 59.979C204.153 57.527 198.168 51.583 195.48 46.594L193.545 43L176 43L158.455 43L156.52 46.594C148.607 61.287 129.766 67.715 114.845 60.813C108.699 57.97 102.535 52.266 99.48 46.594L97.545 43L80 43L62.455 43L60.52 46.594C57.832 51.583 51.847 57.527 47.041 59.979L43 62.041L43.048 79.77L43.096 97.5L48.638 101C70.016 114.5 68.711 144.756 46.25 156.371L43 158.051L43.056 175.776L43.111 193.5L49.011 197.295C53.139 199.95 56.05 202.861 58.705 206.989L62.5 212.889L80 212.896L97.5 212.904L101 207.362M121.525 148.326C118.001 147.328 112.874 143.277 110.156 139.344C107.853 136.012 107.5 134.492 107.5 127.927C107.5 121.607 107.891 119.783 109.862 116.907C113.846 111.092 119.576 107.658 126.082 107.188C133.555 106.647 137.731 108.135 142.783 113.136C147.81 118.114 149.359 122.415 148.804 129.856C148.008 140.517 140.347 148.008 129.671 148.564C126.277 148.741 122.611 148.634 121.525 148.326M39.252 135.476C40.64 134.087 41.989 131.837 42.249 130.476C43.613 123.341 39.225 118 32 118C28.279 118 26.736 118.537 24.748 120.524C20.394 124.879 20.394 131.121 24.748 135.476C28.336 139.064 35.664 139.064 39.252 135.476M231.252 135.476C232.64 134.087 233.989 131.837 234.249 130.476C235.613 123.341 231.225 118 224 118C216.775 118 212.387 123.341 213.751 130.476C214.011 131.837 215.36 134.087 216.748 135.476C220.336 139.064 227.664 139.064 231.252 135.476M131.445 42C132.15 42 133.914 40.814 135.364 39.364C139.09 35.638 139.121 28.394 135.427 24.7C128.464 17.737 118 22.151 118 32.052C118 35.743 118.543 37.27 120.577 39.304C123.146 41.873 126.304 43.042 128.832 42.36C129.564 42.162 130.74 42 131.445 42M39.364 39.364C43.09 35.638 43.121 28.394 39.427 24.7C35.962 21.235 31.921 20.469 27.692 22.476C21.081 25.613 19.519 34.246 24.636 39.364C26.741 41.469 28.226 42 32 42C35.774 42 37.259 41.469 39.364 39.364M231.364 39.364C236.481 34.246 234.919 25.613 228.308 22.476C224.079 20.469 220.038 21.235 216.573 24.7C212.879 28.394 212.91 35.638 216.636 39.364C218.741 41.469 220.226 42 224 42C227.774 42 229.259 41.469 231.364 39.364" />
    <glyph glyph-name="menu-right"
      unicode="&#xEA35;"
      horiz-adv-x="256" d="M0 202.5L0 192L128 192L256 192L256 202.5L256 213L128 213L0 213L0 202.5M0 128L0 117L128 117L256 117L256 128L256 139L128 139L0 139L0 128M117 53.5L117 43L186.5 43L256 43L256 53.5L256 64L186.5 64L117 64L117 53.5" />
    <glyph glyph-name="menu-34"
      unicode="&#xEA36;"
      horiz-adv-x="256" d="M0 202.5L0 192L128 192L256 192L256 202.5L256 213L128 213L0 213L0 202.5M0 128L0 117L128 117L256 117L256 128L256 139L128 139L0 139L0 128M0 53.5L0 43L128 43L256 43L256 53.5L256 64L128 64L0 64L0 53.5" />
    <glyph glyph-name="menu-left"
      unicode="&#xEA37;"
      horiz-adv-x="256" d="M0 202.5L0 192L128 192L256 192L256 202.5L256 213L128 213L0 213L0 202.5M0 128L0 117L128 117L256 117L256 128L256 139L128 139L0 139L0 128M0 53.5L0 43L69.5 43L139 43L139 53.5L139 64L69.5 64L0 64L0 53.5" />
    <glyph glyph-name="check-2"
      unicode="&#xEA38;"
      horiz-adv-x="256" d="M165.248 137.749L96.004 68.506L58.737 105.763L21.47 143.02L13.998 135.498L6.527 127.976L51.264 83.239L96.001 38.502L172.746 115.247L249.491 191.993L241.991 199.493L234.491 206.993L165.248 137.749" />
    <glyph glyph-name="preferences-circle"
      unicode="&#xEA39;"
      horiz-adv-x="256" d="M65 254.633C57.47 252.99 50.213 248.806 44.235 242.66C39.128 237.41 34 228.942 34 225.758C34 224.15 32.553 224 17 224L0 224L0 213.5L0 203L16.531 203C31.389 203 33.121 202.823 33.639 201.25C35.656 195.127 39.813 188.394 44.548 183.582C53.748 174.234 63.686 170.47 77.282 171.184C107.849 172.788 126.206 205.293 112.329 233.241C107.202 243.569 94.06 253.113 82.319 255.035C75.071 256.222 71.956 256.15 65 254.633M82.617 232.877C84.331 232.357 87.355 230.312 89.336 228.331C102.192 215.474 94.687 194.165 76.647 192.303C68.924 191.506 61.448 195.114 56.99 201.791C54.052 206.192 53.867 206.991 54.173 214C54.43 219.898 54.995 222.194 56.82 224.752C63.075 233.522 71.609 236.21 82.617 232.877M139 213.5L139 203L197.5 203L256 203L256 213.5L256 224L197.5 224L139 224L139 213.5M153.854 169.936C139.337 168.265 122.894 154.666 119.62 141.623L118.962 139L59.481 139L0 139L0 128L0 117L59.277 117L118.555 117L121.387 110.498C128.695 93.724 148.148 83.048 166.126 85.943C184.598 88.918 199.082 103.402 202.057 121.874C205.303 142.027 192.013 162.766 172 168.778C167.042 170.268 160.415 170.69 153.854 169.936M171.344 145.815C173.458 144.37 176.383 141.458 177.844 139.344C180.141 136.02 180.5 134.486 180.5 128C180.5 121.468 180.147 119.984 177.763 116.5C176.258 114.3 173.366 111.375 171.337 110C168.197 107.873 166.506 107.5 160 107.5C153.494 107.5 151.803 107.873 148.663 110C137.382 117.643 135.643 133.49 145.054 142.9C149.779 147.625 153.79 149.097 161 148.753C166.043 148.512 168.362 147.853 171.344 145.815M224 128L224 117L240 117L256 117L256 128L256 139L240 139L224 139L224 128M61.274 83.134C48.568 78.668 37.912 67.723 33.639 54.75C33.121 53.177 31.389 53 16.531 53L0 53L0 42.5L0 32L17 32C32.553 32 34 31.85 34 30.242C34 27.035 39.143 18.574 44.358 13.203C50.441 6.938 56.167 3.53 64.038 1.49C86.774 -4.401 109.715 9.182 115.968 32.236C118.136 40.23 116.953 52.367 113.231 60.319C109.078 69.195 101.188 77.079 92.274 81.26C86.38 84.024 84.266 84.472 76 84.704C68.809 84.906 65.229 84.525 61.274 83.134M85.84 60.601C102.389 50.154 97.161 25.104 77.696 21.578C71.611 20.476 63.945 23.212 59.579 28.044C54.895 33.229 54 35.691 54 43.394C54 48.704 54.465 50.359 57.052 54.265C63.401 63.85 76.223 66.672 85.84 60.601M139 42.5L139 32L197.5 32L256 32L256 42.5L256 53L197.5 53L139 53L139 42.5" />
    <glyph glyph-name="underline"
      unicode="&#xEA3A;"
      horiz-adv-x="256" d="M21 245.534L21 235.068L31.75 234.784L42.5 234.5L43.009 173L43.517 111.5L46.346 103C64.455 48.581 126.553 26.107 174.319 56.684C191.009 67.368 202.271 82.005 209.188 102L212.474 111.5L212.987 173L213.5 234.5L224.25 234.784L235 235.068L235 245.534L235 256L203 256L171 256L171 245.5L171 235L181.5 235L192 235L191.983 178.25C191.963 114.262 191.872 113.254 184.862 99.034C174.535 78.084 151.709 64.035 128 64.035C104.291 64.035 81.465 78.084 71.138 99.034C64.128 113.254 64.037 114.262 64.017 178.25L64 235L74.5 235L85 235L85 245.5L85 256L53 256L21 256L21 245.534M0 10.5L0 0L128 0L256 0L256 10.5L256 21L128 21L0 21L0 10.5" />
    <glyph glyph-name="link-69-2"
      unicode="&#xEA3D;"
      horiz-adv-x="256" d="M164.645 242.416C151.79 239.304 146.149 235.249 123.5 212.842L102.5 192.065L109.983 184.525L117.466 176.984L136.483 195.888C146.942 206.285 157.343 215.926 159.597 217.312C171.404 224.574 188.46 224.929 201.619 218.186C206.593 215.636 214.098 208.214 217.401 202.578C222.628 193.659 224.349 180.639 221.641 170.5C219.041 160.769 216.101 156.865 196.384 136.961L177.028 117.422L184.547 109.961L192.065 102.5L212.842 123.5C235.354 146.255 238.975 151.315 242.485 164.916C244.589 173.068 244.609 189.391 242.525 197.5C236.984 219.059 218.982 237.064 197.54 242.491C190.074 244.381 172.598 244.341 164.645 242.416M120.002 135.502L80.513 96.003L88.157 88.36L95.8 80.716L135.65 120.3L175.5 159.883L168.025 167.442C163.914 171.599 160.312 175 160.02 175C159.729 175 141.721 157.226 120.002 135.502M42.889 132.25C20.717 109.774 16.99 104.55 13.515 91.084C11.393 82.861 11.387 66.567 13.503 58.563C19.221 36.93 34.945 20.611 56.355 14.088C64.996 11.456 82.147 11.209 91.356 13.585C104.663 17.018 109.839 20.739 132.5 43.158L153.5 63.935L146.048 71.444L138.597 78.953L119.048 59.653C97.603 38.481 93.728 35.808 81.551 33.79C60.399 30.285 39.765 43.178 34.425 63.236C32.631 69.975 32.63 80.211 34.423 86.119C37.313 95.638 40.294 99.534 59.616 119.039L78.972 138.578L71.713 145.789C67.72 149.755 64.207 153 63.905 153C63.604 153 54.147 143.662 42.889 132.25" />
    <glyph glyph-name="capitalize"
      unicode="&#xEA3E;"
      horiz-adv-x="256" d="M27.136 200.66C16.611 176.241 8 155.824 8 155.289C8 154.435 22.405 147.54 25.767 146.785C26.534 146.612 29.105 151.235 32.283 158.5L37.532 170.5L58.61 170.769L79.688 171.039L85.01 158.476C88.023 151.363 90.802 146.114 91.416 146.376C96.627 148.601 109.549 154.293 109.736 154.445C109.866 154.551 101.289 174.857 90.677 199.569L71.382 244.5L58.827 244.779L46.272 245.058L27.136 200.66M128 224L128 213L192 213L256 213L256 224L256 235L192 235L128 235L128 224M64.419 206.554C67.488 199.436 70 193.249 70 192.806C70 192.363 64.787 192 58.417 192C51.655 192 46.972 192.389 47.167 192.936C48.162 195.729 58.522 219.811 58.666 219.667C58.76 219.573 61.349 213.672 64.419 206.554M128 160L128 149L192 149L256 149L256 160L256 171L192 171L128 171L128 160M0 96L0 85L128 85L256 85L256 96L256 107L128 107L0 107L0 96M0 32L0 21L128 21L256 21L256 32L256 43L128 43L0 43L0 32" />
    <glyph glyph-name="color"
      unicode="&#xEA3F;"
      horiz-adv-x="256" d="M108.714 252.772C107.982 250.973 95.975 217.437 82.034 178.25L56.685 107L44.343 107L32 107L32 96L32 85L64 85L96 85L96 96L96 107L87.545 107L79.09 107L81.404 113.25C82.677 116.687 86.087 126.137 88.982 134.25L94.245 149L128 149L161.755 149L167.018 134.25C169.913 126.137 173.323 116.687 174.596 113.25L176.91 107L168.455 107L160 107L160 96L160 85L192 85L224 85L224 96L224 107L211.66 107L199.32 107L172.855 181.25L146.39 255.5L128.218 255.772L110.046 256.045L108.714 252.772M142.461 203L153.733 171.5L140.866 171.221C133.79 171.068 122.203 171.068 115.118 171.221L102.236 171.5L113.126 202C119.116 218.775 124.235 233.091 124.502 233.814C124.797 234.615 126.196 235.005 128.088 234.814L131.189 234.5L142.461 203M0 32L0 0L128 0L256 0L256 32L256 64L128 64L0 64L0 32M234.5 32L234.5 21.5L127.75 21.245L21 20.991L21 32L21 43.009L127.75 42.755L234.5 42.5L234.5 32" />
    <glyph glyph-name="anchor"
      unicode="&#xEA40;"
      horiz-adv-x="256" d="M120.734 254.97C98.611 249.414 88.909 223.966 101.983 205.785C104.192 202.714 108.113 199.034 111.344 197L116.904 193.5L116.952 182.25L117 171L101 171L85 171L85 160L85 149L101 149L117 149L117 85.433C117 25.376 116.903 21.892 115.25 22.345C114.287 22.609 111.025 23.383 108 24.065C93.795 27.266 81.099 34.257 69.597 45.211L61.5 52.921L78.75 52.961L96 53L96 64L96 75L64 75L32 75L32 43L32 11L42.5 11L53 11L53 20.597L53 30.194L56.75 27.065C70.103 15.925 86.146 7.45 101.794 3.27C110.379 0.977 113.406 0.677 128 0.677C142.594 0.677 145.621 0.977 154.206 3.27C169.854 7.45 185.897 15.925 199.25 27.065L203 30.194L203 20.597L203 11L213.5 11L224 11L224 43L224 75L192 75L160 75L160 64L160 53L177.25 52.961L194.5 52.921L186.403 45.211C174.901 34.257 162.205 27.266 148 24.065C144.975 23.383 141.713 22.609 140.75 22.345C139.097 21.892 139 25.375 139 85.407L139 148.949L154.75 149.225L170.5 149.5L170.5 160L170.5 170.5L154.75 170.775L139 171.051L139.048 182.275L139.096 193.5L144.638 197C167.029 211.14 164.243 243.28 139.744 253.47C134.969 255.456 125.609 256.195 120.734 254.97M133.64 232.827C137.998 230.694 139.693 223.533 137.022 218.541C136.301 217.193 134.18 215.364 132.308 214.476C121.798 209.489 112.426 223.153 120.689 231.416C124.256 234.983 128.328 235.427 133.64 232.827" />
    <glyph glyph-name="italic"
      unicode="&#xEA41;"
      horiz-adv-x="256" d="M117 245.5L117 235L131.567 235C144.981 235 146.092 234.861 145.591 233.25C144.554 229.908 88 21.951 88 21.477C88 21.215 80.125 21 70.5 21L53 21L53 10.5L53 0L96 0L139 0L139 10.5L139 21L124.433 21C111.018 21 109.908 21.139 110.409 22.75C111.337 25.734 168 234.169 168 234.596C168 234.818 175.875 235 185.5 235L203 235L203 245.5L203 256L160 256L117 256L117 245.5" />
    <glyph glyph-name="square-upload"
      unicode="&#xEA42;"
      horiz-adv-x="256" d="M88.235 209.735L48.98 170.47L56.499 163.001L64.018 155.532L90.509 182.009L117 208.486L117 141.743L117 75L128 75L139 75L139 141.743L139 208.486L165.491 182.009L191.982 155.532L199.501 163.001L207.02 170.47L167.765 209.735C146.174 231.331 128.28 249 128 249C127.72 249 109.826 231.331 88.235 209.735M11 53.5L11 11L128 11L245 11L245 53.5L245 96L234.5 96L224 96L224 64L224 32L128 32L32 32L32 64L32 96L21.5 96L11 96L11 53.5" />
    <glyph glyph-name="square-download"
      unicode="&#xEA43;"
      horiz-adv-x="256" d="M117 178.257L117 111.514L90.5 138L64.001 164.485L56.502 156.986L49.003 149.487L88.502 109.998L128 70.509L167.498 109.998L206.997 149.487L199.498 156.986L191.999 164.485L165.5 138L139 111.514L139 178.257L139 245L128 245L117 245L117 178.257M11 53.5L11 11L128 11L245 11L245 53.5L245 96L234.5 96L224 96L224 64L224 32L128 32L32 32L32 64L32 96L21.5 96L11 96L11 53.5" />
    <glyph glyph-name="simple-add"
      unicode="&#xEA44;"
      horiz-adv-x="256" d="M117 192L117 139L64 139L11 139L11 128L11 117L64 117L117 117L117 64L117 11L128 11L139 11L139 64L139 117L192 117L245 117L245 128L245 139L192 139L139 139L139 192L139 245L128 245L117 245L117 192" />
    <glyph glyph-name="simple-remove"
      unicode="&#xEA45;"
      horiz-adv-x="256" d="M45.723 210.225C42.025 206.499 39 203.013 39 202.48C39 201.946 55.535 184.97 75.745 164.755L112.49 128L75.745 91.245C55.535 71.03 39 54.03 39 53.468C39 52.171 52.219 39 53.52 39C54.054 39 71.03 55.535 91.245 75.745L128 112.49L165.265 75.235L202.53 37.98L209.765 45.263C213.744 49.269 217 52.984 217 53.519C217 54.053 200.465 71.03 180.255 91.245L143.51 128L180.255 164.755C200.465 184.97 217 201.97 217 202.532C217 203.829 203.781 217 202.48 217C201.946 217 184.97 200.465 164.755 180.255L128 143.51L91.245 180.255C71.03 200.465 54.03 217 53.468 217C52.906 217 49.421 213.951 45.723 210.225" />
    <glyph glyph-name="circle-delete"
      unicode="&#xEA47;"
      horiz-adv-x="256" d="M108.5 254.445C52.322 244.952 9.966 202.042 1.455 146C-4.588 106.211 9.673 64.918 39.355 36.262C89.301 -11.958 166.699 -11.958 216.645 36.262C269.023 86.829 268.891 168.914 216.351 220.158C188.519 247.304 146.082 260.795 108.5 254.445M139.047 233.947C155.39 232.27 173.266 225.796 187.91 216.251C195.179 211.513 211.571 195.089 216.36 187.746C224.311 175.554 230.359 160.394 233.033 145.956C234.762 136.619 234.49 117.016 232.5 107.5C222.7 60.647 185.467 26.777 138.509 22.001C107.75 18.872 77.618 29.17 55.12 50.5C33.239 71.244 21.825 97.587 21.759 127.5C21.709 149.564 27.489 169.131 39.487 187.515C44.409 195.057 60.729 211.453 68.09 216.251C85.279 227.455 105.094 233.809 126.144 234.867C127.598 234.94 133.404 234.526 139.047 233.947M64 128L64 117L128 117L192 117L192 128L192 139L128 139L64 139L64 128" />
    <glyph glyph-name="circle-add"
      unicode="&#xEA48;"
      horiz-adv-x="256" d="M108.5 254.445C52.322 244.952 9.966 202.042 1.455 146C-4.588 106.211 9.673 64.918 39.355 36.262C89.301 -11.958 166.699 -11.958 216.645 36.262C269.023 86.829 268.891 168.914 216.351 220.158C188.519 247.304 146.082 260.795 108.5 254.445M139.047 233.947C155.39 232.27 173.266 225.796 187.91 216.251C195.179 211.513 211.571 195.089 216.36 187.746C224.311 175.554 230.359 160.394 233.033 145.956C234.762 136.619 234.49 117.016 232.5 107.5C222.7 60.647 185.467 26.777 138.509 22.001C107.75 18.872 77.618 29.17 55.12 50.5C33.239 71.244 21.825 97.587 21.759 127.5C21.709 149.564 27.489 169.131 39.487 187.515C44.409 195.057 60.729 211.453 68.09 216.251C85.279 227.455 105.094 233.809 126.144 234.867C127.598 234.94 133.404 234.526 139.047 233.947M117 165.5L117 139L90.5 139L64 139L64 128L64 117L90.5 117L117 117L117 90.5L117 64L128 64L139 64L139 90.5L139 117L165.5 117L192 117L192 128L192 139L165.5 139L139 139L139 165.5L139 192L128 192L117 192L117 165.5" />
    <glyph glyph-name="button-2"
      unicode="&#xEA49;"
      horiz-adv-x="256" d="M0 176.011L0 96.022L40.672 95.761L81.345 95.5L92.411 62.25C98.498 43.962 103.712 29 103.999 29C104.285 29 112.283 41.937 121.772 57.75C131.26 73.562 139.457 87.175 139.987 88C140.756 89.196 146.481 83.977 168.27 62.212L195.589 34.925L202.967 42.533L210.344 50.142L183.104 77.396L155.864 104.649L186.555 123.033L217.246 141.417L133.873 169.215C88.018 184.504 49.741 197.257 48.813 197.554C47.518 197.969 50.247 188.739 60.563 157.811C67.953 135.655 74 117.409 74 117.264C74 117.119 62.075 117 47.5 117L21 117L21 176.005L21 235.009L127.75 234.755L234.5 234.5L234.5 176L234.5 117.5L223.75 117.216L213 116.932L213 106.466L213 96L234.5 96L256 96L256 176L256 256L128 256L0 256L0 176.011M123.5 150.375C146.05 142.881 164.827 136.457 165.226 136.099C165.625 135.741 158.052 130.735 148.397 124.974L130.842 114.5L120.224 96.59C114.384 86.74 109.396 79.315 109.139 80.09C108.881 80.866 102.481 100.062 94.914 122.75C87.348 145.437 81.46 164 81.829 164C82.198 164 100.95 157.869 123.5 150.375" />
    <glyph glyph-name="enlarge-circle"
      unicode="&#xEA4A;"
      horiz-adv-x="256" d="M0 213.5L0 171L10.5 171L21 171L21 203L21 235L53 235L85 235L85 245.5L85 256L42.5 256L0 256L0 213.5M171 245.514L171 235.028L202.75 234.764L234.5 234.5L234.764 202.75L235.028 171L245.514 171L256 171L256 213.5L256 256L213.5 256L171 256L171 245.514M114.112 179.419C90.995 173.202 74.99 152.291 75.006 128.324C75.014 115.622 77.219 108.29 84.167 97.861C90.793 87.916 101.666 80.047 113.909 76.336C116.334 75.601 122.675 75 128 75C133.325 75 139.666 75.601 142.091 76.336C159.99 81.761 174.971 96.947 179.61 114.368C181.421 121.171 181.365 134.18 179.492 141.369C174.691 159.8 159.835 174.682 141.458 179.469C134.174 181.366 121.264 181.343 114.112 179.419M141.375 157.061C147.366 154.16 154.168 147.341 157.126 141.27C160.587 134.168 160.466 122.561 156.852 114.852C153.624 107.966 147.378 101.525 141.149 98.659C134.581 95.636 121.419 95.636 114.851 98.659C101.718 104.702 93.838 120.692 96.917 135.05C99.128 145.359 108.143 155.294 118.296 158.612C124.404 160.608 135.601 159.856 141.375 157.061M0 42.5L0 0L42.5 0L85 0L85 10.5L85 21L53 21L21 21L21 53L21 85L10.5 85L0 85L0 42.5M234.764 53.25L234.5 21.5L202.75 21.236L171 20.972L171 10.486L171 0L213.5 0L256 0L256 42.5L256 85L245.514 85L235.028 85L234.764 53.25" />
    <glyph glyph-name="align-bottom"
      unicode="&#xEA4C;"
      horiz-adv-x="256" d="M43 149.5L43 64L80 64L117 64L117 149.5L117 235L80 235L43 235L43 149.5M96 149L96 85L80 85L64 85L64 149L64 213L80 213L96 213L96 149M139 117.5L139 64L176 64L213 64L213 117.5L213 171L176 171L139 171L139 117.5M192 117L192 85L176 85L160 85L160 117L160 149L176 149L192 149L192 117M0 32L0 21L128 21L256 21L256 32L256 43L128 43L0 43L0 32" />
    <glyph glyph-name="align-right"
      unicode="&#xEA4D;"
      horiz-adv-x="256" d="M213 128L213 0L224 0L235 0L235 128L235 256L224 256L213 256L213 128M21 176L21 139L106.5 139L192 139L192 176L192 213L106.5 213L21 213L21 176M171 176L171 160L107 160L43 160L43 176L43 192L107 192L171 192L171 176M85 80L85 43L138.5 43L192 43L192 80L192 117L138.5 117L85 117L85 80M171 80L171 64L139 64L107 64L107 80L107 96L139 96L171 96L171 80" />
    <glyph glyph-name="align-top"
      unicode="&#xEA4E;"
      horiz-adv-x="256" d="M0 224L0 213L128 213L256 213L256 224L256 235L128 235L0 235L0 224M43 138.5L43 85L80 85L117 85L117 138.5L117 192L80 192L43 192L43 138.5M139 106.5L139 21L176 21L213 21L213 106.5L213 192L176 192L139 192L139 106.5M96 139L96 107L80 107L64 107L64 139L64 171L80 171L96 171L96 139M192 107L192 43L176 43L160 43L160 107L160 171L176 171L192 171L192 107" />
    <glyph glyph-name="align-center-horizontal"
      unicode="&#xEA4F;"
      horiz-adv-x="256" d="M117 234.5L117 213L96 213L75 213L75 176L75 139L96 139L117 139L117 128L117 117L80 117L43 117L43 80L43 43L80 43L117 43L117 21.5L117 0L128 0L139 0L139 21.5L139 43L176 43L213 43L213 80L213 117L176 117L139 117L139 128L139 139L160 139L181 139L181 176L181 213L160 213L139 213L139 234.5L139 256L128 256L117 256L117 234.5M160 176L160 160L128 160L96 160L96 176L96 192L128 192L160 192L160 176M192 80L192 64L128 64L64 64L64 80L64 96L128 96L192 96L192 80" />
    <glyph glyph-name="align-center-vertical"
      unicode="&#xEA50;"
      horiz-adv-x="256" d="M43 176L43 139L21.5 139L0 139L0 128L0 117L21.5 117L43 117L43 80L43 43L80 43L117 43L117 80L117 117L128 117L139 117L139 96L139 75L176 75L213 75L213 96L213 117L234.5 117L256 117L256 128L256 139L234.5 139L213 139L213 160L213 181L176 181L139 181L139 160L139 139L128 139L117 139L117 176L117 213L80 213L43 213L43 176M96 128L96 64L80 64L64 64L64 128L64 192L80 192L96 192L96 128M192 128L192 96L176 96L160 96L160 128L160 160L176 160L192 160L192 128" />
    <glyph glyph-name="align-left"
      unicode="&#xEA51;"
      horiz-adv-x="256" d="M21 128L21 0L32 0L43 0L43 128L43 256L32 256L21 256L21 128M64 176L64 139L149.5 139L235 139L235 176L235 213L149.5 213L64 213L64 176M213 176L213 160L149 160L85 160L85 176L85 192L149 192L213 192L213 176M64 80L64 43L117.5 43L171 43L171 80L171 117L117.5 117L64 117L64 80M149 80L149 64L117 64L85 64L85 80L85 96L117 96L149 96L149 80" />
    <glyph glyph-name="disperse"
      unicode="&#xEA52;"
      horiz-adv-x="256" d="M0 213.5L0 171L10.5 171L21 171L21 195.242L21 219.484L44 196.5L67 173.516L74.742 181.258L82.484 189L59.5 212L36.516 235L60.758 235L85 235L85 245.5L85 256L42.5 256L0 256L0 213.5M171 245.5L171 235L195.242 235L219.484 235L196.5 212L173.516 189L181.258 181.258L189 173.516L212 196.5L235 219.484L235 195.242L235 171L245.5 171L256 171L256 213.5L256 256L213.5 256L171 256L171 245.5M121.854 169.936C110.094 168.583 96.831 159.549 90.823 148.799C81.636 132.361 84.607 111.488 98.048 98.048C122.614 73.481 164.495 87.339 170.057 121.874C173.303 142.027 160.013 162.766 140 168.778C135.042 170.268 128.415 170.69 121.854 169.936M139.344 145.815C141.458 144.37 144.383 141.458 145.844 139.344C148.141 136.02 148.5 134.486 148.5 128C148.5 121.468 148.147 119.984 145.763 116.5C144.258 114.3 141.366 111.375 139.337 110C136.197 107.873 134.506 107.5 128 107.5C121.494 107.5 119.803 107.873 116.663 110C105.382 117.643 103.643 133.49 113.054 142.9C117.779 147.625 121.79 149.097 129 148.753C134.043 148.512 136.362 147.853 139.344 145.815M0 42.5L0 0L42.5 0L85 0L85 10.5L85 21L60.758 21L36.516 21L59.5 44L82.484 67L74.742 74.742L67 82.484L44 59.5L21 36.516L21 60.758L21 85L10.5 85L0 85L0 42.5M235 60.758L235 36.516L212 59.5L189 82.484L181.258 74.742L173.516 67L196.5 44L219.484 21L195.242 21L171 21L171 10.5L171 0L213.5 0L256 0L256 42.5L256 85L245.5 85L235 85L235 60.758" />
    <glyph glyph-name="zoom-out"
      unicode="&#xEA53;"
      horiz-adv-x="256" d="M91.5 254.891C81.304 253.422 68.114 249.153 58.619 244.249C36.567 232.86 20.903 216.729 10.434 194.629C-9.038 153.524 -0.181 104.447 32.332 73.292C48.775 57.534 67.029 48.265 89.258 44.383C102.153 42.132 120.09 42.958 133.477 46.42C144.486 49.267 160.922 56.836 168.19 62.406C170.77 64.383 173.247 66 173.696 66C174.145 66 188.003 52.504 204.491 36.009L234.47 6.017L241.735 13.234C245.731 17.203 249 20.908 249 21.469C249 22.029 235.645 35.848 219.322 52.178L189.645 81.867L194.351 88.882C208.184 109.499 213.843 129.86 212.7 154.903C209.863 217.104 153.27 263.793 91.5 254.891M127.5 232.057C157.419 224.244 179.409 202.754 188.651 172.297C190.974 164.642 191.329 161.683 191.39 149.5C191.448 137.821 191.085 134.198 189.205 127.648C173.993 74.668 116.51 48.983 68 73.49C20.139 97.67 6.677 160.049 40.137 202.6C52.221 217.967 71.818 229.724 91.565 233.454C101.839 235.395 116.973 234.806 127.5 232.057M64 149.5L64 139L106.5 139L149 139L149 149.5L149 160L106.5 160L64 160L64 149.5" />
    <glyph glyph-name="zoom-in"
      unicode="&#xEA54;"
      horiz-adv-x="256" d="M91.5 254.891C81.304 253.422 68.114 249.153 58.619 244.249C36.567 232.86 20.903 216.729 10.434 194.629C-9.038 153.524 -0.181 104.447 32.332 73.292C48.775 57.534 67.029 48.265 89.258 44.383C102.153 42.132 120.09 42.958 133.477 46.42C144.486 49.267 160.922 56.836 168.19 62.406C170.77 64.383 173.247 66 173.696 66C174.145 66 188.003 52.504 204.491 36.009L234.47 6.017L241.735 13.234C245.731 17.203 249 20.908 249 21.469C249 22.029 235.645 35.848 219.322 52.178L189.645 81.867L194.351 88.882C208.184 109.499 213.843 129.86 212.7 154.903C209.863 217.104 153.27 263.793 91.5 254.891M127.5 232.057C157.419 224.244 179.409 202.754 188.651 172.297C190.974 164.642 191.329 161.683 191.39 149.5C191.448 137.821 191.085 134.198 189.205 127.648C173.993 74.668 116.51 48.983 68 73.49C20.139 97.67 6.677 160.049 40.137 202.6C52.221 217.967 71.818 229.724 91.565 233.454C101.839 235.395 116.973 234.806 127.5 232.057M96 176L96 160L80 160L64 160L64 149.5L64 139L80 139L96 139L96 123L96 107L106.475 107L116.949 107L117.225 122.75L117.5 138.5L133.25 138.775L149 139.051L149 149.525L149 160L133 160L117 160L117 176L117 192L106.5 192L96 192L96 176" />
    <glyph glyph-name="trash-simple"
      unicode="&#xEA55;"
      horiz-adv-x="256" d="M74.77 234.75L74.5 213.5L37.25 213.238L0 212.976L0 202.488L0 192L128 192L256 192L256 202.488L256 212.976L218.75 213.238L181.5 213.5L181.23 234.75L180.96 256L128 256L75.04 256L74.77 234.75M160 224L160 213L128 213L96 213L96 224L96 235L128 235L160 235L160 224M32 85.5L32 0L128 0L224 0L224 85.5L224 171L213.506 171L203.013 171L202.756 96.25L202.5 21.5L127.75 21.244L53 20.987L53 95.994L53 171L42.5 171L32 171L32 85.5M75 96L75 53L85.5 53L96 53L96 96L96 139L85.5 139L75 139L75 96M117 96L117 52.932L127.75 53.216L138.5 53.5L138.5 96L138.5 138.5L127.75 138.784L117 139.068L117 96M160 96L160 53L170.5 53L181 53L181 96L181 139L170.5 139L160 139L160 96" />
    <glyph glyph-name="edit-72"
      unicode="&#xEA56;"
      horiz-adv-x="256" d="M95.748 164.248L11 79.496L11 45.248L11 11L45.252 11L79.504 11L164.48 95.98L249.456 180.96L244.996 185.73C232.965 198.598 182.386 249 181.504 249C180.949 249 142.359 210.862 95.748 164.248M200.501 199.999L219.483 180.998L211.239 172.754L202.996 164.511L183.761 183.745L164.527 202.98L172.49 210.99C176.87 215.395 180.693 219 180.986 219C181.28 219 190.061 210.449 200.501 199.999M168.503 167.997L187.487 148.993L128.997 90.497L70.506 32L51.253 32L32 32L32 51.247L32 70.494L90.247 128.747C122.283 160.786 148.724 187 149.007 187C149.289 187 158.062 178.448 168.503 167.997" />
    <glyph glyph-name="form"
      unicode="&#xEA57;"
      horiz-adv-x="256" d="M21.244 170.75L21.5 85.5L128 85.5L234.5 85.5L234.756 170.75L235.011 256L128 256L20.989 256L21.244 170.75M213 224L213 213L128 213L43 213L43 224L43 235L128 235L213 235L213 224M213 149.5L213 107L128 107L43 107L43 149.5L43 192L128 192L213 192L213 149.5M117 32L117 0L176 0L235 0L235 32L235 64L176 64L117 64L117 32M213 32L213 21L176 21L139 21L139 32L139 43L176 43L213 43L213 32" />
    <glyph glyph-name="zoom-99"
      unicode="&#xEA58;"
      horiz-adv-x="256" d="M106.598 229.25L86.007 203.5L101.503 203.225L117 202.949L117 170.975L117 139L85.025 139L53.051 139L52.775 154.497L52.5 169.993L26.75 149.402C12.587 138.076 1 128.446 1 128C1 127.554 12.587 117.924 26.75 106.598L52.5 86.007L52.775 101.503L53.051 117L85.025 117L117 117L117 85.025L117 53.051L101.503 52.775L86.007 52.5L106.598 26.75C117.924 12.588 127.554 1 128 1C128.446 1 138.076 12.588 149.402 26.75L169.993 52.5L154.497 52.775L139 53.051L139 85.025L139 117L170.975 117L202.949 117L203.225 101.503L203.5 86.007L229.25 106.598C243.412 117.924 255 127.554 255 128C255 128.446 243.413 138.076 229.25 149.402L203.5 169.993L203.225 154.497L202.949 139L170.975 139L139 139L139 170.975L139 202.949L154.497 203.225L169.993 203.5L149.402 229.25C138.076 243.413 128.446 255 128 255C127.554 255 117.924 243.413 106.598 229.25" />
    <glyph glyph-name="crop"
      unicode="&#xEA59;"
      horiz-adv-x="256" d="M53 224L53 192L26.5 192L0 192L0 181.5L0 171L90.5 171L181 171L181 128L181 85L128 85L75 85L75 117L75 149L64 149L53 149L53 106.5L53 64L154.5 64L256 64L256 74.5L256 85L229.5 85L203 85L203 138.5L203 192L139 192L75 192L75 224L75 256L64 256L53 256L53 224M181 21.534L181 0L192.02 0L203.04 0L202.77 21.25L202.5 42.5L191.75 42.784L181 43.068L181 21.534" />
    <glyph glyph-name="enlarge-vertical"
      unicode="&#xEA5A;"
      horiz-adv-x="256" d="M93.511 215.011L59.532 181.021L66.489 174.011C70.316 170.155 73.905 167 74.464 167C75.024 167 84.824 176.333 96.241 187.741L117 208.482L117 128L117 47.518L96.241 68.259C84.824 79.667 75.024 89 74.464 89C73.905 89 70.315 85.844 66.488 81.987L59.529 74.975L93.764 40.739L128 6.504L162.236 40.739L196.471 74.975L189.512 81.987C185.685 85.844 182.095 89 181.536 89C180.976 89 171.176 79.667 159.759 68.259L139 47.518L139 128L139 208.482L159.759 187.741C171.176 176.333 180.976 167 181.536 167C182.095 167 185.684 170.155 189.511 174.011L196.468 181.021L162.489 215.011C143.801 233.705 128.281 249 128 249C127.719 249 112.199 233.705 93.511 215.011" />
    <glyph glyph-name="enlarge-horizontal"
      unicode="&#xEA5B;"
      horiz-adv-x="256" d="M40.498 161.998L6.507 127.996L40.741 93.763L74.975 59.529L81.987 66.488C85.844 70.315 89 73.905 89 74.464C89 75.024 79.667 84.824 68.259 96.241L47.518 117L128 117L208.482 117L187.741 96.241C176.333 84.824 167 75.024 167 74.464C167 73.905 170.156 70.315 174.013 66.488L181.025 59.529L215.261 93.764L249.496 128L215.261 162.236L181.025 196.471L174.013 189.512C170.156 185.685 167 182.095 167 181.536C167 180.976 176.333 171.176 187.741 159.759L208.482 139L128 139L47.518 139L68.259 159.759C79.667 171.176 89 180.976 89 181.536C89 182.525 75.93 196 74.969 196C74.705 196 59.193 180.699 40.498 161.998" />
    <glyph glyph-name="rotate-right-2"
      unicode="&#xEA5C;"
      horiz-adv-x="256" d="M85 239.115L85 224.231L68.25 223.769C53.828 223.371 50.434 222.956 43.835 220.786C28.339 215.692 14.233 203.358 6.908 188.5C0.921 176.356 0.037 170.361 0.017 141.75L0 117L10.5 117L21 117L21.02 138.25C21.043 162.998 22.022 171.351 25.774 178.823C29.395 186.033 37.657 194.293 44.908 197.954C52.12 201.594 60.199 202.983 74.225 202.992L84.949 203L85.225 187.497L85.5 171.994L116.37 192.582L147.24 213.17L116.627 233.585C99.79 244.813 85.786 254 85.507 254C85.228 254 85 247.302 85 239.115M64 74.5L64 0L154.5 0L245 0L245 74.5L245 149L154.5 149L64 149L64 74.5M224 100.038L224 72.075L202.25 85.142C190.287 92.328 180.198 98.391 179.829 98.614C179.46 98.838 164.16 81.482 145.829 60.046L112.5 21.071L98.75 21.035L85 21L85 74.5L85 128L154.5 128L224 128L224 100.038M113.378 105.539C106.479 102.59 104.797 94.497 109.898 88.789C117.194 80.622 130.448 88.473 127.386 99.148C125.766 104.798 118.936 107.914 113.378 105.539M204.185 59.25L223.947 47.5L223.974 34.25L224 21L182.5 21C159.675 21 141 21.241 141 21.536C141 22.401 182.995 71 183.742 71C184.116 71 193.315 65.713 204.185 59.25" />
    <glyph glyph-name="rotate-left-2"
      unicode="&#xEA5D;"
      horiz-adv-x="256" d="M139.13 233.519L108.76 213.17L139.63 192.582L170.5 171.994L170.775 187.497L171.051 203L181.775 202.992C187.674 202.988 195.36 202.521 198.855 201.954C214.33 199.443 227.401 188.113 232.838 172.5C233.829 169.656 234.374 161.061 234.725 142.75L235.218 117L245.609 117L256 117L255.983 141.75C255.962 170.531 255.091 176.331 248.9 188.889C241.63 203.638 227.283 215.92 211.282 221.092C205.774 222.873 201.354 223.373 187.75 223.758L171 224.231L171 239.115C171 247.302 170.662 253.97 170.25 253.934C169.838 253.898 155.834 244.711 139.13 233.519M0 74.5L0 0L90.5 0L181 0L181 74.5L181 149L90.5 149L0 149L0 74.5M160 100.038L160 72.075L138.25 85.142C126.287 92.328 116.198 98.391 115.829 98.614C115.46 98.838 100.16 81.482 81.829 60.046L48.5 21.071L34.75 21.035L21 21L21 74.5L21 128L90.5 128L160 128L160 100.038M49.378 105.539C42.479 102.59 40.797 94.497 45.898 88.789C53.194 80.622 66.448 88.473 63.386 99.148C61.766 104.798 54.936 107.914 49.378 105.539M140.185 59.25L159.947 47.5L159.974 34.25L160 21L118.5 21C95.675 21 77 21.241 77 21.536C77 22.401 118.995 71 119.742 71C120.116 71 129.315 65.713 140.185 59.25" />
    <glyph glyph-name="margin-right"
      unicode="&#xEA5E;"
      horiz-adv-x="256" d="M0 224L0 213L128 213L256 213L256 224L256 235L128 235L0 235L0 224M157.505 151.007L134.511 127.995L157.755 104.75L181 81.505L181 99.253L181 117L218.5 117L256 117L256 128L256 139L218.523 139L181.046 139L180.773 156.51L180.5 174.02L157.505 151.007M0 160L0 149L58.5 149L117 149L117 160L117 171L58.5 171L0 171L0 160M0 96L0 85L58.5 85L117 85L117 96L117 107L58.5 107L0 107L0 96M0 32L0 21L128 21L256 21L256 32L256 43L128 43L0 43L0 32" />
    <glyph glyph-name="margin-left"
      unicode="&#xEA5F;"
      horiz-adv-x="256" d="M0 224L0 213L128 213L256 213L256 224L256 235L128 235L0 235L0 224M75 156.747L75 139L37.5 139L0 139L0 128L0 117L37.5 117L75 117L75 99.253L75 81.505L98.247 104.753L121.495 128L98.247 151.247L75 174.495L75 156.747M139 160L139 149L197.5 149L256 149L256 160L256 171L197.5 171L139 171L139 160M139 96L139 85L197.5 85L256 85L256 96L256 107L197.5 107L139 107L139 96M0 32L0 21L128 21L256 21L256 32L256 43L128 43L0 43L0 32" />
    <glyph glyph-name="alert"
      unicode="&#xEA60;"
      horiz-adv-x="256" d="M65.795 128.75L4.12 11.5L66.06 11.242C100.127 11.101 155.887 11.101 189.972 11.242L251.944 11.5L190.235 128.75C156.296 193.238 128.289 246 127.998 246C127.707 246 99.716 193.238 65.795 128.75M172.607 116.25L216.696 32.5L172.348 32.24C147.957 32.097 108.046 32.097 83.657 32.24L39.314 32.5L83.387 116.25C107.627 162.312 127.698 200 127.989 200C128.28 200 148.358 162.312 172.607 116.25M117 116.966L117 84.932L127.75 85.216L138.5 85.5L138.764 117.25L139.028 149L128.014 149L117 149L117 116.966M125.327 74.292C122.303 73.72 118.25 69.416 117.494 65.974C116.579 61.809 119.415 56.506 123.624 54.508C127.899 52.479 131.939 53.212 135.364 56.636C142.899 64.172 135.999 76.31 125.327 74.292" />
    <glyph glyph-name="cheque-3"
      unicode="&#xEA61;"
      horiz-adv-x="256" d="M64 165.604L64 75.209L44.25 74.819C26.362 74.467 24.029 74.217 19.5 72.168C12.987 69.222 5.701 61.988 2.805 55.592C0.626 50.779 0.483 49.117 0.188 25.25L-0.125 0L74.438 0L149 0L149 20.184C149 38.325 149.202 40.787 151 44.5C156.174 55.187 172.744 56.047 178.886 45.947C179.95 44.198 181.055 39.815 181.454 35.769C182.532 24.833 185.265 18.763 192.361 11.549C200.386 3.391 206.929 0.715 219 0.655C226.2 0.62 228.433 1.036 233.605 3.378C241.318 6.871 248.999 14.563 252.702 22.5L255.5 28.5L255.771 142.25L256.041 256L160.021 256L64 256L64 165.604M234.794 138C234.956 84.925 234.806 39.097 234.461 36.161C233.969 31.969 233.085 29.993 230.351 26.967C224.587 20.587 217.557 19.531 210.304 23.955C205.418 26.936 203.702 30.453 202.364 40.235C201.616 45.704 200.136 51.246 198.565 54.457C195.089 61.561 186.93 69.095 179.475 72.084C173.534 74.465 173.248 74.481 129.25 74.796L85 75.114L85 155.063L85 235.013L159.75 234.756L234.5 234.5L234.794 138M117 181.5L117 171L160 171L203 171L203 181.5L203 192L160 192L117 192L117 181.5M117 128L117 116.979L159.75 117.239L202.5 117.5L202.5 128L202.5 138.5L159.75 138.761L117 139.021L117 128M129.384 47.25C128.64 44.088 128.024 36.887 128.016 31.25L128 21L74.5 21L21 21L21 32.55C21 44.897 21.989 48.478 26.217 51.439C28.165 52.804 34.862 53 79.591 53L130.737 53L129.384 47.25" />
    <glyph glyph-name="favourite-31"
      unicode="&#xEA62;"
      horiz-adv-x="256" d="M107.863 212.717L87.701 172.379L47.101 166.56C24.77 163.36 5.038 160.516 3.25 160.24C1.462 159.964 0 159.187 0 158.514C0 157.841 2.588 154.873 5.75 151.919C8.913 148.965 23.138 135.206 37.361 121.344L63.223 96.139L55.608 51.906C51.42 27.578 48.107 7.578 48.246 7.46C48.386 7.343 66.387 16.678 88.25 28.206L128 49.165L167.75 28.206C189.613 16.678 207.607 7.335 207.737 7.443C207.867 7.552 204.59 27.364 200.454 51.471C196.318 75.578 193.061 95.682 193.217 96.148C193.373 96.613 207.45 110.526 224.5 127.064C241.55 143.603 255.634 157.717 255.797 158.429C255.977 159.216 254.803 159.922 252.797 160.232C250.984 160.512 231.224 163.361 208.887 166.562L168.274 172.383L148.149 212.719L128.024 253.055L107.863 212.717M141.212 178.59C152.652 155.688 154.181 153.124 156.703 152.62C158.241 152.312 170.975 150.434 185 148.447C199.024 146.46 210.674 144.659 210.889 144.445C211.103 144.23 201.953 134.93 190.555 123.778L169.832 103.5L174.788 75C177.513 59.325 179.689 46.426 179.622 46.335C179.555 46.244 167.912 52.252 153.75 59.686L128 73.203L102.25 59.686C88.088 52.252 76.445 46.244 76.378 46.335C76.311 46.426 78.488 59.325 81.215 75L86.173 103.5L65.432 123.762C54.024 134.906 44.873 144.206 45.096 144.429C45.319 144.652 56.976 146.46 71 148.447C85.025 150.434 97.759 152.312 99.297 152.62C101.819 153.124 103.348 155.688 114.788 178.59C121.77 192.565 127.715 204 128 204C128.285 204 134.23 192.565 141.212 178.59" />
    <glyph glyph-name="at-sign"
      unicode="&#xEA63;"
      horiz-adv-x="256" d="M114 254.465C57.634 246.569 19.837 211.561 5.044 153.551C-10.287 93.428 11.662 38.325 60.789 13.604C79.294 4.292 96.904 0.641 123.5 0.605C147.231 0.573 162.583 2.666 183.315 8.758C193.431 11.731 193.045 10.475 187.945 23.83L184.876 31.867L180.701 30.395C154.806 21.258 117.618 18.987 92.293 24.995C56.095 33.583 31.273 58.527 23.367 94.257C20.902 105.396 21.138 127.866 23.854 140.688C29.309 166.434 40.966 189.584 56.241 205.002C74.78 223.715 103.261 234.225 135.5 234.251C150.648 234.264 158.539 233.093 171.846 228.859C197.902 220.569 216.136 205.138 226.577 182.539C232.644 169.408 234.283 161.472 234.328 145C234.418 112.187 225.518 91.036 209.713 86.498C199.76 83.64 191.346 86.482 187.032 94.157C185.89 96.188 184.108 101.169 183.07 105.227C181.384 111.819 181.274 114.462 182.035 130.076C182.892 147.682 184.313 164.01 186.03 176C187.786 188.266 188.132 187.591 178.608 190.495C147.085 200.11 120.399 198.181 100.461 184.845C80.537 171.52 68.878 147.183 68.914 119C68.937 101.876 73.53 88.944 83.035 79.248C103.206 58.67 135.711 58.903 160.603 79.803L167.64 85.711L168.883 82.902C170.767 78.647 178.961 70.497 183.797 68.069C190.205 64.852 202.456 63.329 210.647 64.732C232.841 68.534 247.541 86.635 253.642 117.674C256.195 130.665 256.177 159.813 253.609 170C245.726 201.274 224.734 228.117 197.5 241.747C173.899 253.559 142.104 258.402 114 254.465M157.668 173.897C161.151 173.291 163.999 172.728 163.998 172.647C163.997 172.566 163.352 165.975 162.565 158C161.778 150.025 160.82 136.75 160.437 128.5C159.824 115.328 159.436 112.896 157.249 108.546C149.561 93.247 127.071 81.906 112.343 85.9C106.615 87.453 99.119 92.705 95.751 97.525C88.357 108.103 88.147 128.559 95.258 145.422C101.431 160.06 111.991 169.616 126.23 173.45C132.624 175.171 149.013 175.404 157.668 173.897" />
    <glyph glyph-name="gradient"
      unicode="&#xEA64;"
      horiz-adv-x="256" d="M0 128L0 0L53.5 0L107 0L107 128L107 256L53.5 256L0 256L0 128M139 128L139 0L170.5 0L202 0L202 128L202 256L170.5 256L139 256L139 128M85 128L85 21L53 21L21 21L21 128L21 235L53 235L85 235L85 128M181.5 128L181.5 21.5L170.75 21.216L160 20.932L160 128L160 235.068L170.75 234.784L181.5 234.5L181.5 128" />
    <glyph glyph-name="polaroid"
      unicode="&#xEA65;"
      horiz-adv-x="256" d="M11 128L11 0L128 0L245 0L245 128L245 256L128 256L11 256L11 128M224 128L224 21L128 21L32 21L32 128L32 235L128 235L224 235L224 128M43 149.5L43 75L128 75L213 75L213 149.5L213 224L128 224L43 224L43 149.5M192 149.5L192 96L128 96L64 96L64 149.5L64 203L128 203L192 203L192 149.5" />
    <glyph glyph-name="marker-2"
      unicode="&#xEA67;"
      horiz-adv-x="256" d="M98.507 178.007L27.52 107.014L38.256 96.245L48.992 85.476L25.517 62.017C12.606 49.114 2.37 38.264 2.771 37.904C3.172 37.544 15.365 33.314 29.866 28.503L56.232 19.756L70.875 34.375L85.518 48.994L96.261 38.251L107.003 27.509L176.065 96.504C214.05 134.452 246.063 166.784 247.206 168.353L249.284 171.207L210.397 210.103C189.009 231.497 171.056 249 170.502 249C169.948 249 137.55 217.053 98.507 178.007M178.011 212.489L184.464 205.978L156.233 177.733L128.001 149.488L138.744 138.744L149.488 128.001L177.743 156.242L205.997 184.484L212.742 177.739L219.487 170.994L162.997 114.497L106.506 57.999L82.006 82.499L57.506 106.999L113.5 163C144.296 193.8 169.958 219 170.526 219C171.093 219 174.462 216.07 178.011 212.489M67.528 66.971L70.43 63.942L60.442 53.954L50.454 43.967L45.623 45.613L40.791 47.259L52.129 58.63C58.365 64.883 63.728 70 64.047 70C64.365 70 65.932 68.637 67.528 66.971" />
    <glyph glyph-name="undo-25"
      unicode="&#xEA68;"
      horiz-adv-x="256" d="M26.996 191.875C26.993 191.669 23.191 170.364 18.547 144.531C13.903 118.699 10.263 97.404 10.457 97.209C11.367 96.3 104.487 80.1 105.048 80.754C105.842 81.679 109.115 100.219 108.579 100.754C108.365 100.968 94.605 103.554 78 106.5C61.395 109.446 47.646 112.021 47.446 112.221C46.16 113.507 68.829 125.696 81.064 130.298C127.652 147.822 185.804 136.147 221.225 102.159L225.949 97.625L233.386 105.563L240.822 113.5L236.661 117.271C202.892 147.87 158.444 163.158 114.75 159.201C89.052 156.874 66.785 149.59 44.691 136.283C41.497 134.358 38.726 132.945 38.535 133.142C38.344 133.339 40.39 145.65 43.081 160.5C45.773 175.35 47.98 187.75 47.987 188.055C47.994 188.36 44.513 189.189 40.25 189.896C35.987 190.604 31.262 191.423 29.75 191.716C28.238 192.01 26.998 192.081 26.996 191.875" />
    <glyph glyph-name="redo-26"
      unicode="&#xEA69;"
      horiz-adv-x="256" d="M216.75 190.192C211.938 189.329 208.008 188.37 208.018 188.061C208.028 187.753 210.227 175.35 212.905 160.5C215.582 145.65 217.625 133.339 217.445 133.142C217.265 132.945 214.503 134.358 211.309 136.282C189.347 149.506 166.779 156.889 141.25 159.201C97.505 163.163 53.115 147.895 19.342 117.271L15.183 113.5L22.496 105.621L29.81 97.742L34.655 102.191C62.757 127.994 102.117 141.463 139.25 137.983C158.442 136.184 172.616 132.181 189.936 123.668C198.676 119.372 209.217 112.884 208.546 112.213C208.342 112.008 194.56 109.402 177.92 106.42C161.28 103.439 147.523 100.857 147.349 100.682C146.882 100.215 150.209 81.621 150.906 80.802C151.433 80.183 244.693 96.359 245.552 97.219C245.741 97.408 242.097 118.699 237.453 144.531C232.809 170.364 229.007 191.612 229.004 191.75C228.996 192.21 225.569 191.774 216.75 190.192" />
    <glyph glyph-name="floppy-disk"
      unicode="&#xEA6A;"
      horiz-adv-x="256" d="M32.5 243.672C24.206 240.42 17.857 234.748 13.835 227L11.5 222.5L11.5 128L11.5 33.5L13.834 29C16.941 23.01 23.068 16.832 28.817 13.894L33.5 11.5L128 11.5L222.5 11.5L227.183 13.894C232.932 16.832 239.059 23.01 242.166 29L244.5 33.5L244.768 109.975L245.037 186.451L215.775 215.725L186.513 245L111.006 244.924C55.653 244.868 34.699 244.534 32.5 243.672M200.278 200.222L224.041 176.444L223.77 107.14L223.5 37.835L220.234 34.918L216.968 32L128 32L39.032 32L35.766 34.918L32.5 37.836L32.234 127.263L31.969 216.69L34.122 219.429C35.307 220.934 37.227 222.551 38.388 223.02C39.55 223.489 71.104 223.902 108.508 223.937L176.516 224L200.278 200.222M149 181.534L149 160L160.02 160L171.04 160L170.77 181.25L170.5 202.5L159.75 202.784L149 203.068L149 181.534M53.46 137.756C53.194 137.064 53.095 117.824 53.239 94.999L53.5 53.5L64 53.5L74.5 53.5L74.764 85.25L75.028 117L128 117L180.972 117L181.236 85.25L181.5 53.5L192 53.5L202.5 53.5L202.5 96L202.5 138.5L128.221 138.756C69.309 138.96 53.842 138.753 53.46 137.756" />
    <glyph glyph-name="upload"
      unicode="&#xEA6B;"
      horiz-adv-x="256" d="M99.009 220.509L70.532 192.019L77.998 184.502L85.464 176.986L101.232 192.731L117 208.477L117 146.704L117 84.932L127.75 85.216L138.5 85.5L138.758 146.981L139.016 208.461L154.776 192.724L170.536 176.986L178.002 184.502L185.468 192.019L156.991 220.509C141.328 236.179 128.282 249 128 249C127.718 249 114.672 236.179 99.009 220.509M21 80L21 0L128 0L235 0L235 80L235 160L203 160L171 160L171 149.5L171 139L192 139L213 139L213 80L213 21L128 21L43 21L43 80L43 139L64 139L85 139L85 149.5L85 160L53 160L21 160L21 80" />
    <glyph glyph-name="world"
      unicode="&#xEA6E;"
      horiz-adv-x="256" d="M108.5 254.445C52.322 244.952 9.966 202.042 1.455 146C-4.588 106.211 9.673 64.918 39.355 36.262C89.301 -11.958 166.699 -11.958 216.645 36.262C269.023 86.829 268.891 168.914 216.351 220.158C188.519 247.304 146.082 260.795 108.5 254.445M139.047 233.947C160.117 231.785 183.158 221.789 197.79 208.463L202.5 204.173L199.5 203.013C194.072 200.914 170.615 194.011 164.825 192.809C157.832 191.357 157.674 191.469 151.306 202.335C148.674 206.826 144.02 213.425 140.964 217C131.128 228.507 126.594 235 128.394 235C128.611 235 133.404 234.526 139.047 233.947M110.809 221.341C111.986 219.053 116.616 212.753 121.099 207.341C125.582 201.928 129.949 196.375 130.802 195C140.624 179.176 143.1 176.129 148.202 173.586C155.27 170.064 162.567 170.165 177.286 173.987C186.774 176.45 208.532 183.601 215.127 186.423C218.086 187.69 225.791 172.708 230.426 156.676C237.992 130.513 234.832 102.409 221.497 77.257C198.351 33.597 146.221 11.699 98.412 25.553C87.573 28.695 68.022 38.212 68.006 40.356C68.003 40.826 69.147 42.574 70.548 44.239C74.094 48.453 76.428 53.306 79.031 61.877C80.866 67.917 81.173 70.769 80.75 77.864C80 90.451 75.742 99.564 64.566 112.5C56.459 121.884 53.733 125.861 54.333 127.425C54.638 128.22 60.65 131.814 67.694 135.411C87.947 145.756 95.361 152.554 98.621 163.768C102.533 177.224 96.429 198.359 83.609 215.753C81.074 219.192 79 222.223 79 222.489C79 223.269 85.766 226 96.486 229.546L106.471 232.85L107.571 229.175C108.176 227.154 109.633 223.628 110.809 221.341M64.494 205.75C69.412 200.024 76.794 184.815 78.055 177.812C79.971 167.166 77.403 164.395 55.001 152.931C38.59 144.533 32.024 136.954 32.006 126.384C31.997 121.395 38.342 110.249 46.99 100.064C59.231 85.647 61.774 78.613 58.64 67.834C56.814 61.553 53.068 55.5 51.007 55.5C48.797 55.5 39.557 67.626 34.624 77C25.391 94.544 21.692 109.17 21.723 128C21.76 149.749 27.7 169.598 39.534 187.515C43.461 193.461 58.559 210 60.06 210C60.491 210 62.487 208.087 64.494 205.75M153.5 159.507C133.165 154.984 118.046 139.828 117.745 123.664C117.306 100.077 118.146 62.244 119.187 58.771C120.639 53.925 127.459 46.684 132.665 44.46C138.453 41.987 146.783 41.051 152.5 42.23C171.747 46.198 194.619 66.44 205.914 89.5C211.586 101.081 213.278 108.565 212.81 120C212.462 128.481 212.059 130.175 209.049 135.792C205.133 143.099 196.169 151.867 188.795 155.604C178.888 160.624 165.288 162.128 153.5 159.507M178.242 136.775C183.212 134.664 189.42 128.655 191.045 124.383C193.6 117.662 190.669 104.816 183.989 93.449C179.018 84.991 163.886 70.039 156.812 66.595C150.229 63.39 144.149 62.315 141.283 63.849C139.338 64.889 139.282 65.847 139.412 95.409C139.545 125.411 139.584 125.945 141.812 128.959C149.082 138.793 165.298 142.272 178.242 136.775" />
    <glyph glyph-name="wireframe"
      unicode="&#xEA6F;"
      horiz-adv-x="256" d="M32.5 243.679C24.178 240.395 17.854 234.743 13.835 227L11.5 222.5L11.5 128L11.5 33.5L13.834 29C16.941 23.01 23.068 16.832 28.817 13.894L33.5 11.5L128 11.5L222.5 11.5L227.183 13.894C232.932 16.832 239.059 23.01 242.166 29L244.5 33.5L244.5 128L244.5 222.5L242.106 227.183C239.168 232.932 232.99 239.059 227 242.166L222.5 244.5L129 244.682C58.959 244.818 34.747 244.567 32.5 243.679M221.082 220.234L224 216.968L224 198.984L224 181L128 181L32 181L32 198.865C32 215.601 32.135 216.902 34.138 219.448C35.314 220.943 37.227 222.554 38.388 223.028C39.55 223.502 80.475 223.802 129.332 223.695L218.164 223.5L221.082 220.234M75 96L75 32L57.016 32L39.032 32L35.766 34.918L32.5 37.835L32.227 98.918L31.955 160L53.477 160L75 160L75 96M223.773 98.918L223.5 37.835L220.234 34.918L216.968 32L156.484 32L96 32L96 96L96 160L160.023 160L224.045 160L223.773 98.918" />
    <glyph glyph-name="send"
      unicode="&#xEA70;"
      horiz-adv-x="256" d="M124.75 202.29C56.688 175.045 1 152.415 1 152.001C1 151.587 15.171 140.618 32.491 127.625L63.982 104.002L64.241 53.689L64.5 3.375L90.325 34.137L116.15 64.9L157.312 34.02C179.95 17.036 198.657 3.323 198.881 3.547C199.302 3.969 248.935 251.373 248.657 251.663C248.57 251.752 192.813 229.534 124.75 202.29M201.519 123.093C192.452 77.777 184.907 40.574 184.753 40.42C184.599 40.266 164.076 55.442 139.145 74.145C114.214 92.847 93.97 108.299 94.158 108.482C98.229 112.441 217.532 206.905 217.726 206.323C217.879 205.863 210.586 168.41 201.519 123.093M169.45 196.139C162.228 189.592 77.091 122.575 76 122.578C75.175 122.581 67.361 127.946 58.635 134.501C45.543 144.335 43.096 146.56 44.635 147.228C51.995 150.423 168.7 196.918 169.45 196.954C170.05 196.983 170.05 196.683 169.45 196.139M95.732 80.204L98.965 77.79L92.807 70.345C89.42 66.251 86.278 62.672 85.825 62.392C85.371 62.111 85 67.812 85 75.06L85 88.237L88.75 85.428C90.813 83.883 93.955 81.532 95.732 80.204" />
    <glyph glyph-name="c-question"
      unicode="&#xEA71;"
      horiz-adv-x="256" d="M108.5 254.445C52.322 244.952 9.966 202.042 1.455 146C-4.588 106.211 9.673 64.918 39.355 36.262C89.301 -11.958 166.699 -11.958 216.645 36.262C269.023 86.829 268.891 168.914 216.351 220.158C188.519 247.304 146.082 260.795 108.5 254.445M139.047 233.947C155.39 232.27 173.266 225.796 187.91 216.251C195.179 211.513 211.571 195.089 216.36 187.746C224.311 175.554 230.359 160.394 233.033 145.956C234.762 136.619 234.49 117.016 232.5 107.5C222.7 60.647 185.467 26.777 138.509 22.001C107.75 18.872 77.618 29.17 55.12 50.5C33.239 71.244 21.825 97.587 21.759 127.5C21.709 149.564 27.489 169.131 39.487 187.515C44.409 195.057 60.729 211.453 68.09 216.251C85.279 227.455 105.094 233.809 126.144 234.867C127.598 234.94 133.404 234.526 139.047 233.947M126 202.399C114.285 200.421 110.199 199.328 101.203 195.765C95.36 193.451 91.099 191.214 91.351 190.594C91.799 189.495 99.272 172.705 99.509 172.266C99.578 172.137 103.283 173.57 107.742 175.451C118.12 179.827 125.829 181.316 135.65 180.841C149.428 180.174 156 174.838 156 164.319C156 156.494 152.583 150.539 142.767 141.261C129.137 128.377 124.098 122.746 121.502 117.5C118.641 111.718 117 104.013 117 96.364L117 91L128 91L139 91L139 98.05C139 102.194 139.584 106.212 140.416 107.8C141.196 109.285 147.833 116.35 155.166 123.5C166.051 134.112 169.168 137.811 172.139 143.637C184.906 168.677 174.938 193.066 148.957 200.355C143.226 201.963 130.256 203.117 126 202.399M125.327 74.292C122.303 73.72 118.25 69.416 117.494 65.974C116.579 61.809 119.415 56.506 123.624 54.508C127.899 52.479 131.939 53.212 135.364 56.636C142.899 64.172 135.999 76.31 125.327 74.292" />
    <glyph glyph-name="layout-11-2"
      unicode="&#xEA73;"
      horiz-adv-x="256" d="M21 181.5L21 107L69 107L117 107L117 181.5L117 256L69 256L21 256L21 181.5M139 213.5L139 171L187 171L235 171L235 213.5L235 256L187 256L139 256L139 213.5M96 181.5L96 128L69.5 128L43 128L43 181.5L43 235L69.5 235L96 235L96 181.5M213 213.5L213 192L186.5 192L160 192L160 213.5L160 235L186.5 235L213 235L213 213.5M139 74.5L139 0L187 0L235 0L235 74.5L235 149L187 149L139 149L139 74.5M213 74.5L213 21L186.5 21L160 21L160 74.5L160 128L186.5 128L213 128L213 74.5M21 42.5L21 0L69 0L117 0L117 42.5L117 85L69 85L21 85L21 42.5M96 42.5L96 21L69.5 21L43 21L43 42.5L43 64L69.5 64L96 64L96 42.5" />
    <glyph glyph-name="clapperboard"
      unicode="&#xEA75;"
      horiz-adv-x="256" d="M119 234.455C61.525 222.69 11.297 212.358 7.382 211.494L0.265 209.922L2.398 199.711C4 192.04 4.9 189.552 6.015 189.707C9.104 190.139 230.515 235.294 230.833 235.557C231.152 235.821 228.409 250.615 227.367 254.25C227.091 255.213 226.108 255.965 225.183 255.922C224.257 255.879 176.475 246.219 119 234.455M11 85.5L11 0L128 0L245 0L245 85.5L245 171L128 171L11 171L11 85.5M224 85L224 21L128 21L32 21L32 85L32 149L128 149L224 149L224 85M96 85.583C96 57.762 96.192 35 96.426 35C97.158 35 177.428 83.206 178.795 84.467C179.967 85.548 154.11 101.744 100.782 133.333L96 136.165L96 85.583M126.861 92.83C131.613 89.986 136.317 87.11 137.316 86.439C138.931 85.354 138.009 84.54 129.02 79.109C123.458 75.749 118.478 73 117.953 73C117.4 73 117 78.24 117 85.5C117 92.375 117.275 98 117.611 98C117.947 98 122.11 95.673 126.861 92.83" />
    <glyph glyph-name="single-02"
      unicode="&#xEA76;"
      horiz-adv-x="256" d="M114.5 254.501C105.195 252.422 100.365 250.396 92.932 245.455C73.858 232.775 62.977 211.095 64.347 188.5C65.072 176.53 67.02 169.499 72.934 157.5C98.696 105.237 155.819 104.445 182.436 155.981C197.702 185.539 194.188 215.933 173.061 237.061C157.573 252.549 135.366 259.162 114.5 254.501M134.855 233.954C150.349 231.44 163.665 219.876 168.775 204.5C170.855 198.239 170.51 183.657 168.099 176C163.785 162.297 151.793 146.937 141.5 141.932C134.467 138.511 121.638 138.447 114.838 141.797C104.934 146.676 93.748 160.039 89.044 172.613C84.33 185.211 84.624 200.568 89.774 210.823C95.419 222.064 108.44 231.925 120.233 233.889C127.555 235.108 127.734 235.109 134.855 233.954M83.881 105.968C60.418 102.363 38.83 85.736 28.069 62.982C23.452 53.218 21.678 43.546 21.583 27.606L21.5 13.711L27 11.821C46.082 5.262 91.007 0.008 128 0.008C164.998 0.008 209.935 5.264 229 11.822L234.5 13.714L234.384 27.707C234.251 43.749 232.499 53.322 227.931 62.982C219.878 80.011 204.82 94.689 188.816 101.11C175.79 106.337 176.098 106.307 131.5 106.577C108.4 106.717 86.971 106.443 83.881 105.968M173.458 83.469C182.416 81.136 190.818 76.182 198 69C207.408 59.592 213 46.691 213 34.394L213 29.208L204.25 27.636C158.783 19.47 96.874 19.466 51.75 27.626L43 29.208L43 35.178C43 42.683 46.823 54.388 51.65 61.659C58.24 71.588 70.39 80.267 82.112 83.419C90.24 85.605 165.101 85.646 173.458 83.469" />
  </font>
</defs>
</svg>
